<mxfile host="app.diagrams.net" modified="2023-11-30T12:24:43.736Z" agent="Mozilla/5.0 (Windows NT 10.0; Win64; x64) AppleWebKit/537.36 (KHTML, like Gecko) Chrome/119.0.0.0 Safari/537.36 Edg/119.0.0.0" etag="jv5dqNUOaVI8pKLqZluM" version="22.1.5" type="device" pages="6">
  <diagram id="C5RBs43oDa-KdzZeNtuy" name="bai1">
    <mxGraphModel dx="746" dy="505" grid="1" gridSize="10" guides="1" tooltips="1" connect="1" arrows="1" fold="1" page="1" pageScale="1" pageWidth="827" pageHeight="1169" math="0" shadow="0">
      <root>
        <mxCell id="WIyWlLk6GJQsqaUBKTNV-0" />
        <mxCell id="WIyWlLk6GJQsqaUBKTNV-1" parent="WIyWlLk6GJQsqaUBKTNV-0" />
        <mxCell id="W5oPqiJ7xPEvRdj_KYyq-2" style="edgeStyle=orthogonalEdgeStyle;rounded=0;orthogonalLoop=1;jettySize=auto;html=1;exitX=0.5;exitY=1;exitDx=0;exitDy=0;entryX=0.5;entryY=0;entryDx=0;entryDy=0;" parent="WIyWlLk6GJQsqaUBKTNV-1" source="W5oPqiJ7xPEvRdj_KYyq-0" target="W5oPqiJ7xPEvRdj_KYyq-1" edge="1">
          <mxGeometry relative="1" as="geometry" />
        </mxCell>
        <mxCell id="W5oPqiJ7xPEvRdj_KYyq-0" value="start" style="ellipse;whiteSpace=wrap;html=1;" parent="WIyWlLk6GJQsqaUBKTNV-1" vertex="1">
          <mxGeometry x="354" y="30" width="120" height="80" as="geometry" />
        </mxCell>
        <mxCell id="W5oPqiJ7xPEvRdj_KYyq-9" style="edgeStyle=orthogonalEdgeStyle;rounded=0;orthogonalLoop=1;jettySize=auto;html=1;exitX=0.5;exitY=1;exitDx=0;exitDy=0;entryX=0.5;entryY=0;entryDx=0;entryDy=0;" parent="WIyWlLk6GJQsqaUBKTNV-1" source="W5oPqiJ7xPEvRdj_KYyq-1" target="W5oPqiJ7xPEvRdj_KYyq-8" edge="1">
          <mxGeometry relative="1" as="geometry" />
        </mxCell>
        <mxCell id="W5oPqiJ7xPEvRdj_KYyq-1" value="a" style="shape=parallelogram;perimeter=parallelogramPerimeter;whiteSpace=wrap;html=1;fixedSize=1;" parent="WIyWlLk6GJQsqaUBKTNV-1" vertex="1">
          <mxGeometry x="354" y="150" width="120" height="60" as="geometry" />
        </mxCell>
        <mxCell id="W5oPqiJ7xPEvRdj_KYyq-5" style="edgeStyle=orthogonalEdgeStyle;rounded=0;orthogonalLoop=1;jettySize=auto;html=1;exitX=0.5;exitY=1;exitDx=0;exitDy=0;entryX=0.5;entryY=0;entryDx=0;entryDy=0;" parent="WIyWlLk6GJQsqaUBKTNV-1" source="W5oPqiJ7xPEvRdj_KYyq-3" target="W5oPqiJ7xPEvRdj_KYyq-4" edge="1">
          <mxGeometry relative="1" as="geometry" />
        </mxCell>
        <mxCell id="W5oPqiJ7xPEvRdj_KYyq-3" value="printA(int *x)" style="rounded=0;whiteSpace=wrap;html=1;" parent="WIyWlLk6GJQsqaUBKTNV-1" vertex="1">
          <mxGeometry x="680" y="50" width="120" height="60" as="geometry" />
        </mxCell>
        <mxCell id="W5oPqiJ7xPEvRdj_KYyq-4" value="*x" style="shape=parallelogram;perimeter=parallelogramPerimeter;whiteSpace=wrap;html=1;fixedSize=1;" parent="WIyWlLk6GJQsqaUBKTNV-1" vertex="1">
          <mxGeometry x="680" y="150" width="120" height="60" as="geometry" />
        </mxCell>
        <mxCell id="W5oPqiJ7xPEvRdj_KYyq-11" style="edgeStyle=orthogonalEdgeStyle;rounded=0;orthogonalLoop=1;jettySize=auto;html=1;exitX=0.5;exitY=1;exitDx=0;exitDy=0;entryX=0.5;entryY=0;entryDx=0;entryDy=0;" parent="WIyWlLk6GJQsqaUBKTNV-1" source="W5oPqiJ7xPEvRdj_KYyq-8" target="W5oPqiJ7xPEvRdj_KYyq-10" edge="1">
          <mxGeometry relative="1" as="geometry" />
        </mxCell>
        <mxCell id="W5oPqiJ7xPEvRdj_KYyq-8" value="printA(&amp;amp;a)" style="rounded=0;whiteSpace=wrap;html=1;" parent="WIyWlLk6GJQsqaUBKTNV-1" vertex="1">
          <mxGeometry x="354" y="250" width="120" height="60" as="geometry" />
        </mxCell>
        <mxCell id="W5oPqiJ7xPEvRdj_KYyq-13" style="edgeStyle=orthogonalEdgeStyle;rounded=0;orthogonalLoop=1;jettySize=auto;html=1;exitX=0.5;exitY=1;exitDx=0;exitDy=0;entryX=0.5;entryY=0;entryDx=0;entryDy=0;" parent="WIyWlLk6GJQsqaUBKTNV-1" source="W5oPqiJ7xPEvRdj_KYyq-10" target="W5oPqiJ7xPEvRdj_KYyq-12" edge="1">
          <mxGeometry relative="1" as="geometry" />
        </mxCell>
        <mxCell id="W5oPqiJ7xPEvRdj_KYyq-10" value="a" style="shape=parallelogram;perimeter=parallelogramPerimeter;whiteSpace=wrap;html=1;fixedSize=1;" parent="WIyWlLk6GJQsqaUBKTNV-1" vertex="1">
          <mxGeometry x="354" y="350" width="120" height="60" as="geometry" />
        </mxCell>
        <mxCell id="W5oPqiJ7xPEvRdj_KYyq-15" style="edgeStyle=orthogonalEdgeStyle;rounded=0;orthogonalLoop=1;jettySize=auto;html=1;exitX=0.5;exitY=1;exitDx=0;exitDy=0;entryX=0.5;entryY=0;entryDx=0;entryDy=0;" parent="WIyWlLk6GJQsqaUBKTNV-1" source="W5oPqiJ7xPEvRdj_KYyq-12" target="W5oPqiJ7xPEvRdj_KYyq-14" edge="1">
          <mxGeometry relative="1" as="geometry" />
        </mxCell>
        <mxCell id="W5oPqiJ7xPEvRdj_KYyq-12" value="int *pointer = &amp;amp;a" style="rounded=0;whiteSpace=wrap;html=1;" parent="WIyWlLk6GJQsqaUBKTNV-1" vertex="1">
          <mxGeometry x="354" y="450" width="120" height="60" as="geometry" />
        </mxCell>
        <mxCell id="W5oPqiJ7xPEvRdj_KYyq-17" style="edgeStyle=orthogonalEdgeStyle;rounded=0;orthogonalLoop=1;jettySize=auto;html=1;exitX=1;exitY=0.5;exitDx=0;exitDy=0;entryX=0;entryY=0.5;entryDx=0;entryDy=0;" parent="WIyWlLk6GJQsqaUBKTNV-1" source="W5oPqiJ7xPEvRdj_KYyq-14" target="W5oPqiJ7xPEvRdj_KYyq-16" edge="1">
          <mxGeometry relative="1" as="geometry" />
        </mxCell>
        <mxCell id="W5oPqiJ7xPEvRdj_KYyq-14" value="*pointer" style="shape=parallelogram;perimeter=parallelogramPerimeter;whiteSpace=wrap;html=1;fixedSize=1;" parent="WIyWlLk6GJQsqaUBKTNV-1" vertex="1">
          <mxGeometry x="354" y="540" width="120" height="60" as="geometry" />
        </mxCell>
        <mxCell id="W5oPqiJ7xPEvRdj_KYyq-16" value="end" style="ellipse;whiteSpace=wrap;html=1;" parent="WIyWlLk6GJQsqaUBKTNV-1" vertex="1">
          <mxGeometry x="540" y="530" width="120" height="80" as="geometry" />
        </mxCell>
      </root>
    </mxGraphModel>
  </diagram>
  <diagram id="-gXNvjec6eM4yV3eOiSM" name="bai2">
    <mxGraphModel dx="746" dy="505" grid="1" gridSize="10" guides="1" tooltips="1" connect="1" arrows="1" fold="1" page="1" pageScale="1" pageWidth="850" pageHeight="1100" math="0" shadow="0">
      <root>
        <mxCell id="0" />
        <mxCell id="1" parent="0" />
        <mxCell id="49YdJSK1mApiEEF9rg3o-1" style="edgeStyle=orthogonalEdgeStyle;rounded=0;orthogonalLoop=1;jettySize=auto;html=1;exitX=0.5;exitY=1;exitDx=0;exitDy=0;" edge="1" parent="1" source="49YdJSK1mApiEEF9rg3o-2">
          <mxGeometry relative="1" as="geometry">
            <mxPoint x="414" y="160" as="targetPoint" />
          </mxGeometry>
        </mxCell>
        <mxCell id="49YdJSK1mApiEEF9rg3o-2" value="start" style="ellipse;whiteSpace=wrap;html=1;" vertex="1" parent="1">
          <mxGeometry x="354" y="40" width="120" height="80" as="geometry" />
        </mxCell>
        <mxCell id="49YdJSK1mApiEEF9rg3o-3" style="edgeStyle=orthogonalEdgeStyle;rounded=0;orthogonalLoop=1;jettySize=auto;html=1;exitX=0.5;exitY=1;exitDx=0;exitDy=0;entryX=0.5;entryY=0;entryDx=0;entryDy=0;" edge="1" parent="1" source="49YdJSK1mApiEEF9rg3o-4" target="49YdJSK1mApiEEF9rg3o-5">
          <mxGeometry relative="1" as="geometry" />
        </mxCell>
        <mxCell id="49YdJSK1mApiEEF9rg3o-4" value="swapAB(int *x,int *y)" style="rounded=0;whiteSpace=wrap;html=1;" vertex="1" parent="1">
          <mxGeometry x="690" y="60" width="120" height="60" as="geometry" />
        </mxCell>
        <mxCell id="49YdJSK1mApiEEF9rg3o-5" value="temp = *x&lt;br&gt;*x = *y&lt;br&gt;*y = temp" style="rounded=0;whiteSpace=wrap;html=1;" vertex="1" parent="1">
          <mxGeometry x="690" y="150" width="120" height="60" as="geometry" />
        </mxCell>
        <mxCell id="49YdJSK1mApiEEF9rg3o-6" style="edgeStyle=orthogonalEdgeStyle;rounded=0;orthogonalLoop=1;jettySize=auto;html=1;exitX=0.5;exitY=1;exitDx=0;exitDy=0;" edge="1" parent="1" source="49YdJSK1mApiEEF9rg3o-7">
          <mxGeometry relative="1" as="geometry">
            <mxPoint x="920" y="160" as="targetPoint" />
          </mxGeometry>
        </mxCell>
        <mxCell id="49YdJSK1mApiEEF9rg3o-7" value="caculateAB(int *x,int *y)" style="rounded=0;whiteSpace=wrap;html=1;" vertex="1" parent="1">
          <mxGeometry x="860" y="60" width="120" height="60" as="geometry" />
        </mxCell>
        <mxCell id="49YdJSK1mApiEEF9rg3o-8" style="edgeStyle=orthogonalEdgeStyle;rounded=0;orthogonalLoop=1;jettySize=auto;html=1;exitX=0.5;exitY=1;exitDx=0;exitDy=0;" edge="1" parent="1" source="49YdJSK1mApiEEF9rg3o-9" target="49YdJSK1mApiEEF9rg3o-10">
          <mxGeometry relative="1" as="geometry" />
        </mxCell>
        <mxCell id="49YdJSK1mApiEEF9rg3o-9" value="dif = *x - *y&lt;br&gt;sum = *x + *y" style="rounded=0;whiteSpace=wrap;html=1;" vertex="1" parent="1">
          <mxGeometry x="860" y="160" width="120" height="60" as="geometry" />
        </mxCell>
        <mxCell id="49YdJSK1mApiEEF9rg3o-10" value="dif&lt;br&gt;sum" style="shape=parallelogram;perimeter=parallelogramPerimeter;whiteSpace=wrap;html=1;fixedSize=1;" vertex="1" parent="1">
          <mxGeometry x="860" y="250" width="120" height="60" as="geometry" />
        </mxCell>
        <mxCell id="49YdJSK1mApiEEF9rg3o-11" style="edgeStyle=orthogonalEdgeStyle;rounded=0;orthogonalLoop=1;jettySize=auto;html=1;exitX=0.5;exitY=1;exitDx=0;exitDy=0;" edge="1" parent="1" source="49YdJSK1mApiEEF9rg3o-12" target="49YdJSK1mApiEEF9rg3o-14">
          <mxGeometry relative="1" as="geometry" />
        </mxCell>
        <mxCell id="49YdJSK1mApiEEF9rg3o-12" value="a = 10&lt;br&gt;b = 5" style="rounded=0;whiteSpace=wrap;html=1;" vertex="1" parent="1">
          <mxGeometry x="360" y="160" width="120" height="60" as="geometry" />
        </mxCell>
        <mxCell id="49YdJSK1mApiEEF9rg3o-13" style="edgeStyle=orthogonalEdgeStyle;rounded=0;orthogonalLoop=1;jettySize=auto;html=1;exitX=0.5;exitY=1;exitDx=0;exitDy=0;" edge="1" parent="1" source="49YdJSK1mApiEEF9rg3o-14">
          <mxGeometry relative="1" as="geometry">
            <mxPoint x="420" y="350" as="targetPoint" />
          </mxGeometry>
        </mxCell>
        <mxCell id="49YdJSK1mApiEEF9rg3o-14" value="calculateAB(&amp;amp;a,&amp;amp;b)" style="rounded=0;whiteSpace=wrap;html=1;" vertex="1" parent="1">
          <mxGeometry x="360" y="260" width="120" height="60" as="geometry" />
        </mxCell>
        <mxCell id="49YdJSK1mApiEEF9rg3o-15" style="edgeStyle=orthogonalEdgeStyle;rounded=0;orthogonalLoop=1;jettySize=auto;html=1;exitX=0.5;exitY=1;exitDx=0;exitDy=0;entryX=0.5;entryY=0;entryDx=0;entryDy=0;" edge="1" parent="1" source="49YdJSK1mApiEEF9rg3o-16" target="49YdJSK1mApiEEF9rg3o-18">
          <mxGeometry relative="1" as="geometry" />
        </mxCell>
        <mxCell id="49YdJSK1mApiEEF9rg3o-16" value="swapAB(&amp;amp;a,&amp;amp;b)" style="rounded=0;whiteSpace=wrap;html=1;" vertex="1" parent="1">
          <mxGeometry x="360" y="350" width="120" height="60" as="geometry" />
        </mxCell>
        <mxCell id="49YdJSK1mApiEEF9rg3o-17" style="edgeStyle=orthogonalEdgeStyle;rounded=0;orthogonalLoop=1;jettySize=auto;html=1;exitX=0.5;exitY=1;exitDx=0;exitDy=0;" edge="1" parent="1" source="49YdJSK1mApiEEF9rg3o-18" target="49YdJSK1mApiEEF9rg3o-19">
          <mxGeometry relative="1" as="geometry" />
        </mxCell>
        <mxCell id="49YdJSK1mApiEEF9rg3o-18" value="calculateAB(&amp;amp;a,&amp;amp;b)" style="rounded=0;whiteSpace=wrap;html=1;" vertex="1" parent="1">
          <mxGeometry x="360" y="440" width="120" height="60" as="geometry" />
        </mxCell>
        <mxCell id="49YdJSK1mApiEEF9rg3o-19" value="end" style="ellipse;whiteSpace=wrap;html=1;" vertex="1" parent="1">
          <mxGeometry x="360" y="530" width="120" height="80" as="geometry" />
        </mxCell>
      </root>
    </mxGraphModel>
  </diagram>
  <diagram id="4nabszmOOiRSkn4Z5RLW" name="bai3">
    <mxGraphModel dx="746" dy="505" grid="1" gridSize="10" guides="1" tooltips="1" connect="1" arrows="1" fold="1" page="1" pageScale="1" pageWidth="850" pageHeight="1100" math="0" shadow="0">
      <root>
        <mxCell id="0" />
        <mxCell id="1" parent="0" />
        <mxCell id="BT01V8BeP7aW_ME6IpzW-1" style="edgeStyle=orthogonalEdgeStyle;rounded=0;orthogonalLoop=1;jettySize=auto;html=1;exitX=0.5;exitY=1;exitDx=0;exitDy=0;entryX=0.5;entryY=0;entryDx=0;entryDy=0;" edge="1" parent="1" source="BT01V8BeP7aW_ME6IpzW-2" target="BT01V8BeP7aW_ME6IpzW-11">
          <mxGeometry relative="1" as="geometry" />
        </mxCell>
        <mxCell id="BT01V8BeP7aW_ME6IpzW-2" value="start" style="ellipse;whiteSpace=wrap;html=1;" vertex="1" parent="1">
          <mxGeometry x="354" y="30" width="120" height="80" as="geometry" />
        </mxCell>
        <mxCell id="BT01V8BeP7aW_ME6IpzW-3" style="edgeStyle=orthogonalEdgeStyle;rounded=0;orthogonalLoop=1;jettySize=auto;html=1;exitX=0.5;exitY=1;exitDx=0;exitDy=0;" edge="1" parent="1" source="BT01V8BeP7aW_ME6IpzW-4" target="BT01V8BeP7aW_ME6IpzW-6">
          <mxGeometry relative="1" as="geometry" />
        </mxCell>
        <mxCell id="BT01V8BeP7aW_ME6IpzW-4" value="countLenStr(char *str)" style="rounded=0;whiteSpace=wrap;html=1;" vertex="1" parent="1">
          <mxGeometry x="720" y="50" width="120" height="60" as="geometry" />
        </mxCell>
        <mxCell id="BT01V8BeP7aW_ME6IpzW-5" style="edgeStyle=orthogonalEdgeStyle;rounded=0;orthogonalLoop=1;jettySize=auto;html=1;exitX=0.5;exitY=1;exitDx=0;exitDy=0;entryX=0.5;entryY=0;entryDx=0;entryDy=0;" edge="1" parent="1" source="BT01V8BeP7aW_ME6IpzW-6">
          <mxGeometry relative="1" as="geometry">
            <mxPoint x="780" y="240" as="targetPoint" />
          </mxGeometry>
        </mxCell>
        <mxCell id="BT01V8BeP7aW_ME6IpzW-6" value="count = 0&lt;br&gt;" style="rounded=0;whiteSpace=wrap;html=1;" vertex="1" parent="1">
          <mxGeometry x="720" y="140" width="120" height="60" as="geometry" />
        </mxCell>
        <mxCell id="BT01V8BeP7aW_ME6IpzW-7" style="edgeStyle=orthogonalEdgeStyle;rounded=0;orthogonalLoop=1;jettySize=auto;html=1;exitX=0.5;exitY=1;exitDx=0;exitDy=0;entryX=0.5;entryY=0;entryDx=0;entryDy=0;" edge="1" parent="1" source="BT01V8BeP7aW_ME6IpzW-9" target="BT01V8BeP7aW_ME6IpzW-40">
          <mxGeometry relative="1" as="geometry" />
        </mxCell>
        <mxCell id="BT01V8BeP7aW_ME6IpzW-8" style="edgeStyle=orthogonalEdgeStyle;rounded=0;orthogonalLoop=1;jettySize=auto;html=1;exitX=1;exitY=0.5;exitDx=0;exitDy=0;" edge="1" parent="1" source="BT01V8BeP7aW_ME6IpzW-9">
          <mxGeometry relative="1" as="geometry">
            <mxPoint x="990" y="280" as="targetPoint" />
          </mxGeometry>
        </mxCell>
        <mxCell id="BT01V8BeP7aW_ME6IpzW-9" value="*str != &#39;\0&#39;?" style="rhombus;whiteSpace=wrap;html=1;" vertex="1" parent="1">
          <mxGeometry x="740" y="240" width="80" height="80" as="geometry" />
        </mxCell>
        <mxCell id="BT01V8BeP7aW_ME6IpzW-10" style="edgeStyle=orthogonalEdgeStyle;rounded=0;orthogonalLoop=1;jettySize=auto;html=1;exitX=0.5;exitY=1;exitDx=0;exitDy=0;entryX=0.5;entryY=0;entryDx=0;entryDy=0;" edge="1" parent="1" source="BT01V8BeP7aW_ME6IpzW-11" target="BT01V8BeP7aW_ME6IpzW-13">
          <mxGeometry relative="1" as="geometry" />
        </mxCell>
        <mxCell id="BT01V8BeP7aW_ME6IpzW-11" value="str1[100]&lt;br&gt;str2[100]" style="rounded=0;whiteSpace=wrap;html=1;" vertex="1" parent="1">
          <mxGeometry x="354" y="140" width="120" height="60" as="geometry" />
        </mxCell>
        <mxCell id="BT01V8BeP7aW_ME6IpzW-12" style="edgeStyle=orthogonalEdgeStyle;rounded=0;orthogonalLoop=1;jettySize=auto;html=1;exitX=0.5;exitY=1;exitDx=0;exitDy=0;entryX=0.5;entryY=0;entryDx=0;entryDy=0;" edge="1" parent="1" source="BT01V8BeP7aW_ME6IpzW-13" target="BT01V8BeP7aW_ME6IpzW-14">
          <mxGeometry relative="1" as="geometry" />
        </mxCell>
        <mxCell id="BT01V8BeP7aW_ME6IpzW-13" value="str1,str2" style="shape=parallelogram;perimeter=parallelogramPerimeter;whiteSpace=wrap;html=1;fixedSize=1;" vertex="1" parent="1">
          <mxGeometry x="354" y="250" width="120" height="60" as="geometry" />
        </mxCell>
        <mxCell id="BT01V8BeP7aW_ME6IpzW-14" value="len = countLenStr(&amp;amp;str1)" style="rounded=0;whiteSpace=wrap;html=1;" vertex="1" parent="1">
          <mxGeometry x="354" y="350" width="120" height="60" as="geometry" />
        </mxCell>
        <mxCell id="BT01V8BeP7aW_ME6IpzW-15" style="edgeStyle=orthogonalEdgeStyle;rounded=0;orthogonalLoop=1;jettySize=auto;html=1;exitX=0.5;exitY=1;exitDx=0;exitDy=0;entryX=0.647;entryY=-0.003;entryDx=0;entryDy=0;entryPerimeter=0;" edge="1" parent="1" source="BT01V8BeP7aW_ME6IpzW-14">
          <mxGeometry relative="1" as="geometry">
            <mxPoint x="417.6400000000001" y="439.81999999999994" as="targetPoint" />
          </mxGeometry>
        </mxCell>
        <mxCell id="BT01V8BeP7aW_ME6IpzW-16" style="edgeStyle=orthogonalEdgeStyle;rounded=0;orthogonalLoop=1;jettySize=auto;html=1;exitX=0.5;exitY=1;exitDx=0;exitDy=0;entryX=0.5;entryY=0;entryDx=0;entryDy=0;" edge="1" parent="1" source="BT01V8BeP7aW_ME6IpzW-17" target="BT01V8BeP7aW_ME6IpzW-19">
          <mxGeometry relative="1" as="geometry" />
        </mxCell>
        <mxCell id="BT01V8BeP7aW_ME6IpzW-17" value="len2 = countLenStr(&amp;amp;str2)" style="rounded=0;whiteSpace=wrap;html=1;" vertex="1" parent="1">
          <mxGeometry x="354" y="440" width="120" height="60" as="geometry" />
        </mxCell>
        <mxCell id="BT01V8BeP7aW_ME6IpzW-18" style="edgeStyle=orthogonalEdgeStyle;rounded=0;orthogonalLoop=1;jettySize=auto;html=1;exitX=0.5;exitY=1;exitDx=0;exitDy=0;entryX=0.5;entryY=0;entryDx=0;entryDy=0;" edge="1" parent="1" source="BT01V8BeP7aW_ME6IpzW-19" target="BT01V8BeP7aW_ME6IpzW-22">
          <mxGeometry relative="1" as="geometry" />
        </mxCell>
        <mxCell id="BT01V8BeP7aW_ME6IpzW-19" value="len, len2" style="shape=parallelogram;perimeter=parallelogramPerimeter;whiteSpace=wrap;html=1;fixedSize=1;" vertex="1" parent="1">
          <mxGeometry x="354" y="540" width="120" height="60" as="geometry" />
        </mxCell>
        <mxCell id="BT01V8BeP7aW_ME6IpzW-20" style="edgeStyle=orthogonalEdgeStyle;rounded=0;orthogonalLoop=1;jettySize=auto;html=1;exitX=0.5;exitY=1;exitDx=0;exitDy=0;entryX=0.5;entryY=0;entryDx=0;entryDy=0;" edge="1" parent="1" source="BT01V8BeP7aW_ME6IpzW-22" target="BT01V8BeP7aW_ME6IpzW-23">
          <mxGeometry relative="1" as="geometry" />
        </mxCell>
        <mxCell id="BT01V8BeP7aW_ME6IpzW-21" style="edgeStyle=orthogonalEdgeStyle;rounded=0;orthogonalLoop=1;jettySize=auto;html=1;exitX=1;exitY=0.5;exitDx=0;exitDy=0;" edge="1" parent="1" source="BT01V8BeP7aW_ME6IpzW-22">
          <mxGeometry relative="1" as="geometry">
            <mxPoint x="600" y="680" as="targetPoint" />
          </mxGeometry>
        </mxCell>
        <mxCell id="BT01V8BeP7aW_ME6IpzW-22" value="len == len2?" style="rhombus;whiteSpace=wrap;html=1;" vertex="1" parent="1">
          <mxGeometry x="374" y="640" width="80" height="80" as="geometry" />
        </mxCell>
        <mxCell id="BT01V8BeP7aW_ME6IpzW-23" value="bang nhau" style="shape=parallelogram;perimeter=parallelogramPerimeter;whiteSpace=wrap;html=1;fixedSize=1;" vertex="1" parent="1">
          <mxGeometry x="354" y="750" width="120" height="60" as="geometry" />
        </mxCell>
        <mxCell id="BT01V8BeP7aW_ME6IpzW-24" style="edgeStyle=orthogonalEdgeStyle;rounded=0;orthogonalLoop=1;jettySize=auto;html=1;exitX=0.5;exitY=1;exitDx=0;exitDy=0;entryX=0.5;entryY=0;entryDx=0;entryDy=0;" edge="1" parent="1" source="BT01V8BeP7aW_ME6IpzW-26" target="BT01V8BeP7aW_ME6IpzW-30">
          <mxGeometry relative="1" as="geometry" />
        </mxCell>
        <mxCell id="BT01V8BeP7aW_ME6IpzW-25" style="edgeStyle=orthogonalEdgeStyle;rounded=0;orthogonalLoop=1;jettySize=auto;html=1;exitX=1;exitY=0.5;exitDx=0;exitDy=0;entryX=0;entryY=0.5;entryDx=0;entryDy=0;" edge="1" parent="1" source="BT01V8BeP7aW_ME6IpzW-26" target="BT01V8BeP7aW_ME6IpzW-29">
          <mxGeometry relative="1" as="geometry" />
        </mxCell>
        <mxCell id="BT01V8BeP7aW_ME6IpzW-26" value="len&amp;lt;len2?" style="rhombus;whiteSpace=wrap;html=1;" vertex="1" parent="1">
          <mxGeometry x="600" y="640" width="80" height="80" as="geometry" />
        </mxCell>
        <mxCell id="BT01V8BeP7aW_ME6IpzW-27" style="edgeStyle=orthogonalEdgeStyle;rounded=0;orthogonalLoop=1;jettySize=auto;html=1;exitX=0.5;exitY=1;exitDx=0;exitDy=0;entryX=0.5;entryY=0;entryDx=0;entryDy=0;" edge="1" parent="1" source="BT01V8BeP7aW_ME6IpzW-29" target="BT01V8BeP7aW_ME6IpzW-31">
          <mxGeometry relative="1" as="geometry" />
        </mxCell>
        <mxCell id="BT01V8BeP7aW_ME6IpzW-28" style="edgeStyle=orthogonalEdgeStyle;rounded=0;orthogonalLoop=1;jettySize=auto;html=1;exitX=1;exitY=0.5;exitDx=0;exitDy=0;" edge="1" parent="1" source="BT01V8BeP7aW_ME6IpzW-29">
          <mxGeometry relative="1" as="geometry">
            <mxPoint x="1040" y="680" as="targetPoint" />
          </mxGeometry>
        </mxCell>
        <mxCell id="BT01V8BeP7aW_ME6IpzW-29" value="len2&amp;lt;len" style="rhombus;whiteSpace=wrap;html=1;" vertex="1" parent="1">
          <mxGeometry x="810" y="640" width="80" height="80" as="geometry" />
        </mxCell>
        <mxCell id="BT01V8BeP7aW_ME6IpzW-30" value="len2 dai hon len" style="shape=parallelogram;perimeter=parallelogramPerimeter;whiteSpace=wrap;html=1;fixedSize=1;" vertex="1" parent="1">
          <mxGeometry x="580" y="750" width="120" height="60" as="geometry" />
        </mxCell>
        <mxCell id="BT01V8BeP7aW_ME6IpzW-31" value="len2 ngan hon len" style="shape=parallelogram;perimeter=parallelogramPerimeter;whiteSpace=wrap;html=1;fixedSize=1;" vertex="1" parent="1">
          <mxGeometry x="790" y="760" width="120" height="60" as="geometry" />
        </mxCell>
        <mxCell id="BT01V8BeP7aW_ME6IpzW-32" value="true" style="text;html=1;align=center;verticalAlign=middle;resizable=0;points=[];autosize=1;strokeColor=none;fillColor=none;" vertex="1" parent="1">
          <mxGeometry x="410" y="718" width="40" height="30" as="geometry" />
        </mxCell>
        <mxCell id="BT01V8BeP7aW_ME6IpzW-33" value="true" style="text;html=1;align=center;verticalAlign=middle;resizable=0;points=[];autosize=1;strokeColor=none;fillColor=none;" vertex="1" parent="1">
          <mxGeometry x="640" y="718" width="40" height="30" as="geometry" />
        </mxCell>
        <mxCell id="BT01V8BeP7aW_ME6IpzW-34" value="true" style="text;html=1;align=center;verticalAlign=middle;resizable=0;points=[];autosize=1;strokeColor=none;fillColor=none;" vertex="1" parent="1">
          <mxGeometry x="840" y="728" width="40" height="30" as="geometry" />
        </mxCell>
        <mxCell id="BT01V8BeP7aW_ME6IpzW-35" value="false" style="text;html=1;align=center;verticalAlign=middle;resizable=0;points=[];autosize=1;strokeColor=none;fillColor=none;" vertex="1" parent="1">
          <mxGeometry x="475" y="648" width="50" height="30" as="geometry" />
        </mxCell>
        <mxCell id="BT01V8BeP7aW_ME6IpzW-36" value="false" style="text;html=1;align=center;verticalAlign=middle;resizable=0;points=[];autosize=1;strokeColor=none;fillColor=none;" vertex="1" parent="1">
          <mxGeometry x="705" y="648" width="50" height="30" as="geometry" />
        </mxCell>
        <mxCell id="BT01V8BeP7aW_ME6IpzW-37" value="end" style="ellipse;whiteSpace=wrap;html=1;" vertex="1" parent="1">
          <mxGeometry x="1040" y="640" width="120" height="80" as="geometry" />
        </mxCell>
        <mxCell id="BT01V8BeP7aW_ME6IpzW-38" value="false" style="text;html=1;align=center;verticalAlign=middle;resizable=0;points=[];autosize=1;strokeColor=none;fillColor=none;" vertex="1" parent="1">
          <mxGeometry x="915" y="648" width="50" height="30" as="geometry" />
        </mxCell>
        <mxCell id="BT01V8BeP7aW_ME6IpzW-39" style="edgeStyle=orthogonalEdgeStyle;rounded=0;orthogonalLoop=1;jettySize=auto;html=1;exitX=0;exitY=0.5;exitDx=0;exitDy=0;entryX=0;entryY=0.5;entryDx=0;entryDy=0;" edge="1" parent="1" source="BT01V8BeP7aW_ME6IpzW-40" target="BT01V8BeP7aW_ME6IpzW-9">
          <mxGeometry relative="1" as="geometry" />
        </mxCell>
        <mxCell id="BT01V8BeP7aW_ME6IpzW-40" value="count++&lt;br&gt;*str++" style="rounded=0;whiteSpace=wrap;html=1;" vertex="1" parent="1">
          <mxGeometry x="720" y="350" width="120" height="60" as="geometry" />
        </mxCell>
        <mxCell id="BT01V8BeP7aW_ME6IpzW-41" value="true" style="text;html=1;align=center;verticalAlign=middle;resizable=0;points=[];autosize=1;strokeColor=none;fillColor=none;" vertex="1" parent="1">
          <mxGeometry x="780" y="318" width="40" height="30" as="geometry" />
        </mxCell>
        <mxCell id="BT01V8BeP7aW_ME6IpzW-42" value="false" style="text;html=1;align=center;verticalAlign=middle;resizable=0;points=[];autosize=1;strokeColor=none;fillColor=none;" vertex="1" parent="1">
          <mxGeometry x="855" y="248" width="50" height="30" as="geometry" />
        </mxCell>
        <mxCell id="BT01V8BeP7aW_ME6IpzW-43" value="return count" style="rounded=0;whiteSpace=wrap;html=1;" vertex="1" parent="1">
          <mxGeometry x="990" y="250" width="120" height="60" as="geometry" />
        </mxCell>
      </root>
    </mxGraphModel>
  </diagram>
  <diagram id="fgbmDI10WRpj_LZPwNUt" name="bai4">
    <mxGraphModel dx="4146" dy="505" grid="1" gridSize="10" guides="1" tooltips="1" connect="1" arrows="1" fold="1" page="1" pageScale="1" pageWidth="850" pageHeight="1100" math="0" shadow="0">
      <root>
        <mxCell id="0" />
        <mxCell id="1" parent="0" />
        <mxCell id="tZxPBEaTgiXIeaM5_bRS-1" style="edgeStyle=orthogonalEdgeStyle;rounded=0;orthogonalLoop=1;jettySize=auto;html=1;exitX=0.5;exitY=1;exitDx=0;exitDy=0;" edge="1" parent="1" source="tZxPBEaTgiXIeaM5_bRS-2" target="tZxPBEaTgiXIeaM5_bRS-32">
          <mxGeometry relative="1" as="geometry" />
        </mxCell>
        <mxCell id="tZxPBEaTgiXIeaM5_bRS-2" value="start" style="ellipse;whiteSpace=wrap;html=1;" vertex="1" parent="1">
          <mxGeometry x="354" y="30" width="120" height="80" as="geometry" />
        </mxCell>
        <mxCell id="tZxPBEaTgiXIeaM5_bRS-3" style="edgeStyle=orthogonalEdgeStyle;rounded=0;orthogonalLoop=1;jettySize=auto;html=1;exitX=0.5;exitY=1;exitDx=0;exitDy=0;entryX=0.5;entryY=0;entryDx=0;entryDy=0;" edge="1" parent="1" source="tZxPBEaTgiXIeaM5_bRS-4" target="tZxPBEaTgiXIeaM5_bRS-6">
          <mxGeometry relative="1" as="geometry" />
        </mxCell>
        <mxCell id="tZxPBEaTgiXIeaM5_bRS-4" value="reverseArr(int arr[], int lenghth)" style="rounded=0;whiteSpace=wrap;html=1;" vertex="1" parent="1">
          <mxGeometry x="810" y="40" width="120" height="60" as="geometry" />
        </mxCell>
        <mxCell id="tZxPBEaTgiXIeaM5_bRS-5" style="edgeStyle=orthogonalEdgeStyle;rounded=0;orthogonalLoop=1;jettySize=auto;html=1;exitX=0.5;exitY=1;exitDx=0;exitDy=0;entryX=0.5;entryY=0;entryDx=0;entryDy=0;" edge="1" parent="1" source="tZxPBEaTgiXIeaM5_bRS-6" target="tZxPBEaTgiXIeaM5_bRS-8">
          <mxGeometry relative="1" as="geometry" />
        </mxCell>
        <mxCell id="tZxPBEaTgiXIeaM5_bRS-6" value="size , swap&lt;br&gt;i=0" style="rounded=0;whiteSpace=wrap;html=1;" vertex="1" parent="1">
          <mxGeometry x="810" y="140" width="120" height="60" as="geometry" />
        </mxCell>
        <mxCell id="tZxPBEaTgiXIeaM5_bRS-7" style="edgeStyle=orthogonalEdgeStyle;rounded=0;orthogonalLoop=1;jettySize=auto;html=1;exitX=0.5;exitY=1;exitDx=0;exitDy=0;entryX=0.5;entryY=0;entryDx=0;entryDy=0;" edge="1" parent="1" source="tZxPBEaTgiXIeaM5_bRS-8" target="tZxPBEaTgiXIeaM5_bRS-10">
          <mxGeometry relative="1" as="geometry" />
        </mxCell>
        <mxCell id="tZxPBEaTgiXIeaM5_bRS-8" value="i&amp;lt;lenghth/2?" style="rhombus;whiteSpace=wrap;html=1;" vertex="1" parent="1">
          <mxGeometry x="830" y="240" width="80" height="80" as="geometry" />
        </mxCell>
        <mxCell id="tZxPBEaTgiXIeaM5_bRS-9" style="edgeStyle=orthogonalEdgeStyle;rounded=0;orthogonalLoop=1;jettySize=auto;html=1;exitX=0.5;exitY=1;exitDx=0;exitDy=0;" edge="1" parent="1" source="tZxPBEaTgiXIeaM5_bRS-10" target="tZxPBEaTgiXIeaM5_bRS-12">
          <mxGeometry relative="1" as="geometry" />
        </mxCell>
        <mxCell id="tZxPBEaTgiXIeaM5_bRS-10" value="size = lenghth - i - 1&lt;br&gt;swap = arr[i]&lt;br&gt;arr[i] = arr[size]&lt;br&gt;arr[size] = swap" style="rounded=0;whiteSpace=wrap;html=1;" vertex="1" parent="1">
          <mxGeometry x="810" y="360" width="120" height="60" as="geometry" />
        </mxCell>
        <mxCell id="tZxPBEaTgiXIeaM5_bRS-11" style="edgeStyle=orthogonalEdgeStyle;rounded=0;orthogonalLoop=1;jettySize=auto;html=1;exitX=0;exitY=0.5;exitDx=0;exitDy=0;entryX=0;entryY=0.5;entryDx=0;entryDy=0;" edge="1" parent="1" source="tZxPBEaTgiXIeaM5_bRS-12" target="tZxPBEaTgiXIeaM5_bRS-8">
          <mxGeometry relative="1" as="geometry" />
        </mxCell>
        <mxCell id="tZxPBEaTgiXIeaM5_bRS-12" value="i++" style="rounded=0;whiteSpace=wrap;html=1;" vertex="1" parent="1">
          <mxGeometry x="810" y="460" width="120" height="60" as="geometry" />
        </mxCell>
        <mxCell id="tZxPBEaTgiXIeaM5_bRS-13" style="edgeStyle=orthogonalEdgeStyle;rounded=0;orthogonalLoop=1;jettySize=auto;html=1;exitX=0.5;exitY=1;exitDx=0;exitDy=0;" edge="1" parent="1" source="tZxPBEaTgiXIeaM5_bRS-14">
          <mxGeometry relative="1" as="geometry">
            <mxPoint x="1190" y="140" as="targetPoint" />
          </mxGeometry>
        </mxCell>
        <mxCell id="tZxPBEaTgiXIeaM5_bRS-14" value="searchValue&amp;nbsp; (int arr[], int lenghth,int findValue)" style="rounded=0;whiteSpace=wrap;html=1;" vertex="1" parent="1">
          <mxGeometry x="1130" y="40" width="120" height="60" as="geometry" />
        </mxCell>
        <mxCell id="tZxPBEaTgiXIeaM5_bRS-15" style="edgeStyle=orthogonalEdgeStyle;rounded=0;orthogonalLoop=1;jettySize=auto;html=1;exitX=0.5;exitY=1;exitDx=0;exitDy=0;entryX=0.5;entryY=0;entryDx=0;entryDy=0;" edge="1" parent="1" source="tZxPBEaTgiXIeaM5_bRS-16" target="tZxPBEaTgiXIeaM5_bRS-19">
          <mxGeometry relative="1" as="geometry" />
        </mxCell>
        <mxCell id="tZxPBEaTgiXIeaM5_bRS-16" value="i = 0" style="rounded=0;whiteSpace=wrap;html=1;" vertex="1" parent="1">
          <mxGeometry x="1140" y="140" width="120" height="60" as="geometry" />
        </mxCell>
        <mxCell id="tZxPBEaTgiXIeaM5_bRS-17" style="edgeStyle=orthogonalEdgeStyle;rounded=0;orthogonalLoop=1;jettySize=auto;html=1;exitX=0.5;exitY=1;exitDx=0;exitDy=0;entryX=0.5;entryY=0;entryDx=0;entryDy=0;" edge="1" parent="1" source="tZxPBEaTgiXIeaM5_bRS-19" target="tZxPBEaTgiXIeaM5_bRS-22">
          <mxGeometry relative="1" as="geometry" />
        </mxCell>
        <mxCell id="tZxPBEaTgiXIeaM5_bRS-18" style="edgeStyle=orthogonalEdgeStyle;rounded=0;orthogonalLoop=1;jettySize=auto;html=1;exitX=1;exitY=0.5;exitDx=0;exitDy=0;" edge="1" parent="1" source="tZxPBEaTgiXIeaM5_bRS-19">
          <mxGeometry relative="1" as="geometry">
            <mxPoint x="1370" y="280" as="targetPoint" />
          </mxGeometry>
        </mxCell>
        <mxCell id="tZxPBEaTgiXIeaM5_bRS-19" value="i&amp;lt;lenghth?" style="rhombus;whiteSpace=wrap;html=1;" vertex="1" parent="1">
          <mxGeometry x="1160" y="240" width="80" height="80" as="geometry" />
        </mxCell>
        <mxCell id="tZxPBEaTgiXIeaM5_bRS-20" style="edgeStyle=orthogonalEdgeStyle;rounded=0;orthogonalLoop=1;jettySize=auto;html=1;exitX=0.5;exitY=1;exitDx=0;exitDy=0;" edge="1" parent="1" source="tZxPBEaTgiXIeaM5_bRS-22">
          <mxGeometry relative="1" as="geometry">
            <mxPoint x="1201" y="460" as="targetPoint" />
          </mxGeometry>
        </mxCell>
        <mxCell id="tZxPBEaTgiXIeaM5_bRS-21" style="edgeStyle=orthogonalEdgeStyle;rounded=0;orthogonalLoop=1;jettySize=auto;html=1;exitX=0;exitY=0.5;exitDx=0;exitDy=0;" edge="1" parent="1" source="tZxPBEaTgiXIeaM5_bRS-22">
          <mxGeometry relative="1" as="geometry">
            <mxPoint x="1110" y="390" as="targetPoint" />
          </mxGeometry>
        </mxCell>
        <mxCell id="tZxPBEaTgiXIeaM5_bRS-22" value="arr[i] == findValue?" style="rhombus;whiteSpace=wrap;html=1;" vertex="1" parent="1">
          <mxGeometry x="1161" y="350" width="80" height="80" as="geometry" />
        </mxCell>
        <mxCell id="tZxPBEaTgiXIeaM5_bRS-23" style="edgeStyle=orthogonalEdgeStyle;rounded=0;orthogonalLoop=1;jettySize=auto;html=1;exitX=1;exitY=0.5;exitDx=0;exitDy=0;" edge="1" parent="1" source="tZxPBEaTgiXIeaM5_bRS-24">
          <mxGeometry relative="1" as="geometry">
            <mxPoint x="1320" y="280" as="targetPoint" />
          </mxGeometry>
        </mxCell>
        <mxCell id="tZxPBEaTgiXIeaM5_bRS-24" value="return i" style="rounded=0;whiteSpace=wrap;html=1;" vertex="1" parent="1">
          <mxGeometry x="1150" y="460" width="120" height="60" as="geometry" />
        </mxCell>
        <mxCell id="tZxPBEaTgiXIeaM5_bRS-25" value="false" style="text;html=1;align=center;verticalAlign=middle;resizable=0;points=[];autosize=1;strokeColor=none;fillColor=none;" vertex="1" parent="1">
          <mxGeometry x="1120" y="358" width="50" height="30" as="geometry" />
        </mxCell>
        <mxCell id="tZxPBEaTgiXIeaM5_bRS-26" style="edgeStyle=orthogonalEdgeStyle;rounded=0;orthogonalLoop=1;jettySize=auto;html=1;exitX=0.5;exitY=0;exitDx=0;exitDy=0;entryX=0;entryY=0.5;entryDx=0;entryDy=0;" edge="1" parent="1" source="tZxPBEaTgiXIeaM5_bRS-27" target="tZxPBEaTgiXIeaM5_bRS-19">
          <mxGeometry relative="1" as="geometry" />
        </mxCell>
        <mxCell id="tZxPBEaTgiXIeaM5_bRS-27" value="i++" style="rounded=0;whiteSpace=wrap;html=1;" vertex="1" parent="1">
          <mxGeometry x="990" y="358" width="120" height="60" as="geometry" />
        </mxCell>
        <mxCell id="tZxPBEaTgiXIeaM5_bRS-28" value="false" style="text;html=1;align=center;verticalAlign=middle;resizable=0;points=[];autosize=1;strokeColor=none;fillColor=none;" vertex="1" parent="1">
          <mxGeometry x="1255" y="248" width="50" height="30" as="geometry" />
        </mxCell>
        <mxCell id="tZxPBEaTgiXIeaM5_bRS-29" value="true" style="text;html=1;align=center;verticalAlign=middle;resizable=0;points=[];autosize=1;strokeColor=none;fillColor=none;" vertex="1" parent="1">
          <mxGeometry x="1190" y="318" width="40" height="30" as="geometry" />
        </mxCell>
        <mxCell id="tZxPBEaTgiXIeaM5_bRS-30" value="true" style="text;html=1;align=center;verticalAlign=middle;resizable=0;points=[];autosize=1;strokeColor=none;fillColor=none;" vertex="1" parent="1">
          <mxGeometry x="1200" y="428" width="40" height="30" as="geometry" />
        </mxCell>
        <mxCell id="tZxPBEaTgiXIeaM5_bRS-31" style="edgeStyle=orthogonalEdgeStyle;rounded=0;orthogonalLoop=1;jettySize=auto;html=1;exitX=0.5;exitY=1;exitDx=0;exitDy=0;entryX=0.5;entryY=0;entryDx=0;entryDy=0;" edge="1" parent="1" source="tZxPBEaTgiXIeaM5_bRS-32" target="tZxPBEaTgiXIeaM5_bRS-34">
          <mxGeometry relative="1" as="geometry" />
        </mxCell>
        <mxCell id="tZxPBEaTgiXIeaM5_bRS-32" value="findValue, swap,&lt;br&gt;arr[100]&lt;br&gt;currentIndex = 0&lt;br&gt;currentIndex1 = 0&lt;br&gt;arr1[100]&lt;br&gt;arr2[100]&lt;br&gt;n" style="rounded=0;whiteSpace=wrap;html=1;" vertex="1" parent="1">
          <mxGeometry x="354" y="150" width="120" height="100" as="geometry" />
        </mxCell>
        <mxCell id="tZxPBEaTgiXIeaM5_bRS-33" style="edgeStyle=orthogonalEdgeStyle;rounded=0;orthogonalLoop=1;jettySize=auto;html=1;exitX=0.5;exitY=1;exitDx=0;exitDy=0;entryX=0.5;entryY=0;entryDx=0;entryDy=0;" edge="1" parent="1" source="tZxPBEaTgiXIeaM5_bRS-34" target="tZxPBEaTgiXIeaM5_bRS-36">
          <mxGeometry relative="1" as="geometry" />
        </mxCell>
        <mxCell id="tZxPBEaTgiXIeaM5_bRS-34" value="do" style="rounded=0;whiteSpace=wrap;html=1;" vertex="1" parent="1">
          <mxGeometry x="354" y="288" width="120" height="60" as="geometry" />
        </mxCell>
        <mxCell id="tZxPBEaTgiXIeaM5_bRS-35" style="edgeStyle=orthogonalEdgeStyle;rounded=0;orthogonalLoop=1;jettySize=auto;html=1;exitX=0.5;exitY=1;exitDx=0;exitDy=0;entryX=0.5;entryY=0;entryDx=0;entryDy=0;" edge="1" parent="1" source="tZxPBEaTgiXIeaM5_bRS-36">
          <mxGeometry relative="1" as="geometry">
            <mxPoint x="414" y="500" as="targetPoint" />
          </mxGeometry>
        </mxCell>
        <mxCell id="tZxPBEaTgiXIeaM5_bRS-36" value="menu" style="shape=parallelogram;perimeter=parallelogramPerimeter;whiteSpace=wrap;html=1;fixedSize=1;" vertex="1" parent="1">
          <mxGeometry x="354" y="398" width="120" height="60" as="geometry" />
        </mxCell>
        <mxCell id="tZxPBEaTgiXIeaM5_bRS-37" style="edgeStyle=orthogonalEdgeStyle;rounded=0;orthogonalLoop=1;jettySize=auto;html=1;exitX=0;exitY=0.5;exitDx=0;exitDy=0;" edge="1" parent="1" source="tZxPBEaTgiXIeaM5_bRS-38" target="tZxPBEaTgiXIeaM5_bRS-41">
          <mxGeometry relative="1" as="geometry" />
        </mxCell>
        <mxCell id="tZxPBEaTgiXIeaM5_bRS-38" value="choice" style="shape=parallelogram;perimeter=parallelogramPerimeter;whiteSpace=wrap;html=1;fixedSize=1;" vertex="1" parent="1">
          <mxGeometry x="354" y="500" width="120" height="60" as="geometry" />
        </mxCell>
        <mxCell id="tZxPBEaTgiXIeaM5_bRS-39" value="true" style="edgeStyle=orthogonalEdgeStyle;rounded=0;orthogonalLoop=1;jettySize=auto;html=1;exitX=0.5;exitY=1;exitDx=0;exitDy=0;entryX=0.5;entryY=0;entryDx=0;entryDy=0;" edge="1" parent="1" source="tZxPBEaTgiXIeaM5_bRS-41" target="tZxPBEaTgiXIeaM5_bRS-43">
          <mxGeometry relative="1" as="geometry" />
        </mxCell>
        <mxCell id="tZxPBEaTgiXIeaM5_bRS-40" value="false" style="edgeStyle=orthogonalEdgeStyle;rounded=0;orthogonalLoop=1;jettySize=auto;html=1;exitX=0;exitY=0.5;exitDx=0;exitDy=0;" edge="1" parent="1" source="tZxPBEaTgiXIeaM5_bRS-41">
          <mxGeometry relative="1" as="geometry">
            <mxPoint x="-100" y="530" as="targetPoint" />
          </mxGeometry>
        </mxCell>
        <mxCell id="tZxPBEaTgiXIeaM5_bRS-41" value="choice == 1?" style="rhombus;whiteSpace=wrap;html=1;" vertex="1" parent="1">
          <mxGeometry x="170" y="490" width="80" height="80" as="geometry" />
        </mxCell>
        <mxCell id="tZxPBEaTgiXIeaM5_bRS-42" style="edgeStyle=orthogonalEdgeStyle;rounded=0;orthogonalLoop=1;jettySize=auto;html=1;exitX=0.5;exitY=1;exitDx=0;exitDy=0;entryX=0.5;entryY=0;entryDx=0;entryDy=0;" edge="1" parent="1" source="tZxPBEaTgiXIeaM5_bRS-43" target="tZxPBEaTgiXIeaM5_bRS-45">
          <mxGeometry relative="1" as="geometry" />
        </mxCell>
        <mxCell id="tZxPBEaTgiXIeaM5_bRS-43" value="n" style="shape=parallelogram;perimeter=parallelogramPerimeter;whiteSpace=wrap;html=1;fixedSize=1;" vertex="1" parent="1">
          <mxGeometry x="150" y="600" width="120" height="60" as="geometry" />
        </mxCell>
        <mxCell id="tZxPBEaTgiXIeaM5_bRS-44" style="edgeStyle=orthogonalEdgeStyle;rounded=0;orthogonalLoop=1;jettySize=auto;html=1;exitX=0.5;exitY=1;exitDx=0;exitDy=0;entryX=0.5;entryY=0;entryDx=0;entryDy=0;" edge="1" parent="1" source="tZxPBEaTgiXIeaM5_bRS-45" target="tZxPBEaTgiXIeaM5_bRS-47">
          <mxGeometry relative="1" as="geometry" />
        </mxCell>
        <mxCell id="tZxPBEaTgiXIeaM5_bRS-45" value="i = 0" style="rounded=0;whiteSpace=wrap;html=1;" vertex="1" parent="1">
          <mxGeometry x="150" y="690" width="120" height="60" as="geometry" />
        </mxCell>
        <mxCell id="tZxPBEaTgiXIeaM5_bRS-46" style="edgeStyle=orthogonalEdgeStyle;rounded=0;orthogonalLoop=1;jettySize=auto;html=1;exitX=1;exitY=0.5;exitDx=0;exitDy=0;entryX=1;entryY=0.25;entryDx=0;entryDy=0;" edge="1" parent="1" source="tZxPBEaTgiXIeaM5_bRS-47" target="tZxPBEaTgiXIeaM5_bRS-34">
          <mxGeometry relative="1" as="geometry">
            <mxPoint x="520" y="310" as="targetPoint" />
            <Array as="points">
              <mxPoint x="330" y="820" />
              <mxPoint x="330" y="1160" />
              <mxPoint x="520" y="1160" />
              <mxPoint x="520" y="303" />
            </Array>
          </mxGeometry>
        </mxCell>
        <mxCell id="tZxPBEaTgiXIeaM5_bRS-47" value="i&amp;lt;n?" style="rhombus;whiteSpace=wrap;html=1;" vertex="1" parent="1">
          <mxGeometry x="170" y="780" width="80" height="80" as="geometry" />
        </mxCell>
        <mxCell id="tZxPBEaTgiXIeaM5_bRS-48" value="nhap gia tri phan tu" style="shape=parallelogram;perimeter=parallelogramPerimeter;whiteSpace=wrap;html=1;fixedSize=1;" vertex="1" parent="1">
          <mxGeometry x="140" y="900" width="120" height="60" as="geometry" />
        </mxCell>
        <mxCell id="tZxPBEaTgiXIeaM5_bRS-49" value="true" style="edgeStyle=orthogonalEdgeStyle;rounded=0;orthogonalLoop=1;jettySize=auto;html=1;exitX=0.5;exitY=1;exitDx=0;exitDy=0;entryX=0.587;entryY=-0.03;entryDx=0;entryDy=0;entryPerimeter=0;" edge="1" parent="1" source="tZxPBEaTgiXIeaM5_bRS-47" target="tZxPBEaTgiXIeaM5_bRS-48">
          <mxGeometry relative="1" as="geometry" />
        </mxCell>
        <mxCell id="tZxPBEaTgiXIeaM5_bRS-50" style="edgeStyle=orthogonalEdgeStyle;rounded=0;orthogonalLoop=1;jettySize=auto;html=1;exitX=0;exitY=0.5;exitDx=0;exitDy=0;entryX=0;entryY=0.5;entryDx=0;entryDy=0;" edge="1" parent="1" source="tZxPBEaTgiXIeaM5_bRS-51" target="tZxPBEaTgiXIeaM5_bRS-47">
          <mxGeometry relative="1" as="geometry" />
        </mxCell>
        <mxCell id="tZxPBEaTgiXIeaM5_bRS-51" value="i++&lt;br&gt;currentIndex++" style="rounded=0;whiteSpace=wrap;html=1;" vertex="1" parent="1">
          <mxGeometry x="150" y="1000" width="120" height="60" as="geometry" />
        </mxCell>
        <mxCell id="tZxPBEaTgiXIeaM5_bRS-52" style="edgeStyle=orthogonalEdgeStyle;rounded=0;orthogonalLoop=1;jettySize=auto;html=1;exitX=0.5;exitY=1;exitDx=0;exitDy=0;entryX=0.417;entryY=0;entryDx=0;entryDy=0;entryPerimeter=0;" edge="1" parent="1" source="tZxPBEaTgiXIeaM5_bRS-48" target="tZxPBEaTgiXIeaM5_bRS-51">
          <mxGeometry relative="1" as="geometry" />
        </mxCell>
        <mxCell id="tZxPBEaTgiXIeaM5_bRS-53" value="false" style="text;html=1;align=center;verticalAlign=middle;resizable=0;points=[];autosize=1;strokeColor=none;fillColor=none;" vertex="1" parent="1">
          <mxGeometry x="255" y="788" width="50" height="30" as="geometry" />
        </mxCell>
        <mxCell id="tZxPBEaTgiXIeaM5_bRS-54" style="edgeStyle=orthogonalEdgeStyle;rounded=0;orthogonalLoop=1;jettySize=auto;html=1;exitX=0.5;exitY=1;exitDx=0;exitDy=0;entryX=0.5;entryY=0;entryDx=0;entryDy=0;" edge="1" parent="1" source="tZxPBEaTgiXIeaM5_bRS-56" target="tZxPBEaTgiXIeaM5_bRS-58">
          <mxGeometry relative="1" as="geometry" />
        </mxCell>
        <mxCell id="tZxPBEaTgiXIeaM5_bRS-55" style="edgeStyle=orthogonalEdgeStyle;rounded=0;orthogonalLoop=1;jettySize=auto;html=1;exitX=0;exitY=0.5;exitDx=0;exitDy=0;" edge="1" parent="1" source="tZxPBEaTgiXIeaM5_bRS-56">
          <mxGeometry relative="1" as="geometry">
            <mxPoint x="-410" y="530" as="targetPoint" />
          </mxGeometry>
        </mxCell>
        <mxCell id="tZxPBEaTgiXIeaM5_bRS-56" value="choice == 2?" style="rhombus;whiteSpace=wrap;html=1;" vertex="1" parent="1">
          <mxGeometry x="-180" y="490" width="80" height="80" as="geometry" />
        </mxCell>
        <mxCell id="tZxPBEaTgiXIeaM5_bRS-57" style="edgeStyle=orthogonalEdgeStyle;rounded=0;orthogonalLoop=1;jettySize=auto;html=1;exitX=0.5;exitY=1;exitDx=0;exitDy=0;entryX=0.5;entryY=0;entryDx=0;entryDy=0;" edge="1" parent="1" source="tZxPBEaTgiXIeaM5_bRS-58" target="tZxPBEaTgiXIeaM5_bRS-61">
          <mxGeometry relative="1" as="geometry" />
        </mxCell>
        <mxCell id="tZxPBEaTgiXIeaM5_bRS-58" value="i = 0" style="rounded=0;whiteSpace=wrap;html=1;" vertex="1" parent="1">
          <mxGeometry x="-200" y="585" width="120" height="60" as="geometry" />
        </mxCell>
        <mxCell id="tZxPBEaTgiXIeaM5_bRS-59" value="true" style="edgeStyle=orthogonalEdgeStyle;rounded=0;orthogonalLoop=1;jettySize=auto;html=1;exitX=0.5;exitY=1;exitDx=0;exitDy=0;" edge="1" parent="1" source="tZxPBEaTgiXIeaM5_bRS-61">
          <mxGeometry relative="1" as="geometry">
            <mxPoint x="-140" y="800" as="targetPoint" />
          </mxGeometry>
        </mxCell>
        <mxCell id="tZxPBEaTgiXIeaM5_bRS-60" style="edgeStyle=orthogonalEdgeStyle;rounded=0;orthogonalLoop=1;jettySize=auto;html=1;exitX=1;exitY=0.5;exitDx=0;exitDy=0;" edge="1" parent="1" source="tZxPBEaTgiXIeaM5_bRS-61">
          <mxGeometry relative="1" as="geometry">
            <mxPoint x="330" y="1160" as="targetPoint" />
            <Array as="points">
              <mxPoint y="710" />
              <mxPoint y="1160" />
              <mxPoint x="330" y="1160" />
            </Array>
          </mxGeometry>
        </mxCell>
        <mxCell id="tZxPBEaTgiXIeaM5_bRS-61" value="i&amp;lt;currentIndex?" style="rhombus;whiteSpace=wrap;html=1;" vertex="1" parent="1">
          <mxGeometry x="-180" y="670" width="80" height="80" as="geometry" />
        </mxCell>
        <mxCell id="tZxPBEaTgiXIeaM5_bRS-62" style="edgeStyle=orthogonalEdgeStyle;rounded=0;orthogonalLoop=1;jettySize=auto;html=1;exitX=0.5;exitY=1;exitDx=0;exitDy=0;" edge="1" parent="1" source="tZxPBEaTgiXIeaM5_bRS-63">
          <mxGeometry relative="1" as="geometry">
            <mxPoint x="-150" y="910" as="targetPoint" />
          </mxGeometry>
        </mxCell>
        <mxCell id="tZxPBEaTgiXIeaM5_bRS-63" value="in ra gia tri phan tu" style="shape=parallelogram;perimeter=parallelogramPerimeter;whiteSpace=wrap;html=1;fixedSize=1;" vertex="1" parent="1">
          <mxGeometry x="-210" y="800" width="120" height="60" as="geometry" />
        </mxCell>
        <mxCell id="tZxPBEaTgiXIeaM5_bRS-64" style="edgeStyle=orthogonalEdgeStyle;rounded=0;orthogonalLoop=1;jettySize=auto;html=1;exitX=0;exitY=0.5;exitDx=0;exitDy=0;entryX=0;entryY=0.5;entryDx=0;entryDy=0;" edge="1" parent="1" source="tZxPBEaTgiXIeaM5_bRS-65" target="tZxPBEaTgiXIeaM5_bRS-61">
          <mxGeometry relative="1" as="geometry" />
        </mxCell>
        <mxCell id="tZxPBEaTgiXIeaM5_bRS-65" value="i++" style="rounded=0;whiteSpace=wrap;html=1;" vertex="1" parent="1">
          <mxGeometry x="-210" y="910" width="120" height="60" as="geometry" />
        </mxCell>
        <mxCell id="tZxPBEaTgiXIeaM5_bRS-66" value="fasle" style="text;html=1;align=center;verticalAlign=middle;resizable=0;points=[];autosize=1;strokeColor=none;fillColor=none;" vertex="1" parent="1">
          <mxGeometry x="-105" y="688" width="50" height="30" as="geometry" />
        </mxCell>
        <mxCell id="tZxPBEaTgiXIeaM5_bRS-67" value="true" style="text;html=1;align=center;verticalAlign=middle;resizable=0;points=[];autosize=1;strokeColor=none;fillColor=none;" vertex="1" parent="1">
          <mxGeometry x="-130" y="548" width="40" height="30" as="geometry" />
        </mxCell>
        <mxCell id="tZxPBEaTgiXIeaM5_bRS-68" style="edgeStyle=orthogonalEdgeStyle;rounded=0;orthogonalLoop=1;jettySize=auto;html=1;exitX=0.5;exitY=1;exitDx=0;exitDy=0;entryX=0.5;entryY=0;entryDx=0;entryDy=0;" edge="1" parent="1" source="tZxPBEaTgiXIeaM5_bRS-70" target="tZxPBEaTgiXIeaM5_bRS-75">
          <mxGeometry relative="1" as="geometry" />
        </mxCell>
        <mxCell id="tZxPBEaTgiXIeaM5_bRS-69" style="edgeStyle=orthogonalEdgeStyle;rounded=0;orthogonalLoop=1;jettySize=auto;html=1;exitX=0;exitY=0.5;exitDx=0;exitDy=0;" edge="1" parent="1" source="tZxPBEaTgiXIeaM5_bRS-70">
          <mxGeometry relative="1" as="geometry">
            <mxPoint x="-720" y="530" as="targetPoint" />
          </mxGeometry>
        </mxCell>
        <mxCell id="tZxPBEaTgiXIeaM5_bRS-70" value="choice == 3?" style="rhombus;whiteSpace=wrap;html=1;" vertex="1" parent="1">
          <mxGeometry x="-493" y="490" width="80" height="80" as="geometry" />
        </mxCell>
        <mxCell id="tZxPBEaTgiXIeaM5_bRS-71" style="edgeStyle=orthogonalEdgeStyle;rounded=0;orthogonalLoop=1;jettySize=auto;html=1;exitX=0.5;exitY=1;exitDx=0;exitDy=0;" edge="1" parent="1" source="tZxPBEaTgiXIeaM5_bRS-73">
          <mxGeometry relative="1" as="geometry">
            <mxPoint x="-453" y="800" as="targetPoint" />
          </mxGeometry>
        </mxCell>
        <mxCell id="tZxPBEaTgiXIeaM5_bRS-72" style="edgeStyle=orthogonalEdgeStyle;rounded=0;orthogonalLoop=1;jettySize=auto;html=1;exitX=1;exitY=0.5;exitDx=0;exitDy=0;" edge="1" parent="1" source="tZxPBEaTgiXIeaM5_bRS-73">
          <mxGeometry relative="1" as="geometry">
            <mxPoint x="-360" y="1010" as="targetPoint" />
          </mxGeometry>
        </mxCell>
        <mxCell id="tZxPBEaTgiXIeaM5_bRS-73" value="i&amp;lt;currentIndex?" style="rhombus;whiteSpace=wrap;html=1;" vertex="1" parent="1">
          <mxGeometry x="-493" y="680" width="80" height="80" as="geometry" />
        </mxCell>
        <mxCell id="tZxPBEaTgiXIeaM5_bRS-74" style="edgeStyle=orthogonalEdgeStyle;rounded=0;orthogonalLoop=1;jettySize=auto;html=1;exitX=0.5;exitY=1;exitDx=0;exitDy=0;entryX=0.5;entryY=0;entryDx=0;entryDy=0;" edge="1" parent="1" source="tZxPBEaTgiXIeaM5_bRS-75" target="tZxPBEaTgiXIeaM5_bRS-73">
          <mxGeometry relative="1" as="geometry" />
        </mxCell>
        <mxCell id="tZxPBEaTgiXIeaM5_bRS-75" value="i=0" style="rounded=0;whiteSpace=wrap;html=1;" vertex="1" parent="1">
          <mxGeometry x="-513" y="590" width="120" height="60" as="geometry" />
        </mxCell>
        <mxCell id="tZxPBEaTgiXIeaM5_bRS-76" style="edgeStyle=orthogonalEdgeStyle;rounded=0;orthogonalLoop=1;jettySize=auto;html=1;exitX=0.5;exitY=1;exitDx=0;exitDy=0;" edge="1" parent="1" source="tZxPBEaTgiXIeaM5_bRS-77">
          <mxGeometry relative="1" as="geometry">
            <mxPoint x="-453" y="910" as="targetPoint" />
          </mxGeometry>
        </mxCell>
        <mxCell id="tZxPBEaTgiXIeaM5_bRS-77" value="arr2[i] = arr[i]" style="rounded=0;whiteSpace=wrap;html=1;" vertex="1" parent="1">
          <mxGeometry x="-513" y="800" width="120" height="60" as="geometry" />
        </mxCell>
        <mxCell id="tZxPBEaTgiXIeaM5_bRS-78" style="edgeStyle=orthogonalEdgeStyle;rounded=0;orthogonalLoop=1;jettySize=auto;html=1;exitX=0;exitY=0.5;exitDx=0;exitDy=0;entryX=0;entryY=0.5;entryDx=0;entryDy=0;" edge="1" parent="1" source="tZxPBEaTgiXIeaM5_bRS-79" target="tZxPBEaTgiXIeaM5_bRS-73">
          <mxGeometry relative="1" as="geometry" />
        </mxCell>
        <mxCell id="tZxPBEaTgiXIeaM5_bRS-79" value="i++" style="rounded=0;whiteSpace=wrap;html=1;" vertex="1" parent="1">
          <mxGeometry x="-513" y="910" width="120" height="60" as="geometry" />
        </mxCell>
        <mxCell id="tZxPBEaTgiXIeaM5_bRS-80" style="edgeStyle=orthogonalEdgeStyle;rounded=0;orthogonalLoop=1;jettySize=auto;html=1;exitX=0.5;exitY=1;exitDx=0;exitDy=0;" edge="1" parent="1" source="tZxPBEaTgiXIeaM5_bRS-81">
          <mxGeometry relative="1" as="geometry">
            <mxPoint y="1160" as="targetPoint" />
            <Array as="points">
              <mxPoint x="-360" y="1160" />
            </Array>
          </mxGeometry>
        </mxCell>
        <mxCell id="tZxPBEaTgiXIeaM5_bRS-81" value="mang sa sao chep&lt;br&gt;arr2[]" style="shape=parallelogram;perimeter=parallelogramPerimeter;whiteSpace=wrap;html=1;fixedSize=1;" vertex="1" parent="1">
          <mxGeometry x="-420" y="1010" width="120" height="60" as="geometry" />
        </mxCell>
        <mxCell id="tZxPBEaTgiXIeaM5_bRS-82" style="edgeStyle=orthogonalEdgeStyle;rounded=0;orthogonalLoop=1;jettySize=auto;html=1;exitX=0.5;exitY=1;exitDx=0;exitDy=0;" edge="1" parent="1" source="tZxPBEaTgiXIeaM5_bRS-84" target="tZxPBEaTgiXIeaM5_bRS-86">
          <mxGeometry relative="1" as="geometry" />
        </mxCell>
        <mxCell id="tZxPBEaTgiXIeaM5_bRS-83" style="edgeStyle=orthogonalEdgeStyle;rounded=0;orthogonalLoop=1;jettySize=auto;html=1;exitX=0.5;exitY=0;exitDx=0;exitDy=0;entryX=1;entryY=0.5;entryDx=0;entryDy=0;" edge="1" parent="1" source="tZxPBEaTgiXIeaM5_bRS-84" target="tZxPBEaTgiXIeaM5_bRS-147">
          <mxGeometry relative="1" as="geometry" />
        </mxCell>
        <mxCell id="tZxPBEaTgiXIeaM5_bRS-84" value="choice == 4?" style="rhombus;whiteSpace=wrap;html=1;" vertex="1" parent="1">
          <mxGeometry x="-800" y="490" width="80" height="80" as="geometry" />
        </mxCell>
        <mxCell id="tZxPBEaTgiXIeaM5_bRS-85" style="edgeStyle=orthogonalEdgeStyle;rounded=0;orthogonalLoop=1;jettySize=auto;html=1;exitX=0.5;exitY=1;exitDx=0;exitDy=0;entryX=0.5;entryY=0;entryDx=0;entryDy=0;" edge="1" parent="1" source="tZxPBEaTgiXIeaM5_bRS-86">
          <mxGeometry relative="1" as="geometry">
            <mxPoint x="-760" y="708" as="targetPoint" />
          </mxGeometry>
        </mxCell>
        <mxCell id="tZxPBEaTgiXIeaM5_bRS-86" value="so phan tu muon them n" style="shape=parallelogram;perimeter=parallelogramPerimeter;whiteSpace=wrap;html=1;fixedSize=1;" vertex="1" parent="1">
          <mxGeometry x="-820" y="610" width="120" height="60" as="geometry" />
        </mxCell>
        <mxCell id="tZxPBEaTgiXIeaM5_bRS-87" style="edgeStyle=orthogonalEdgeStyle;rounded=0;orthogonalLoop=1;jettySize=auto;html=1;exitX=0.5;exitY=1;exitDx=0;exitDy=0;entryX=0.5;entryY=0;entryDx=0;entryDy=0;" edge="1" parent="1" source="tZxPBEaTgiXIeaM5_bRS-88" target="tZxPBEaTgiXIeaM5_bRS-91">
          <mxGeometry relative="1" as="geometry" />
        </mxCell>
        <mxCell id="tZxPBEaTgiXIeaM5_bRS-88" value="i=0" style="rounded=0;whiteSpace=wrap;html=1;" vertex="1" parent="1">
          <mxGeometry x="-820" y="710" width="120" height="60" as="geometry" />
        </mxCell>
        <mxCell id="tZxPBEaTgiXIeaM5_bRS-89" value="true" style="edgeStyle=orthogonalEdgeStyle;rounded=0;orthogonalLoop=1;jettySize=auto;html=1;exitX=0.5;exitY=1;exitDx=0;exitDy=0;entryX=0.5;entryY=0;entryDx=0;entryDy=0;" edge="1" parent="1" source="tZxPBEaTgiXIeaM5_bRS-91" target="tZxPBEaTgiXIeaM5_bRS-93">
          <mxGeometry relative="1" as="geometry" />
        </mxCell>
        <mxCell id="tZxPBEaTgiXIeaM5_bRS-90" style="edgeStyle=orthogonalEdgeStyle;rounded=0;orthogonalLoop=1;jettySize=auto;html=1;exitX=0;exitY=0.5;exitDx=0;exitDy=0;" edge="1" parent="1" source="tZxPBEaTgiXIeaM5_bRS-91">
          <mxGeometry relative="1" as="geometry">
            <mxPoint x="-940" y="840" as="targetPoint" />
          </mxGeometry>
        </mxCell>
        <mxCell id="tZxPBEaTgiXIeaM5_bRS-91" value="i&amp;lt;n?" style="rhombus;whiteSpace=wrap;html=1;" vertex="1" parent="1">
          <mxGeometry x="-800" y="800" width="80" height="80" as="geometry" />
        </mxCell>
        <mxCell id="tZxPBEaTgiXIeaM5_bRS-92" style="edgeStyle=orthogonalEdgeStyle;rounded=0;orthogonalLoop=1;jettySize=auto;html=1;exitX=0.5;exitY=1;exitDx=0;exitDy=0;entryX=0.5;entryY=0;entryDx=0;entryDy=0;" edge="1" parent="1" source="tZxPBEaTgiXIeaM5_bRS-93" target="tZxPBEaTgiXIeaM5_bRS-95">
          <mxGeometry relative="1" as="geometry" />
        </mxCell>
        <mxCell id="tZxPBEaTgiXIeaM5_bRS-93" value="nhap gia tri arr1" style="shape=parallelogram;perimeter=parallelogramPerimeter;whiteSpace=wrap;html=1;fixedSize=1;" vertex="1" parent="1">
          <mxGeometry x="-820" y="910" width="120" height="60" as="geometry" />
        </mxCell>
        <mxCell id="tZxPBEaTgiXIeaM5_bRS-94" style="edgeStyle=orthogonalEdgeStyle;rounded=0;orthogonalLoop=1;jettySize=auto;html=1;exitX=1;exitY=0.5;exitDx=0;exitDy=0;entryX=1;entryY=0.5;entryDx=0;entryDy=0;" edge="1" parent="1" source="tZxPBEaTgiXIeaM5_bRS-95" target="tZxPBEaTgiXIeaM5_bRS-91">
          <mxGeometry relative="1" as="geometry" />
        </mxCell>
        <mxCell id="tZxPBEaTgiXIeaM5_bRS-95" value="currentIndex1++&lt;br&gt;i++" style="rounded=0;whiteSpace=wrap;html=1;" vertex="1" parent="1">
          <mxGeometry x="-820" y="1010" width="120" height="60" as="geometry" />
        </mxCell>
        <mxCell id="tZxPBEaTgiXIeaM5_bRS-96" value="true" style="edgeStyle=orthogonalEdgeStyle;rounded=0;orthogonalLoop=1;jettySize=auto;html=1;exitX=0.5;exitY=1;exitDx=0;exitDy=0;" edge="1" parent="1" source="tZxPBEaTgiXIeaM5_bRS-98">
          <mxGeometry relative="1" as="geometry">
            <mxPoint x="-1055" y="930" as="targetPoint" />
          </mxGeometry>
        </mxCell>
        <mxCell id="tZxPBEaTgiXIeaM5_bRS-97" style="edgeStyle=orthogonalEdgeStyle;rounded=0;orthogonalLoop=1;jettySize=auto;html=1;exitX=0;exitY=0.5;exitDx=0;exitDy=0;" edge="1" parent="1" source="tZxPBEaTgiXIeaM5_bRS-98">
          <mxGeometry relative="1" as="geometry">
            <mxPoint x="-1820" y="840" as="targetPoint" />
          </mxGeometry>
        </mxCell>
        <mxCell id="tZxPBEaTgiXIeaM5_bRS-98" value="currentIndex&amp;gt;currentIndex1?" style="rhombus;whiteSpace=wrap;html=1;" vertex="1" parent="1">
          <mxGeometry x="-1170" y="800" width="230" height="80" as="geometry" />
        </mxCell>
        <mxCell id="tZxPBEaTgiXIeaM5_bRS-99" style="edgeStyle=orthogonalEdgeStyle;rounded=0;orthogonalLoop=1;jettySize=auto;html=1;exitX=0.5;exitY=1;exitDx=0;exitDy=0;entryX=0.5;entryY=0;entryDx=0;entryDy=0;" edge="1" parent="1" source="tZxPBEaTgiXIeaM5_bRS-100" target="tZxPBEaTgiXIeaM5_bRS-103">
          <mxGeometry relative="1" as="geometry" />
        </mxCell>
        <mxCell id="tZxPBEaTgiXIeaM5_bRS-100" value="i=0" style="rounded=0;whiteSpace=wrap;html=1;" vertex="1" parent="1">
          <mxGeometry x="-1120" y="930" width="120" height="60" as="geometry" />
        </mxCell>
        <mxCell id="tZxPBEaTgiXIeaM5_bRS-101" value="true" style="edgeStyle=orthogonalEdgeStyle;rounded=0;orthogonalLoop=1;jettySize=auto;html=1;exitX=0.5;exitY=1;exitDx=0;exitDy=0;entryX=0.5;entryY=0;entryDx=0;entryDy=0;" edge="1" parent="1" source="tZxPBEaTgiXIeaM5_bRS-103" target="tZxPBEaTgiXIeaM5_bRS-106">
          <mxGeometry relative="1" as="geometry" />
        </mxCell>
        <mxCell id="tZxPBEaTgiXIeaM5_bRS-102" value="false" style="edgeStyle=orthogonalEdgeStyle;rounded=0;orthogonalLoop=1;jettySize=auto;html=1;exitX=0;exitY=0.5;exitDx=0;exitDy=0;" edge="1" parent="1" source="tZxPBEaTgiXIeaM5_bRS-103">
          <mxGeometry relative="1" as="geometry">
            <mxPoint x="-1470" y="1070" as="targetPoint" />
          </mxGeometry>
        </mxCell>
        <mxCell id="tZxPBEaTgiXIeaM5_bRS-103" value="i&amp;lt;currentIndex?" style="rhombus;whiteSpace=wrap;html=1;" vertex="1" parent="1">
          <mxGeometry x="-1100" y="1030" width="80" height="80" as="geometry" />
        </mxCell>
        <mxCell id="tZxPBEaTgiXIeaM5_bRS-104" style="edgeStyle=orthogonalEdgeStyle;rounded=0;orthogonalLoop=1;jettySize=auto;html=1;exitX=0.5;exitY=1;exitDx=0;exitDy=0;" edge="1" parent="1" source="tZxPBEaTgiXIeaM5_bRS-106" target="tZxPBEaTgiXIeaM5_bRS-108">
          <mxGeometry relative="1" as="geometry" />
        </mxCell>
        <mxCell id="tZxPBEaTgiXIeaM5_bRS-105" value="false" style="edgeStyle=orthogonalEdgeStyle;rounded=0;orthogonalLoop=1;jettySize=auto;html=1;exitX=0;exitY=0.5;exitDx=0;exitDy=0;" edge="1" parent="1" source="tZxPBEaTgiXIeaM5_bRS-106">
          <mxGeometry relative="1" as="geometry">
            <mxPoint x="-1200" y="1190" as="targetPoint" />
          </mxGeometry>
        </mxCell>
        <mxCell id="tZxPBEaTgiXIeaM5_bRS-106" value="i&amp;lt;currentIndex1?" style="rhombus;whiteSpace=wrap;html=1;" vertex="1" parent="1">
          <mxGeometry x="-1100" y="1150" width="80" height="80" as="geometry" />
        </mxCell>
        <mxCell id="tZxPBEaTgiXIeaM5_bRS-107" style="edgeStyle=orthogonalEdgeStyle;rounded=0;orthogonalLoop=1;jettySize=auto;html=1;exitX=0.5;exitY=1;exitDx=0;exitDy=0;" edge="1" parent="1" source="tZxPBEaTgiXIeaM5_bRS-108">
          <mxGeometry relative="1" as="geometry">
            <mxPoint x="-1070" y="1350" as="targetPoint" />
          </mxGeometry>
        </mxCell>
        <mxCell id="tZxPBEaTgiXIeaM5_bRS-108" value="swap = arr[i]&lt;br&gt;arr[i] = arr1[i]&lt;br&gt;arr1[i] = swap" style="rounded=0;whiteSpace=wrap;html=1;" vertex="1" parent="1">
          <mxGeometry x="-1120" y="1270" width="120" height="60" as="geometry" />
        </mxCell>
        <mxCell id="tZxPBEaTgiXIeaM5_bRS-109" style="edgeStyle=orthogonalEdgeStyle;rounded=0;orthogonalLoop=1;jettySize=auto;html=1;exitX=0.5;exitY=1;exitDx=0;exitDy=0;entryX=0.5;entryY=0;entryDx=0;entryDy=0;" edge="1" parent="1" source="tZxPBEaTgiXIeaM5_bRS-111" target="tZxPBEaTgiXIeaM5_bRS-113">
          <mxGeometry relative="1" as="geometry" />
        </mxCell>
        <mxCell id="tZxPBEaTgiXIeaM5_bRS-110" value="false" style="edgeStyle=orthogonalEdgeStyle;rounded=0;orthogonalLoop=1;jettySize=auto;html=1;exitX=0;exitY=0.5;exitDx=0;exitDy=0;" edge="1" parent="1" source="tZxPBEaTgiXIeaM5_bRS-111">
          <mxGeometry relative="1" as="geometry">
            <mxPoint x="-1240" y="1350" as="targetPoint" />
            <Array as="points">
              <mxPoint x="-1390" y="1190" />
            </Array>
          </mxGeometry>
        </mxCell>
        <mxCell id="tZxPBEaTgiXIeaM5_bRS-111" value="i&amp;gt;currentIndex1?" style="rhombus;whiteSpace=wrap;html=1;" vertex="1" parent="1">
          <mxGeometry x="-1280" y="1150" width="80" height="80" as="geometry" />
        </mxCell>
        <mxCell id="tZxPBEaTgiXIeaM5_bRS-112" style="edgeStyle=orthogonalEdgeStyle;rounded=0;orthogonalLoop=1;jettySize=auto;html=1;exitX=0.5;exitY=1;exitDx=0;exitDy=0;entryX=0.5;entryY=1;entryDx=0;entryDy=0;" edge="1" parent="1" source="tZxPBEaTgiXIeaM5_bRS-113" target="tZxPBEaTgiXIeaM5_bRS-115">
          <mxGeometry relative="1" as="geometry">
            <mxPoint x="-1240" y="1380" as="targetPoint" />
          </mxGeometry>
        </mxCell>
        <mxCell id="tZxPBEaTgiXIeaM5_bRS-113" value="arr1[i] = arr[i]&lt;br&gt;arr[i] = &quot;\0&quot;" style="rounded=0;whiteSpace=wrap;html=1;" vertex="1" parent="1">
          <mxGeometry x="-1300" y="1270" width="120" height="60" as="geometry" />
        </mxCell>
        <mxCell id="tZxPBEaTgiXIeaM5_bRS-114" style="edgeStyle=orthogonalEdgeStyle;rounded=0;orthogonalLoop=1;jettySize=auto;html=1;exitX=0.5;exitY=0;exitDx=0;exitDy=0;entryX=1;entryY=0.5;entryDx=0;entryDy=0;" edge="1" parent="1" source="tZxPBEaTgiXIeaM5_bRS-115" target="tZxPBEaTgiXIeaM5_bRS-103">
          <mxGeometry relative="1" as="geometry" />
        </mxCell>
        <mxCell id="tZxPBEaTgiXIeaM5_bRS-115" value="i++" style="rounded=0;whiteSpace=wrap;html=1;" vertex="1" parent="1">
          <mxGeometry x="-930" y="1270" width="120" height="60" as="geometry" />
        </mxCell>
        <mxCell id="tZxPBEaTgiXIeaM5_bRS-116" style="edgeStyle=orthogonalEdgeStyle;rounded=0;orthogonalLoop=1;jettySize=auto;html=1;exitX=0.5;exitY=1;exitDx=0;exitDy=0;" edge="1" parent="1" source="tZxPBEaTgiXIeaM5_bRS-117">
          <mxGeometry relative="1" as="geometry">
            <mxPoint x="-2530" y="1480" as="targetPoint" />
            <Array as="points">
              <mxPoint x="-1570" y="1480" />
            </Array>
          </mxGeometry>
        </mxCell>
        <mxCell id="tZxPBEaTgiXIeaM5_bRS-117" value="swap = currentIndex&lt;br&gt;currentIndex = currentIndex1&lt;br&gt;currentIndex1 = swap" style="rounded=0;whiteSpace=wrap;html=1;" vertex="1" parent="1">
          <mxGeometry x="-1680" y="1040" width="210" height="60" as="geometry" />
        </mxCell>
        <mxCell id="tZxPBEaTgiXIeaM5_bRS-118" style="edgeStyle=orthogonalEdgeStyle;rounded=0;orthogonalLoop=1;jettySize=auto;html=1;exitX=0.5;exitY=1;exitDx=0;exitDy=0;" edge="1" parent="1" source="tZxPBEaTgiXIeaM5_bRS-120">
          <mxGeometry relative="1" as="geometry">
            <mxPoint x="-1935" y="950" as="targetPoint" />
          </mxGeometry>
        </mxCell>
        <mxCell id="tZxPBEaTgiXIeaM5_bRS-119" style="edgeStyle=orthogonalEdgeStyle;rounded=0;orthogonalLoop=1;jettySize=auto;html=1;exitX=0;exitY=0.5;exitDx=0;exitDy=0;" edge="1" parent="1" source="tZxPBEaTgiXIeaM5_bRS-120">
          <mxGeometry relative="1" as="geometry">
            <mxPoint x="-2580" y="1543.0000305175781" as="targetPoint" />
            <Array as="points">
              <mxPoint x="-2730" y="840" />
            </Array>
          </mxGeometry>
        </mxCell>
        <mxCell id="tZxPBEaTgiXIeaM5_bRS-120" value="currentIndex&amp;lt;currentIndex1?" style="rhombus;whiteSpace=wrap;html=1;" vertex="1" parent="1">
          <mxGeometry x="-2050" y="800" width="230" height="80" as="geometry" />
        </mxCell>
        <mxCell id="tZxPBEaTgiXIeaM5_bRS-121" style="edgeStyle=orthogonalEdgeStyle;rounded=0;orthogonalLoop=1;jettySize=auto;html=1;exitX=0.5;exitY=1;exitDx=0;exitDy=0;entryX=0.5;entryY=0;entryDx=0;entryDy=0;" edge="1" parent="1" source="tZxPBEaTgiXIeaM5_bRS-122" target="tZxPBEaTgiXIeaM5_bRS-125">
          <mxGeometry relative="1" as="geometry" />
        </mxCell>
        <mxCell id="tZxPBEaTgiXIeaM5_bRS-122" value="i=0" style="rounded=0;whiteSpace=wrap;html=1;" vertex="1" parent="1">
          <mxGeometry x="-2000" y="950" width="120" height="60" as="geometry" />
        </mxCell>
        <mxCell id="tZxPBEaTgiXIeaM5_bRS-123" value="true" style="edgeStyle=orthogonalEdgeStyle;rounded=0;orthogonalLoop=1;jettySize=auto;html=1;exitX=0.5;exitY=1;exitDx=0;exitDy=0;entryX=0.5;entryY=0;entryDx=0;entryDy=0;" edge="1" parent="1" source="tZxPBEaTgiXIeaM5_bRS-125" target="tZxPBEaTgiXIeaM5_bRS-128">
          <mxGeometry relative="1" as="geometry" />
        </mxCell>
        <mxCell id="tZxPBEaTgiXIeaM5_bRS-124" value="false" style="edgeStyle=orthogonalEdgeStyle;rounded=0;orthogonalLoop=1;jettySize=auto;html=1;exitX=0;exitY=0.5;exitDx=0;exitDy=0;" edge="1" parent="1" source="tZxPBEaTgiXIeaM5_bRS-125">
          <mxGeometry relative="1" as="geometry">
            <mxPoint x="-2350" y="1090" as="targetPoint" />
          </mxGeometry>
        </mxCell>
        <mxCell id="tZxPBEaTgiXIeaM5_bRS-125" value="i&amp;lt;currentIndex1?" style="rhombus;whiteSpace=wrap;html=1;" vertex="1" parent="1">
          <mxGeometry x="-1980" y="1050" width="80" height="80" as="geometry" />
        </mxCell>
        <mxCell id="tZxPBEaTgiXIeaM5_bRS-126" style="edgeStyle=orthogonalEdgeStyle;rounded=0;orthogonalLoop=1;jettySize=auto;html=1;exitX=0.5;exitY=1;exitDx=0;exitDy=0;" edge="1" parent="1" source="tZxPBEaTgiXIeaM5_bRS-128" target="tZxPBEaTgiXIeaM5_bRS-130">
          <mxGeometry relative="1" as="geometry" />
        </mxCell>
        <mxCell id="tZxPBEaTgiXIeaM5_bRS-127" value="false" style="edgeStyle=orthogonalEdgeStyle;rounded=0;orthogonalLoop=1;jettySize=auto;html=1;exitX=0;exitY=0.5;exitDx=0;exitDy=0;" edge="1" parent="1" source="tZxPBEaTgiXIeaM5_bRS-128">
          <mxGeometry relative="1" as="geometry">
            <mxPoint x="-2080" y="1210" as="targetPoint" />
          </mxGeometry>
        </mxCell>
        <mxCell id="tZxPBEaTgiXIeaM5_bRS-128" value="i&amp;lt;currentIndex?" style="rhombus;whiteSpace=wrap;html=1;" vertex="1" parent="1">
          <mxGeometry x="-1980" y="1170" width="80" height="80" as="geometry" />
        </mxCell>
        <mxCell id="tZxPBEaTgiXIeaM5_bRS-129" style="edgeStyle=orthogonalEdgeStyle;rounded=0;orthogonalLoop=1;jettySize=auto;html=1;exitX=0.5;exitY=1;exitDx=0;exitDy=0;" edge="1" parent="1" source="tZxPBEaTgiXIeaM5_bRS-130">
          <mxGeometry relative="1" as="geometry">
            <mxPoint x="-1950" y="1370" as="targetPoint" />
          </mxGeometry>
        </mxCell>
        <mxCell id="tZxPBEaTgiXIeaM5_bRS-130" value="swap = arr[i]&lt;br&gt;arr[i] = arr1[i]&lt;br&gt;arr1[i] = swap" style="rounded=0;whiteSpace=wrap;html=1;" vertex="1" parent="1">
          <mxGeometry x="-2000" y="1290" width="120" height="60" as="geometry" />
        </mxCell>
        <mxCell id="tZxPBEaTgiXIeaM5_bRS-131" style="edgeStyle=orthogonalEdgeStyle;rounded=0;orthogonalLoop=1;jettySize=auto;html=1;exitX=0.5;exitY=1;exitDx=0;exitDy=0;entryX=0.5;entryY=0;entryDx=0;entryDy=0;" edge="1" parent="1" source="tZxPBEaTgiXIeaM5_bRS-133" target="tZxPBEaTgiXIeaM5_bRS-135">
          <mxGeometry relative="1" as="geometry" />
        </mxCell>
        <mxCell id="tZxPBEaTgiXIeaM5_bRS-132" value="false" style="edgeStyle=orthogonalEdgeStyle;rounded=0;orthogonalLoop=1;jettySize=auto;html=1;exitX=0;exitY=0.5;exitDx=0;exitDy=0;" edge="1" parent="1" source="tZxPBEaTgiXIeaM5_bRS-133">
          <mxGeometry relative="1" as="geometry">
            <mxPoint x="-2120" y="1370" as="targetPoint" />
            <Array as="points">
              <mxPoint x="-2270" y="1210" />
            </Array>
          </mxGeometry>
        </mxCell>
        <mxCell id="tZxPBEaTgiXIeaM5_bRS-133" value="i&amp;gt;currentIndex?" style="rhombus;whiteSpace=wrap;html=1;" vertex="1" parent="1">
          <mxGeometry x="-2160" y="1170" width="80" height="80" as="geometry" />
        </mxCell>
        <mxCell id="tZxPBEaTgiXIeaM5_bRS-134" style="edgeStyle=orthogonalEdgeStyle;rounded=0;orthogonalLoop=1;jettySize=auto;html=1;exitX=0.5;exitY=1;exitDx=0;exitDy=0;entryX=0.5;entryY=1;entryDx=0;entryDy=0;" edge="1" parent="1" source="tZxPBEaTgiXIeaM5_bRS-135" target="tZxPBEaTgiXIeaM5_bRS-137">
          <mxGeometry relative="1" as="geometry">
            <mxPoint x="-2120" y="1400" as="targetPoint" />
          </mxGeometry>
        </mxCell>
        <mxCell id="tZxPBEaTgiXIeaM5_bRS-135" value="arr[i] = arr1[i]&lt;br&gt;arr1[i] = &quot;\0&quot;" style="rounded=0;whiteSpace=wrap;html=1;" vertex="1" parent="1">
          <mxGeometry x="-2180" y="1290" width="120" height="60" as="geometry" />
        </mxCell>
        <mxCell id="tZxPBEaTgiXIeaM5_bRS-136" style="edgeStyle=orthogonalEdgeStyle;rounded=0;orthogonalLoop=1;jettySize=auto;html=1;exitX=0.5;exitY=0;exitDx=0;exitDy=0;entryX=1;entryY=0.5;entryDx=0;entryDy=0;" edge="1" parent="1" source="tZxPBEaTgiXIeaM5_bRS-137" target="tZxPBEaTgiXIeaM5_bRS-125">
          <mxGeometry relative="1" as="geometry" />
        </mxCell>
        <mxCell id="tZxPBEaTgiXIeaM5_bRS-137" value="i++" style="rounded=0;whiteSpace=wrap;html=1;" vertex="1" parent="1">
          <mxGeometry x="-1810" y="1290" width="120" height="60" as="geometry" />
        </mxCell>
        <mxCell id="tZxPBEaTgiXIeaM5_bRS-138" style="edgeStyle=orthogonalEdgeStyle;rounded=0;orthogonalLoop=1;jettySize=auto;html=1;exitX=0.5;exitY=1;exitDx=0;exitDy=0;" edge="1" parent="1" source="tZxPBEaTgiXIeaM5_bRS-139">
          <mxGeometry relative="1" as="geometry">
            <mxPoint x="-2455" y="1480" as="targetPoint" />
          </mxGeometry>
        </mxCell>
        <mxCell id="tZxPBEaTgiXIeaM5_bRS-139" value="swap = currentIndex&lt;br&gt;currentIndex = currentIndex1&lt;br&gt;currentIndex1 = swap" style="rounded=0;whiteSpace=wrap;html=1;" vertex="1" parent="1">
          <mxGeometry x="-2560" y="1060" width="210" height="60" as="geometry" />
        </mxCell>
        <mxCell id="tZxPBEaTgiXIeaM5_bRS-140" style="edgeStyle=orthogonalEdgeStyle;rounded=0;orthogonalLoop=1;jettySize=auto;html=1;exitX=0.5;exitY=1;exitDx=0;exitDy=0;" edge="1" parent="1" source="tZxPBEaTgiXIeaM5_bRS-141">
          <mxGeometry relative="1" as="geometry">
            <mxPoint x="520" y="1170" as="targetPoint" />
            <Array as="points">
              <mxPoint x="-2579" y="1540" />
              <mxPoint x="-2579" y="1540" />
            </Array>
          </mxGeometry>
        </mxCell>
        <mxCell id="tZxPBEaTgiXIeaM5_bRS-141" value="in mang arr[]" style="shape=parallelogram;perimeter=parallelogramPerimeter;whiteSpace=wrap;html=1;fixedSize=1;" vertex="1" parent="1">
          <mxGeometry x="-2640" y="1450" width="120" height="60" as="geometry" />
        </mxCell>
        <mxCell id="tZxPBEaTgiXIeaM5_bRS-142" value="false" style="text;html=1;align=center;verticalAlign=middle;resizable=0;points=[];autosize=1;strokeColor=none;fillColor=none;" vertex="1" parent="1">
          <mxGeometry x="-2155" y="808" width="50" height="30" as="geometry" />
        </mxCell>
        <mxCell id="tZxPBEaTgiXIeaM5_bRS-143" value="fa;se" style="text;html=1;align=center;verticalAlign=middle;resizable=0;points=[];autosize=1;strokeColor=none;fillColor=none;" vertex="1" parent="1">
          <mxGeometry x="-1275" y="808" width="50" height="30" as="geometry" />
        </mxCell>
        <mxCell id="tZxPBEaTgiXIeaM5_bRS-144" value="false" style="text;html=1;align=center;verticalAlign=middle;resizable=0;points=[];autosize=1;strokeColor=none;fillColor=none;" vertex="1" parent="1">
          <mxGeometry x="-895" y="808" width="50" height="30" as="geometry" />
        </mxCell>
        <mxCell id="tZxPBEaTgiXIeaM5_bRS-145" style="edgeStyle=orthogonalEdgeStyle;rounded=0;orthogonalLoop=1;jettySize=auto;html=1;exitX=0.5;exitY=1;exitDx=0;exitDy=0;entryX=0.5;entryY=0;entryDx=0;entryDy=0;" edge="1" parent="1" source="tZxPBEaTgiXIeaM5_bRS-147" target="tZxPBEaTgiXIeaM5_bRS-149">
          <mxGeometry relative="1" as="geometry" />
        </mxCell>
        <mxCell id="tZxPBEaTgiXIeaM5_bRS-146" style="edgeStyle=orthogonalEdgeStyle;rounded=0;orthogonalLoop=1;jettySize=auto;html=1;exitX=0;exitY=0.5;exitDx=0;exitDy=0;" edge="1" parent="1" source="tZxPBEaTgiXIeaM5_bRS-147">
          <mxGeometry relative="1" as="geometry">
            <mxPoint x="-1220" y="238.25" as="targetPoint" />
          </mxGeometry>
        </mxCell>
        <mxCell id="tZxPBEaTgiXIeaM5_bRS-147" value="choice==5?" style="rhombus;whiteSpace=wrap;html=1;" vertex="1" parent="1">
          <mxGeometry x="-1020" y="198" width="80" height="80" as="geometry" />
        </mxCell>
        <mxCell id="tZxPBEaTgiXIeaM5_bRS-148" style="edgeStyle=orthogonalEdgeStyle;rounded=0;orthogonalLoop=1;jettySize=auto;html=1;exitX=0.5;exitY=1;exitDx=0;exitDy=0;entryX=0.5;entryY=0;entryDx=0;entryDy=0;" edge="1" parent="1" source="tZxPBEaTgiXIeaM5_bRS-149" target="tZxPBEaTgiXIeaM5_bRS-151">
          <mxGeometry relative="1" as="geometry" />
        </mxCell>
        <mxCell id="tZxPBEaTgiXIeaM5_bRS-149" value="reverseArr(arr,currentIndex)" style="rounded=0;whiteSpace=wrap;html=1;" vertex="1" parent="1">
          <mxGeometry x="-1070" y="328" width="180" height="60" as="geometry" />
        </mxCell>
        <mxCell id="tZxPBEaTgiXIeaM5_bRS-150" style="edgeStyle=orthogonalEdgeStyle;rounded=0;orthogonalLoop=1;jettySize=auto;html=1;exitX=0.5;exitY=1;exitDx=0;exitDy=0;" edge="1" parent="1" source="tZxPBEaTgiXIeaM5_bRS-151">
          <mxGeometry relative="1" as="geometry">
            <mxPoint x="-2720" y="630" as="targetPoint" />
            <Array as="points">
              <mxPoint x="-980" y="630" />
            </Array>
          </mxGeometry>
        </mxCell>
        <mxCell id="tZxPBEaTgiXIeaM5_bRS-151" value="mang arr[] dao nguoc" style="shape=parallelogram;perimeter=parallelogramPerimeter;whiteSpace=wrap;html=1;fixedSize=1;" vertex="1" parent="1">
          <mxGeometry x="-1040" y="430" width="120" height="60" as="geometry" />
        </mxCell>
        <mxCell id="tZxPBEaTgiXIeaM5_bRS-152" style="edgeStyle=orthogonalEdgeStyle;rounded=0;orthogonalLoop=1;jettySize=auto;html=1;exitX=0.5;exitY=1;exitDx=0;exitDy=0;" edge="1" parent="1" source="tZxPBEaTgiXIeaM5_bRS-154">
          <mxGeometry relative="1" as="geometry">
            <mxPoint x="-1260.5" y="300" as="targetPoint" />
          </mxGeometry>
        </mxCell>
        <mxCell id="tZxPBEaTgiXIeaM5_bRS-153" style="edgeStyle=orthogonalEdgeStyle;rounded=0;orthogonalLoop=1;jettySize=auto;html=1;exitX=0;exitY=0.5;exitDx=0;exitDy=0;" edge="1" parent="1" source="tZxPBEaTgiXIeaM5_bRS-154">
          <mxGeometry relative="1" as="geometry">
            <mxPoint x="-1430" y="238.25" as="targetPoint" />
          </mxGeometry>
        </mxCell>
        <mxCell id="tZxPBEaTgiXIeaM5_bRS-154" value="choice==6?" style="rhombus;whiteSpace=wrap;html=1;" vertex="1" parent="1">
          <mxGeometry x="-1300" y="198" width="80" height="80" as="geometry" />
        </mxCell>
        <mxCell id="tZxPBEaTgiXIeaM5_bRS-155" style="edgeStyle=orthogonalEdgeStyle;rounded=0;orthogonalLoop=1;jettySize=auto;html=1;exitX=0.5;exitY=1;exitDx=0;exitDy=0;entryX=0.5;entryY=0;entryDx=0;entryDy=0;" edge="1" parent="1" source="tZxPBEaTgiXIeaM5_bRS-156" target="tZxPBEaTgiXIeaM5_bRS-158">
          <mxGeometry relative="1" as="geometry" />
        </mxCell>
        <mxCell id="tZxPBEaTgiXIeaM5_bRS-156" value="findValue" style="shape=parallelogram;perimeter=parallelogramPerimeter;whiteSpace=wrap;html=1;fixedSize=1;" vertex="1" parent="1">
          <mxGeometry x="-1330" y="303" width="120" height="60" as="geometry" />
        </mxCell>
        <mxCell id="tZxPBEaTgiXIeaM5_bRS-157" style="edgeStyle=orthogonalEdgeStyle;rounded=0;orthogonalLoop=1;jettySize=auto;html=1;exitX=0.5;exitY=1;exitDx=0;exitDy=0;" edge="1" parent="1" source="tZxPBEaTgiXIeaM5_bRS-158">
          <mxGeometry relative="1" as="geometry">
            <mxPoint x="-1270.5" y="500" as="targetPoint" />
          </mxGeometry>
        </mxCell>
        <mxCell id="tZxPBEaTgiXIeaM5_bRS-158" value="searchValue(arr,currentIndex,findValue)" style="rounded=0;whiteSpace=wrap;html=1;" vertex="1" parent="1">
          <mxGeometry x="-1330" y="400" width="120" height="60" as="geometry" />
        </mxCell>
        <mxCell id="tZxPBEaTgiXIeaM5_bRS-159" style="edgeStyle=orthogonalEdgeStyle;rounded=0;orthogonalLoop=1;jettySize=auto;html=1;exitX=0;exitY=0.5;exitDx=0;exitDy=0;" edge="1" parent="1" source="tZxPBEaTgiXIeaM5_bRS-160">
          <mxGeometry relative="1" as="geometry">
            <mxPoint x="-2737.1110026041665" y="530.7777777777778" as="targetPoint" />
          </mxGeometry>
        </mxCell>
        <mxCell id="tZxPBEaTgiXIeaM5_bRS-160" value="vi tri phan tu trong mang ( i )" style="shape=parallelogram;perimeter=parallelogramPerimeter;whiteSpace=wrap;html=1;fixedSize=1;" vertex="1" parent="1">
          <mxGeometry x="-1330" y="500" width="120" height="60" as="geometry" />
        </mxCell>
        <mxCell id="tZxPBEaTgiXIeaM5_bRS-161" style="edgeStyle=orthogonalEdgeStyle;rounded=0;orthogonalLoop=1;jettySize=auto;html=1;exitX=0.5;exitY=0;exitDx=0;exitDy=0;" edge="1" parent="1" source="tZxPBEaTgiXIeaM5_bRS-163">
          <mxGeometry relative="1" as="geometry">
            <mxPoint x="-1470.5" y="100.00000000000011" as="targetPoint" />
          </mxGeometry>
        </mxCell>
        <mxCell id="tZxPBEaTgiXIeaM5_bRS-162" style="edgeStyle=orthogonalEdgeStyle;rounded=0;orthogonalLoop=1;jettySize=auto;html=1;exitX=0;exitY=0.5;exitDx=0;exitDy=0;" edge="1" parent="1" source="tZxPBEaTgiXIeaM5_bRS-163">
          <mxGeometry relative="1" as="geometry">
            <mxPoint x="-1620" y="239.5" as="targetPoint" />
          </mxGeometry>
        </mxCell>
        <mxCell id="tZxPBEaTgiXIeaM5_bRS-163" value="choice==7?" style="rhombus;whiteSpace=wrap;html=1;" vertex="1" parent="1">
          <mxGeometry x="-1510" y="200" width="80" height="80" as="geometry" />
        </mxCell>
        <mxCell id="tZxPBEaTgiXIeaM5_bRS-164" value="end" style="ellipse;whiteSpace=wrap;html=1;" vertex="1" parent="1">
          <mxGeometry x="-1530" y="20" width="120" height="80" as="geometry" />
        </mxCell>
        <mxCell id="tZxPBEaTgiXIeaM5_bRS-165" style="edgeStyle=orthogonalEdgeStyle;rounded=0;orthogonalLoop=1;jettySize=auto;html=1;exitX=0.5;exitY=1;exitDx=0;exitDy=0;entryX=0.5;entryY=0;entryDx=0;entryDy=0;" edge="1" parent="1" source="tZxPBEaTgiXIeaM5_bRS-166" target="tZxPBEaTgiXIeaM5_bRS-168">
          <mxGeometry relative="1" as="geometry" />
        </mxCell>
        <mxCell id="tZxPBEaTgiXIeaM5_bRS-166" value="default?" style="rhombus;whiteSpace=wrap;html=1;" vertex="1" parent="1">
          <mxGeometry x="-1700" y="200" width="80" height="80" as="geometry" />
        </mxCell>
        <mxCell id="tZxPBEaTgiXIeaM5_bRS-167" style="edgeStyle=orthogonalEdgeStyle;rounded=0;orthogonalLoop=1;jettySize=auto;html=1;exitX=0;exitY=0.5;exitDx=0;exitDy=0;" edge="1" parent="1" source="tZxPBEaTgiXIeaM5_bRS-168">
          <mxGeometry relative="1" as="geometry">
            <mxPoint x="-2730" y="830" as="targetPoint" />
          </mxGeometry>
        </mxCell>
        <mxCell id="tZxPBEaTgiXIeaM5_bRS-168" value="nhap lai" style="shape=parallelogram;perimeter=parallelogramPerimeter;whiteSpace=wrap;html=1;fixedSize=1;" vertex="1" parent="1">
          <mxGeometry x="-1720" y="318" width="120" height="60" as="geometry" />
        </mxCell>
      </root>
    </mxGraphModel>
  </diagram>
  <diagram id="5-pYtEO6fG0TLw0rbBsD" name="bai5">
    <mxGraphModel dx="746" dy="505" grid="1" gridSize="10" guides="1" tooltips="1" connect="1" arrows="1" fold="1" page="1" pageScale="1" pageWidth="850" pageHeight="1100" math="0" shadow="0">
      <root>
        <mxCell id="0" />
        <mxCell id="1" parent="0" />
        <mxCell id="Tq1ACEqBMeTqJ6a9tuKD-1" style="edgeStyle=orthogonalEdgeStyle;rounded=0;orthogonalLoop=1;jettySize=auto;html=1;exitX=0.5;exitY=1;exitDx=0;exitDy=0;" edge="1" parent="1" source="Tq1ACEqBMeTqJ6a9tuKD-2">
          <mxGeometry relative="1" as="geometry">
            <mxPoint x="280" y="190" as="targetPoint" />
          </mxGeometry>
        </mxCell>
        <mxCell id="Tq1ACEqBMeTqJ6a9tuKD-2" value="start" style="ellipse;whiteSpace=wrap;html=1;" vertex="1" parent="1">
          <mxGeometry x="220" y="50" width="120" height="80" as="geometry" />
        </mxCell>
        <mxCell id="Tq1ACEqBMeTqJ6a9tuKD-3" style="edgeStyle=orthogonalEdgeStyle;rounded=0;orthogonalLoop=1;jettySize=auto;html=1;exitX=0.5;exitY=1;exitDx=0;exitDy=0;entryX=0.5;entryY=0;entryDx=0;entryDy=0;" edge="1" parent="1" source="Tq1ACEqBMeTqJ6a9tuKD-4" target="Tq1ACEqBMeTqJ6a9tuKD-6">
          <mxGeometry relative="1" as="geometry" />
        </mxCell>
        <mxCell id="Tq1ACEqBMeTqJ6a9tuKD-4" value="arrangeArr(int *n)" style="rounded=0;whiteSpace=wrap;html=1;" vertex="1" parent="1">
          <mxGeometry x="640" y="60" width="120" height="60" as="geometry" />
        </mxCell>
        <mxCell id="Tq1ACEqBMeTqJ6a9tuKD-5" style="edgeStyle=orthogonalEdgeStyle;rounded=0;orthogonalLoop=1;jettySize=auto;html=1;exitX=0.5;exitY=1;exitDx=0;exitDy=0;entryX=0.5;entryY=0;entryDx=0;entryDy=0;" edge="1" parent="1" source="Tq1ACEqBMeTqJ6a9tuKD-6" target="Tq1ACEqBMeTqJ6a9tuKD-9">
          <mxGeometry relative="1" as="geometry" />
        </mxCell>
        <mxCell id="Tq1ACEqBMeTqJ6a9tuKD-6" value="a = *n&lt;br&gt;a = i&lt;br&gt;a = j&lt;br&gt;a = temp&lt;br&gt;arr[a]&lt;br&gt;" style="rounded=0;whiteSpace=wrap;html=1;" vertex="1" parent="1">
          <mxGeometry x="640" y="170" width="120" height="80" as="geometry" />
        </mxCell>
        <mxCell id="Tq1ACEqBMeTqJ6a9tuKD-7" style="edgeStyle=orthogonalEdgeStyle;rounded=0;orthogonalLoop=1;jettySize=auto;html=1;exitX=0.5;exitY=1;exitDx=0;exitDy=0;entryX=0.5;entryY=0;entryDx=0;entryDy=0;" edge="1" parent="1" source="Tq1ACEqBMeTqJ6a9tuKD-9" target="Tq1ACEqBMeTqJ6a9tuKD-11">
          <mxGeometry relative="1" as="geometry" />
        </mxCell>
        <mxCell id="Tq1ACEqBMeTqJ6a9tuKD-8" style="edgeStyle=orthogonalEdgeStyle;rounded=0;orthogonalLoop=1;jettySize=auto;html=1;exitX=1;exitY=0.5;exitDx=0;exitDy=0;" edge="1" parent="1" source="Tq1ACEqBMeTqJ6a9tuKD-9">
          <mxGeometry relative="1" as="geometry">
            <mxPoint x="900" y="330" as="targetPoint" />
          </mxGeometry>
        </mxCell>
        <mxCell id="Tq1ACEqBMeTqJ6a9tuKD-9" value="i&amp;lt;a?" style="rhombus;whiteSpace=wrap;html=1;" vertex="1" parent="1">
          <mxGeometry x="660" y="290" width="80" height="80" as="geometry" />
        </mxCell>
        <mxCell id="Tq1ACEqBMeTqJ6a9tuKD-10" style="edgeStyle=orthogonalEdgeStyle;rounded=0;orthogonalLoop=1;jettySize=auto;html=1;exitX=0.5;exitY=1;exitDx=0;exitDy=0;" edge="1" parent="1" source="Tq1ACEqBMeTqJ6a9tuKD-11">
          <mxGeometry relative="1" as="geometry">
            <mxPoint x="700" y="490" as="targetPoint" />
          </mxGeometry>
        </mxCell>
        <mxCell id="Tq1ACEqBMeTqJ6a9tuKD-11" value="nhap vao gia tri phan tu" style="shape=parallelogram;perimeter=parallelogramPerimeter;whiteSpace=wrap;html=1;fixedSize=1;" vertex="1" parent="1">
          <mxGeometry x="640" y="400" width="120" height="60" as="geometry" />
        </mxCell>
        <mxCell id="Tq1ACEqBMeTqJ6a9tuKD-12" style="edgeStyle=orthogonalEdgeStyle;rounded=0;orthogonalLoop=1;jettySize=auto;html=1;exitX=0;exitY=0.5;exitDx=0;exitDy=0;entryX=0;entryY=0.5;entryDx=0;entryDy=0;" edge="1" parent="1" source="Tq1ACEqBMeTqJ6a9tuKD-13" target="Tq1ACEqBMeTqJ6a9tuKD-9">
          <mxGeometry relative="1" as="geometry" />
        </mxCell>
        <mxCell id="Tq1ACEqBMeTqJ6a9tuKD-13" value="i++" style="rounded=0;whiteSpace=wrap;html=1;" vertex="1" parent="1">
          <mxGeometry x="640" y="490" width="120" height="60" as="geometry" />
        </mxCell>
        <mxCell id="Tq1ACEqBMeTqJ6a9tuKD-14" style="edgeStyle=orthogonalEdgeStyle;rounded=0;orthogonalLoop=1;jettySize=auto;html=1;exitX=0.5;exitY=1;exitDx=0;exitDy=0;" edge="1" parent="1" source="Tq1ACEqBMeTqJ6a9tuKD-16" target="Tq1ACEqBMeTqJ6a9tuKD-18">
          <mxGeometry relative="1" as="geometry" />
        </mxCell>
        <mxCell id="Tq1ACEqBMeTqJ6a9tuKD-15" style="edgeStyle=orthogonalEdgeStyle;rounded=0;orthogonalLoop=1;jettySize=auto;html=1;exitX=1;exitY=0.5;exitDx=0;exitDy=0;" edge="1" parent="1" source="Tq1ACEqBMeTqJ6a9tuKD-16">
          <mxGeometry relative="1" as="geometry">
            <mxPoint x="1200" y="330" as="targetPoint" />
          </mxGeometry>
        </mxCell>
        <mxCell id="Tq1ACEqBMeTqJ6a9tuKD-16" value="i&amp;lt;a?" style="rhombus;whiteSpace=wrap;html=1;" vertex="1" parent="1">
          <mxGeometry x="900" y="290" width="80" height="80" as="geometry" />
        </mxCell>
        <mxCell id="Tq1ACEqBMeTqJ6a9tuKD-17" style="edgeStyle=orthogonalEdgeStyle;rounded=0;orthogonalLoop=1;jettySize=auto;html=1;exitX=0.5;exitY=1;exitDx=0;exitDy=0;" edge="1" parent="1" source="Tq1ACEqBMeTqJ6a9tuKD-18">
          <mxGeometry relative="1" as="geometry">
            <mxPoint x="940" y="490" as="targetPoint" />
          </mxGeometry>
        </mxCell>
        <mxCell id="Tq1ACEqBMeTqJ6a9tuKD-18" value="in ra gia tri va chi so phan tu trong mang." style="shape=parallelogram;perimeter=parallelogramPerimeter;whiteSpace=wrap;html=1;fixedSize=1;" vertex="1" parent="1">
          <mxGeometry x="880" y="400" width="120" height="60" as="geometry" />
        </mxCell>
        <mxCell id="Tq1ACEqBMeTqJ6a9tuKD-19" style="edgeStyle=orthogonalEdgeStyle;rounded=0;orthogonalLoop=1;jettySize=auto;html=1;exitX=0;exitY=0.5;exitDx=0;exitDy=0;" edge="1" parent="1" source="Tq1ACEqBMeTqJ6a9tuKD-20">
          <mxGeometry relative="1" as="geometry">
            <mxPoint x="850" y="330" as="targetPoint" />
          </mxGeometry>
        </mxCell>
        <mxCell id="Tq1ACEqBMeTqJ6a9tuKD-20" value="i++" style="rounded=0;whiteSpace=wrap;html=1;" vertex="1" parent="1">
          <mxGeometry x="880" y="490" width="120" height="60" as="geometry" />
        </mxCell>
        <mxCell id="Tq1ACEqBMeTqJ6a9tuKD-21" style="edgeStyle=orthogonalEdgeStyle;rounded=0;orthogonalLoop=1;jettySize=auto;html=1;exitX=0.5;exitY=1;exitDx=0;exitDy=0;" edge="1" parent="1" source="Tq1ACEqBMeTqJ6a9tuKD-23" target="Tq1ACEqBMeTqJ6a9tuKD-26">
          <mxGeometry relative="1" as="geometry" />
        </mxCell>
        <mxCell id="Tq1ACEqBMeTqJ6a9tuKD-22" style="edgeStyle=orthogonalEdgeStyle;rounded=0;orthogonalLoop=1;jettySize=auto;html=1;exitX=1;exitY=0.5;exitDx=0;exitDy=0;" edge="1" parent="1" source="Tq1ACEqBMeTqJ6a9tuKD-23">
          <mxGeometry relative="1" as="geometry">
            <mxPoint x="1510.800048828125" y="330" as="targetPoint" />
          </mxGeometry>
        </mxCell>
        <mxCell id="Tq1ACEqBMeTqJ6a9tuKD-23" value="i&amp;lt;a-1?" style="rhombus;whiteSpace=wrap;html=1;" vertex="1" parent="1">
          <mxGeometry x="1201" y="290" width="80" height="80" as="geometry" />
        </mxCell>
        <mxCell id="Tq1ACEqBMeTqJ6a9tuKD-24" style="edgeStyle=orthogonalEdgeStyle;rounded=0;orthogonalLoop=1;jettySize=auto;html=1;exitX=0.5;exitY=1;exitDx=0;exitDy=0;entryX=0.5;entryY=0;entryDx=0;entryDy=0;" edge="1" parent="1" source="Tq1ACEqBMeTqJ6a9tuKD-26" target="Tq1ACEqBMeTqJ6a9tuKD-28">
          <mxGeometry relative="1" as="geometry" />
        </mxCell>
        <mxCell id="Tq1ACEqBMeTqJ6a9tuKD-25" style="edgeStyle=orthogonalEdgeStyle;rounded=0;orthogonalLoop=1;jettySize=auto;html=1;exitX=1;exitY=0.5;exitDx=0;exitDy=0;" edge="1" parent="1" source="Tq1ACEqBMeTqJ6a9tuKD-26">
          <mxGeometry relative="1" as="geometry">
            <mxPoint x="1350" y="460" as="targetPoint" />
          </mxGeometry>
        </mxCell>
        <mxCell id="Tq1ACEqBMeTqJ6a9tuKD-26" value="j&amp;lt;a-i-1?" style="rhombus;whiteSpace=wrap;html=1;" vertex="1" parent="1">
          <mxGeometry x="1201" y="420" width="80" height="80" as="geometry" />
        </mxCell>
        <mxCell id="Tq1ACEqBMeTqJ6a9tuKD-27" style="edgeStyle=orthogonalEdgeStyle;rounded=0;orthogonalLoop=1;jettySize=auto;html=1;exitX=0.5;exitY=1;exitDx=0;exitDy=0;entryX=0.5;entryY=0;entryDx=0;entryDy=0;" edge="1" parent="1" source="Tq1ACEqBMeTqJ6a9tuKD-28" target="Tq1ACEqBMeTqJ6a9tuKD-30">
          <mxGeometry relative="1" as="geometry" />
        </mxCell>
        <mxCell id="Tq1ACEqBMeTqJ6a9tuKD-28" value="arr[j] &amp;gt; arr[j+1]?" style="rhombus;whiteSpace=wrap;html=1;" vertex="1" parent="1">
          <mxGeometry x="1201" y="545" width="80" height="80" as="geometry" />
        </mxCell>
        <mxCell id="Tq1ACEqBMeTqJ6a9tuKD-29" style="edgeStyle=orthogonalEdgeStyle;rounded=0;orthogonalLoop=1;jettySize=auto;html=1;exitX=0.5;exitY=1;exitDx=0;exitDy=0;" edge="1" parent="1" source="Tq1ACEqBMeTqJ6a9tuKD-30">
          <mxGeometry relative="1" as="geometry">
            <mxPoint x="1241" y="740" as="targetPoint" />
          </mxGeometry>
        </mxCell>
        <mxCell id="Tq1ACEqBMeTqJ6a9tuKD-30" value="temp = arr[j]&lt;br&gt;arr[j] = arr[j+1]&lt;br&gt;arr[j+1] = temp" style="rounded=0;whiteSpace=wrap;html=1;" vertex="1" parent="1">
          <mxGeometry x="1181" y="650" width="120" height="60" as="geometry" />
        </mxCell>
        <mxCell id="Tq1ACEqBMeTqJ6a9tuKD-31" style="edgeStyle=orthogonalEdgeStyle;rounded=0;orthogonalLoop=1;jettySize=auto;html=1;exitX=0;exitY=0.5;exitDx=0;exitDy=0;entryX=0;entryY=0.5;entryDx=0;entryDy=0;" edge="1" parent="1" source="Tq1ACEqBMeTqJ6a9tuKD-32" target="Tq1ACEqBMeTqJ6a9tuKD-26">
          <mxGeometry relative="1" as="geometry" />
        </mxCell>
        <mxCell id="Tq1ACEqBMeTqJ6a9tuKD-32" value="j++" style="rounded=0;whiteSpace=wrap;html=1;" vertex="1" parent="1">
          <mxGeometry x="1180" y="740" width="120" height="60" as="geometry" />
        </mxCell>
        <mxCell id="Tq1ACEqBMeTqJ6a9tuKD-33" style="edgeStyle=orthogonalEdgeStyle;rounded=0;orthogonalLoop=1;jettySize=auto;html=1;exitX=0.5;exitY=0;exitDx=0;exitDy=0;" edge="1" parent="1" source="Tq1ACEqBMeTqJ6a9tuKD-34">
          <mxGeometry relative="1" as="geometry">
            <mxPoint x="1240" y="400" as="targetPoint" />
            <Array as="points">
              <mxPoint x="1400" y="400" />
            </Array>
          </mxGeometry>
        </mxCell>
        <mxCell id="Tq1ACEqBMeTqJ6a9tuKD-34" value="i++" style="rounded=0;whiteSpace=wrap;html=1;" vertex="1" parent="1">
          <mxGeometry x="1350" y="430" width="120" height="60" as="geometry" />
        </mxCell>
        <mxCell id="Tq1ACEqBMeTqJ6a9tuKD-35" value="gia tri va chi so phan tu sau khi sap xep" style="shape=parallelogram;perimeter=parallelogramPerimeter;whiteSpace=wrap;html=1;fixedSize=1;" vertex="1" parent="1">
          <mxGeometry x="1500" y="300" width="120" height="60" as="geometry" />
        </mxCell>
        <mxCell id="Tq1ACEqBMeTqJ6a9tuKD-36" value="true" style="text;html=1;align=center;verticalAlign=middle;resizable=0;points=[];autosize=1;strokeColor=none;fillColor=none;" vertex="1" parent="1">
          <mxGeometry x="700" y="368" width="40" height="30" as="geometry" />
        </mxCell>
        <mxCell id="Tq1ACEqBMeTqJ6a9tuKD-37" value="false" style="text;html=1;align=center;verticalAlign=middle;resizable=0;points=[];autosize=1;strokeColor=none;fillColor=none;" vertex="1" parent="1">
          <mxGeometry x="775" y="298" width="50" height="30" as="geometry" />
        </mxCell>
        <mxCell id="Tq1ACEqBMeTqJ6a9tuKD-38" value="true" style="text;html=1;align=center;verticalAlign=middle;resizable=0;points=[];autosize=1;strokeColor=none;fillColor=none;" vertex="1" parent="1">
          <mxGeometry x="940" y="358" width="40" height="30" as="geometry" />
        </mxCell>
        <mxCell id="Tq1ACEqBMeTqJ6a9tuKD-39" value="false" style="text;html=1;align=center;verticalAlign=middle;resizable=0;points=[];autosize=1;strokeColor=none;fillColor=none;" vertex="1" parent="1">
          <mxGeometry x="1045" y="298" width="50" height="30" as="geometry" />
        </mxCell>
        <mxCell id="Tq1ACEqBMeTqJ6a9tuKD-40" value="false" style="text;html=1;align=center;verticalAlign=middle;resizable=0;points=[];autosize=1;strokeColor=none;fillColor=none;" vertex="1" parent="1">
          <mxGeometry x="1345" y="298" width="50" height="30" as="geometry" />
        </mxCell>
        <mxCell id="Tq1ACEqBMeTqJ6a9tuKD-41" value="true" style="text;html=1;align=center;verticalAlign=middle;resizable=0;points=[];autosize=1;strokeColor=none;fillColor=none;" vertex="1" parent="1">
          <mxGeometry x="1240" y="368" width="40" height="30" as="geometry" />
        </mxCell>
        <mxCell id="Tq1ACEqBMeTqJ6a9tuKD-42" value="false" style="text;html=1;align=center;verticalAlign=middle;resizable=0;points=[];autosize=1;strokeColor=none;fillColor=none;" vertex="1" parent="1">
          <mxGeometry x="1285" y="438" width="50" height="30" as="geometry" />
        </mxCell>
        <mxCell id="Tq1ACEqBMeTqJ6a9tuKD-43" value="true" style="text;html=1;align=center;verticalAlign=middle;resizable=0;points=[];autosize=1;strokeColor=none;fillColor=none;" vertex="1" parent="1">
          <mxGeometry x="1230" y="508" width="40" height="30" as="geometry" />
        </mxCell>
        <mxCell id="Tq1ACEqBMeTqJ6a9tuKD-44" value="true" style="text;html=1;align=center;verticalAlign=middle;resizable=0;points=[];autosize=1;strokeColor=none;fillColor=none;" vertex="1" parent="1">
          <mxGeometry x="1240" y="608" width="40" height="30" as="geometry" />
        </mxCell>
        <mxCell id="Tq1ACEqBMeTqJ6a9tuKD-45" style="edgeStyle=orthogonalEdgeStyle;rounded=0;orthogonalLoop=1;jettySize=auto;html=1;exitX=0.5;exitY=1;exitDx=0;exitDy=0;entryX=0.5;entryY=0;entryDx=0;entryDy=0;" edge="1" parent="1" source="Tq1ACEqBMeTqJ6a9tuKD-46" target="Tq1ACEqBMeTqJ6a9tuKD-48">
          <mxGeometry relative="1" as="geometry" />
        </mxCell>
        <mxCell id="Tq1ACEqBMeTqJ6a9tuKD-46" value="n" style="shape=parallelogram;perimeter=parallelogramPerimeter;whiteSpace=wrap;html=1;fixedSize=1;" vertex="1" parent="1">
          <mxGeometry x="220" y="190" width="120" height="60" as="geometry" />
        </mxCell>
        <mxCell id="Tq1ACEqBMeTqJ6a9tuKD-47" style="edgeStyle=orthogonalEdgeStyle;rounded=0;orthogonalLoop=1;jettySize=auto;html=1;exitX=0.5;exitY=1;exitDx=0;exitDy=0;" edge="1" parent="1" source="Tq1ACEqBMeTqJ6a9tuKD-48">
          <mxGeometry relative="1" as="geometry">
            <mxPoint x="280" y="400" as="targetPoint" />
          </mxGeometry>
        </mxCell>
        <mxCell id="Tq1ACEqBMeTqJ6a9tuKD-48" value="arrangeArr(&amp;amp;n)" style="rounded=0;whiteSpace=wrap;html=1;" vertex="1" parent="1">
          <mxGeometry x="220" y="298" width="120" height="60" as="geometry" />
        </mxCell>
        <mxCell id="Tq1ACEqBMeTqJ6a9tuKD-49" value="end" style="ellipse;whiteSpace=wrap;html=1;" vertex="1" parent="1">
          <mxGeometry x="220" y="398" width="120" height="80" as="geometry" />
        </mxCell>
      </root>
    </mxGraphModel>
  </diagram>
  <diagram id="q_qAWKboB7rQ00FeguLl" name="bai6">
    <mxGraphModel dx="746" dy="2705" grid="1" gridSize="10" guides="1" tooltips="1" connect="1" arrows="1" fold="1" page="1" pageScale="1" pageWidth="850" pageHeight="1100" math="0" shadow="0">
      <root>
        <mxCell id="0" />
        <mxCell id="1" parent="0" />
        <mxCell id="iCqmGD987BjXMMT1qT0J-1" value="" style="edgeStyle=orthogonalEdgeStyle;rounded=0;orthogonalLoop=1;jettySize=auto;html=1;" edge="1" parent="1" source="iCqmGD987BjXMMT1qT0J-2" target="iCqmGD987BjXMMT1qT0J-29">
          <mxGeometry relative="1" as="geometry" />
        </mxCell>
        <mxCell id="iCqmGD987BjXMMT1qT0J-2" value="start" style="ellipse;whiteSpace=wrap;html=1;" vertex="1" parent="1">
          <mxGeometry x="354" y="20" width="120" height="80" as="geometry" />
        </mxCell>
        <mxCell id="iCqmGD987BjXMMT1qT0J-3" value="" style="edgeStyle=orthogonalEdgeStyle;rounded=0;orthogonalLoop=1;jettySize=auto;html=1;" edge="1" parent="1" source="iCqmGD987BjXMMT1qT0J-4" target="iCqmGD987BjXMMT1qT0J-8">
          <mxGeometry relative="1" as="geometry" />
        </mxCell>
        <mxCell id="iCqmGD987BjXMMT1qT0J-4" value="increasea(int a[],int n)" style="ellipse;whiteSpace=wrap;html=1;" vertex="1" parent="1">
          <mxGeometry x="500" y="-280" width="120" height="80" as="geometry" />
        </mxCell>
        <mxCell id="iCqmGD987BjXMMT1qT0J-5" style="edgeStyle=orthogonalEdgeStyle;rounded=0;orthogonalLoop=1;jettySize=auto;html=1;entryX=0;entryY=0.75;entryDx=0;entryDy=0;" edge="1" parent="1" source="iCqmGD987BjXMMT1qT0J-6" target="iCqmGD987BjXMMT1qT0J-31">
          <mxGeometry relative="1" as="geometry" />
        </mxCell>
        <mxCell id="iCqmGD987BjXMMT1qT0J-6" value="&#xa;&lt;div style=&quot;color: rgb(212, 212, 212); background-color: rgb(30, 30, 30); font-family: Consolas, &amp;quot;Courier New&amp;quot;, monospace; font-weight: normal; font-size: 14px; line-height: 19px;&quot;&gt;&lt;div&gt;&lt;span style=&quot;color: #d4d4d4;&quot;&gt;&amp;nbsp;&lt;/span&gt;&lt;span style=&quot;color: #c8c8c8;&quot;&gt;decrease&lt;/span&gt;&lt;span style=&quot;color: #d4d4d4;&quot;&gt;(&lt;/span&gt;&lt;span style=&quot;color: #569cd6;&quot;&gt;int&lt;/span&gt;&lt;span style=&quot;color: #d4d4d4;&quot;&gt; &lt;/span&gt;&lt;span style=&quot;color: #7f7f7f;&quot;&gt;a&lt;/span&gt;&lt;span style=&quot;color: #569cd6;&quot;&gt;[]&lt;/span&gt;&lt;span style=&quot;color: #d4d4d4;&quot;&gt;, &lt;/span&gt;&lt;span style=&quot;color: #569cd6;&quot;&gt;int&lt;/span&gt;&lt;span style=&quot;color: #d4d4d4;&quot;&gt; &lt;/span&gt;&lt;span style=&quot;color: #7f7f7f;&quot;&gt;n&lt;/span&gt;&lt;span style=&quot;color: #d4d4d4;&quot;&gt;)&lt;/span&gt;&lt;/div&gt;&lt;/div&gt;&#xa;&#xa;" style="ellipse;whiteSpace=wrap;html=1;" vertex="1" parent="1">
          <mxGeometry x="400" y="-960" width="220" height="90" as="geometry" />
        </mxCell>
        <mxCell id="iCqmGD987BjXMMT1qT0J-7" value="" style="edgeStyle=orthogonalEdgeStyle;rounded=0;orthogonalLoop=1;jettySize=auto;html=1;" edge="1" parent="1" source="iCqmGD987BjXMMT1qT0J-8" target="iCqmGD987BjXMMT1qT0J-21">
          <mxGeometry relative="1" as="geometry">
            <mxPoint x="910" y="-240" as="targetPoint" />
          </mxGeometry>
        </mxCell>
        <mxCell id="iCqmGD987BjXMMT1qT0J-8" value="int i=0,j=0;" style="whiteSpace=wrap;html=1;" vertex="1" parent="1">
          <mxGeometry x="700" y="-270" width="120" height="60" as="geometry" />
        </mxCell>
        <mxCell id="iCqmGD987BjXMMT1qT0J-9" value="" style="edgeStyle=orthogonalEdgeStyle;rounded=0;orthogonalLoop=1;jettySize=auto;html=1;" edge="1" parent="1" source="iCqmGD987BjXMMT1qT0J-13" target="iCqmGD987BjXMMT1qT0J-15">
          <mxGeometry relative="1" as="geometry" />
        </mxCell>
        <mxCell id="iCqmGD987BjXMMT1qT0J-10" value="true" style="edgeLabel;html=1;align=center;verticalAlign=middle;resizable=0;points=[];" vertex="1" connectable="0" parent="iCqmGD987BjXMMT1qT0J-9">
          <mxGeometry y="-2" relative="1" as="geometry">
            <mxPoint as="offset" />
          </mxGeometry>
        </mxCell>
        <mxCell id="iCqmGD987BjXMMT1qT0J-11" value="" style="edgeStyle=orthogonalEdgeStyle;rounded=0;orthogonalLoop=1;jettySize=auto;html=1;" edge="1" parent="1" source="iCqmGD987BjXMMT1qT0J-13" target="iCqmGD987BjXMMT1qT0J-17">
          <mxGeometry relative="1" as="geometry" />
        </mxCell>
        <mxCell id="iCqmGD987BjXMMT1qT0J-12" value="false" style="edgeLabel;html=1;align=center;verticalAlign=middle;resizable=0;points=[];" vertex="1" connectable="0" parent="iCqmGD987BjXMMT1qT0J-11">
          <mxGeometry x="0.0222" relative="1" as="geometry">
            <mxPoint as="offset" />
          </mxGeometry>
        </mxCell>
        <mxCell id="iCqmGD987BjXMMT1qT0J-13" value="&#xa;&lt;div style=&quot;color: rgb(212, 212, 212); background-color: rgb(30, 30, 30); font-family: Consolas, &amp;quot;Courier New&amp;quot;, monospace; font-weight: normal; font-size: 14px; line-height: 19px;&quot;&gt;&lt;div&gt;&lt;span style=&quot;color: #7f7f7f;&quot;&gt;a&lt;/span&gt;&lt;span style=&quot;color: #d4d4d4;&quot;&gt;[&lt;/span&gt;&lt;span style=&quot;color: #c8c8c8;&quot;&gt;j&lt;/span&gt;&lt;span style=&quot;color: #d4d4d4;&quot;&gt;] &amp;lt; &lt;/span&gt;&lt;span style=&quot;color: #7f7f7f;&quot;&gt;a&lt;/span&gt;&lt;span style=&quot;color: #d4d4d4;&quot;&gt;[&lt;/span&gt;&lt;span style=&quot;color: #c8c8c8;&quot;&gt;j&lt;/span&gt;&lt;span style=&quot;color: #d4d4d4;&quot;&gt; + &lt;/span&gt;&lt;span style=&quot;color: #b5cea8;&quot;&gt;1&lt;/span&gt;&lt;/div&gt;&lt;/div&gt;&#xa;&#xa;" style="rhombus;whiteSpace=wrap;html=1;" vertex="1" parent="1">
          <mxGeometry x="1260" y="-280" width="120" height="80" as="geometry" />
        </mxCell>
        <mxCell id="iCqmGD987BjXMMT1qT0J-14" style="edgeStyle=orthogonalEdgeStyle;rounded=0;orthogonalLoop=1;jettySize=auto;html=1;entryX=1;entryY=0.5;entryDx=0;entryDy=0;" edge="1" parent="1" source="iCqmGD987BjXMMT1qT0J-15" target="iCqmGD987BjXMMT1qT0J-17">
          <mxGeometry relative="1" as="geometry">
            <mxPoint x="1545" y="-50" as="targetPoint" />
            <Array as="points">
              <mxPoint x="1545" y="-130" />
              <mxPoint x="1546" y="-130" />
              <mxPoint x="1546" y="-80" />
            </Array>
          </mxGeometry>
        </mxCell>
        <mxCell id="iCqmGD987BjXMMT1qT0J-15" value="&lt;span style=&quot;background-color: rgb(30, 30, 30); font-family: Consolas, &amp;quot;Courier New&amp;quot;, monospace; font-size: 14px; color: rgb(86, 156, 214);&quot;&gt;int&lt;/span&gt;&lt;span style=&quot;background-color: rgb(30, 30, 30); color: rgb(212, 212, 212); font-family: Consolas, &amp;quot;Courier New&amp;quot;, monospace; font-size: 14px;&quot;&gt; &lt;/span&gt;&lt;span style=&quot;background-color: rgb(30, 30, 30); font-family: Consolas, &amp;quot;Courier New&amp;quot;, monospace; font-size: 14px; color: rgb(200, 200, 200);&quot;&gt;temp&lt;/span&gt;&lt;span style=&quot;background-color: rgb(30, 30, 30); color: rgb(212, 212, 212); font-family: Consolas, &amp;quot;Courier New&amp;quot;, monospace; font-size: 14px;&quot;&gt; = &lt;/span&gt;&lt;span style=&quot;background-color: rgb(30, 30, 30); font-family: Consolas, &amp;quot;Courier New&amp;quot;, monospace; font-size: 14px; color: rgb(127, 127, 127);&quot;&gt;a&lt;/span&gt;&lt;span style=&quot;background-color: rgb(30, 30, 30); color: rgb(212, 212, 212); font-family: Consolas, &amp;quot;Courier New&amp;quot;, monospace; font-size: 14px;&quot;&gt;[&lt;/span&gt;&lt;span style=&quot;background-color: rgb(30, 30, 30); font-family: Consolas, &amp;quot;Courier New&amp;quot;, monospace; font-size: 14px; color: rgb(200, 200, 200);&quot;&gt;j&lt;/span&gt;&lt;span style=&quot;background-color: rgb(30, 30, 30); color: rgb(212, 212, 212); font-family: Consolas, &amp;quot;Courier New&amp;quot;, monospace; font-size: 14px;&quot;&gt;]&lt;br&gt;&lt;/span&gt;&lt;span style=&quot;background-color: rgb(30, 30, 30); color: rgb(212, 212, 212); font-family: Consolas, &amp;quot;Courier New&amp;quot;, monospace; font-size: 14px;&quot;&gt;&amp;nbsp;&lt;/span&gt;&lt;span style=&quot;background-color: rgb(30, 30, 30); font-family: Consolas, &amp;quot;Courier New&amp;quot;, monospace; font-size: 14px; color: rgb(127, 127, 127);&quot;&gt;a&lt;/span&gt;&lt;span style=&quot;background-color: rgb(30, 30, 30); color: rgb(212, 212, 212); font-family: Consolas, &amp;quot;Courier New&amp;quot;, monospace; font-size: 14px;&quot;&gt;[&lt;/span&gt;&lt;span style=&quot;background-color: rgb(30, 30, 30); font-family: Consolas, &amp;quot;Courier New&amp;quot;, monospace; font-size: 14px; color: rgb(200, 200, 200);&quot;&gt;j&lt;/span&gt;&lt;span style=&quot;background-color: rgb(30, 30, 30); color: rgb(212, 212, 212); font-family: Consolas, &amp;quot;Courier New&amp;quot;, monospace; font-size: 14px;&quot;&gt;] = &lt;/span&gt;&lt;span style=&quot;background-color: rgb(30, 30, 30); font-family: Consolas, &amp;quot;Courier New&amp;quot;, monospace; font-size: 14px; color: rgb(127, 127, 127);&quot;&gt;a&lt;/span&gt;&lt;span style=&quot;background-color: rgb(30, 30, 30); color: rgb(212, 212, 212); font-family: Consolas, &amp;quot;Courier New&amp;quot;, monospace; font-size: 14px;&quot;&gt;[&lt;/span&gt;&lt;span style=&quot;background-color: rgb(30, 30, 30); font-family: Consolas, &amp;quot;Courier New&amp;quot;, monospace; font-size: 14px; color: rgb(200, 200, 200);&quot;&gt;j&lt;/span&gt;&lt;span style=&quot;background-color: rgb(30, 30, 30); color: rgb(212, 212, 212); font-family: Consolas, &amp;quot;Courier New&amp;quot;, monospace; font-size: 14px;&quot;&gt; + &lt;/span&gt;&lt;span style=&quot;background-color: rgb(30, 30, 30); font-family: Consolas, &amp;quot;Courier New&amp;quot;, monospace; font-size: 14px; color: rgb(181, 206, 168);&quot;&gt;1&lt;/span&gt;&lt;span style=&quot;background-color: rgb(30, 30, 30); color: rgb(212, 212, 212); font-family: Consolas, &amp;quot;Courier New&amp;quot;, monospace; font-size: 14px;&quot;&gt;]&lt;/span&gt;&lt;span style=&quot;background-color: rgb(30, 30, 30); color: rgb(212, 212, 212); font-family: Consolas, &amp;quot;Courier New&amp;quot;, monospace; font-size: 14px;&quot;&gt;&amp;nbsp;&amp;nbsp;&lt;br&gt;&lt;/span&gt;&lt;span style=&quot;background-color: rgb(30, 30, 30); font-family: Consolas, &amp;quot;Courier New&amp;quot;, monospace; font-size: 14px; color: rgb(127, 127, 127);&quot;&gt;a&lt;/span&gt;&lt;span style=&quot;background-color: rgb(30, 30, 30); color: rgb(212, 212, 212); font-family: Consolas, &amp;quot;Courier New&amp;quot;, monospace; font-size: 14px;&quot;&gt;[&lt;/span&gt;&lt;span style=&quot;background-color: rgb(30, 30, 30); font-family: Consolas, &amp;quot;Courier New&amp;quot;, monospace; font-size: 14px; color: rgb(200, 200, 200);&quot;&gt;j&lt;/span&gt;&lt;span style=&quot;background-color: rgb(30, 30, 30); color: rgb(212, 212, 212); font-family: Consolas, &amp;quot;Courier New&amp;quot;, monospace; font-size: 14px;&quot;&gt; + &lt;/span&gt;&lt;span style=&quot;background-color: rgb(30, 30, 30); font-family: Consolas, &amp;quot;Courier New&amp;quot;, monospace; font-size: 14px; color: rgb(181, 206, 168);&quot;&gt;1&lt;/span&gt;&lt;span style=&quot;background-color: rgb(30, 30, 30); color: rgb(212, 212, 212); font-family: Consolas, &amp;quot;Courier New&amp;quot;, monospace; font-size: 14px;&quot;&gt;] = &lt;/span&gt;&lt;span style=&quot;background-color: rgb(30, 30, 30); font-family: Consolas, &amp;quot;Courier New&amp;quot;, monospace; font-size: 14px; color: rgb(200, 200, 200);&quot;&gt;temp&lt;/span&gt;&lt;span style=&quot;background-color: rgb(30, 30, 30); color: rgb(212, 212, 212); font-family: Consolas, &amp;quot;Courier New&amp;quot;, monospace; font-size: 14px;&quot;&gt;&lt;br&gt;&lt;/span&gt;" style="whiteSpace=wrap;html=1;" vertex="1" parent="1">
          <mxGeometry x="1460" y="-270" width="170" height="60" as="geometry" />
        </mxCell>
        <mxCell id="iCqmGD987BjXMMT1qT0J-16" style="edgeStyle=orthogonalEdgeStyle;rounded=0;orthogonalLoop=1;jettySize=auto;html=1;" edge="1" parent="1" source="iCqmGD987BjXMMT1qT0J-17">
          <mxGeometry relative="1" as="geometry">
            <mxPoint x="1000" y="-240" as="targetPoint" />
          </mxGeometry>
        </mxCell>
        <mxCell id="iCqmGD987BjXMMT1qT0J-17" value="j++" style="whiteSpace=wrap;html=1;" vertex="1" parent="1">
          <mxGeometry x="1260" y="-110" width="120" height="60" as="geometry" />
        </mxCell>
        <mxCell id="iCqmGD987BjXMMT1qT0J-18" value="" style="edgeStyle=orthogonalEdgeStyle;rounded=0;orthogonalLoop=1;jettySize=auto;html=1;" edge="1" parent="1" source="iCqmGD987BjXMMT1qT0J-21" target="iCqmGD987BjXMMT1qT0J-24">
          <mxGeometry relative="1" as="geometry" />
        </mxCell>
        <mxCell id="iCqmGD987BjXMMT1qT0J-19" value="true" style="edgeLabel;html=1;align=center;verticalAlign=middle;resizable=0;points=[];" vertex="1" connectable="0" parent="iCqmGD987BjXMMT1qT0J-18">
          <mxGeometry x="-0.225" relative="1" as="geometry">
            <mxPoint as="offset" />
          </mxGeometry>
        </mxCell>
        <mxCell id="iCqmGD987BjXMMT1qT0J-20" value="" style="edgeStyle=orthogonalEdgeStyle;rounded=0;orthogonalLoop=1;jettySize=auto;html=1;" edge="1" parent="1" source="iCqmGD987BjXMMT1qT0J-21" target="iCqmGD987BjXMMT1qT0J-27">
          <mxGeometry relative="1" as="geometry" />
        </mxCell>
        <mxCell id="iCqmGD987BjXMMT1qT0J-21" value="&#xa;&lt;div style=&quot;color: rgb(212, 212, 212); background-color: rgb(30, 30, 30); font-family: Consolas, &amp;quot;Courier New&amp;quot;, monospace; font-weight: normal; font-size: 14px; line-height: 19px;&quot;&gt;&lt;div&gt;&lt;span style=&quot;color: #c8c8c8;&quot;&gt;i&lt;/span&gt;&lt;span style=&quot;color: #d4d4d4;&quot;&gt; &amp;lt; &lt;/span&gt;&lt;span style=&quot;color: #7f7f7f;&quot;&gt;n&lt;/span&gt;&lt;span style=&quot;color: #d4d4d4;&quot;&gt; - &lt;/span&gt;&lt;span style=&quot;color: #b5cea8;&quot;&gt;1&lt;/span&gt;&lt;/div&gt;&lt;/div&gt;&#xa;&#xa;" style="rhombus;whiteSpace=wrap;html=1;" vertex="1" parent="1">
          <mxGeometry x="870" y="-280" width="80" height="80" as="geometry" />
        </mxCell>
        <mxCell id="iCqmGD987BjXMMT1qT0J-22" value="true" style="edgeStyle=orthogonalEdgeStyle;rounded=0;orthogonalLoop=1;jettySize=auto;html=1;entryX=0;entryY=0.5;entryDx=0;entryDy=0;" edge="1" parent="1" source="iCqmGD987BjXMMT1qT0J-24" target="iCqmGD987BjXMMT1qT0J-13">
          <mxGeometry relative="1" as="geometry" />
        </mxCell>
        <mxCell id="iCqmGD987BjXMMT1qT0J-23" value="false" style="edgeStyle=orthogonalEdgeStyle;rounded=0;orthogonalLoop=1;jettySize=auto;html=1;" edge="1" parent="1" source="iCqmGD987BjXMMT1qT0J-24" target="iCqmGD987BjXMMT1qT0J-26">
          <mxGeometry relative="1" as="geometry" />
        </mxCell>
        <mxCell id="iCqmGD987BjXMMT1qT0J-24" value="&lt;br&gt;&lt;div style=&quot;color: rgb(212, 212, 212); background-color: rgb(30, 30, 30); font-family: Consolas, &amp;quot;Courier New&amp;quot;, monospace; font-weight: normal; font-size: 14px; line-height: 19px;&quot;&gt;&lt;div&gt;&lt;/div&gt;&lt;/div&gt;&lt;div style=&quot;color: rgb(212, 212, 212); background-color: rgb(30, 30, 30); font-family: Consolas, &amp;quot;Courier New&amp;quot;, monospace; font-size: 14px; line-height: 19px;&quot;&gt;&amp;nbsp;j &amp;lt; &lt;span style=&quot;color: #7f7f7f;&quot;&gt;n&lt;/span&gt; - &lt;span style=&quot;color: #c8c8c8;&quot;&gt;i&lt;/span&gt; - &lt;span style=&quot;color: #b5cea8;&quot;&gt;1&lt;/span&gt;&lt;/div&gt;" style="rhombus;whiteSpace=wrap;html=1;" vertex="1" parent="1">
          <mxGeometry x="1030" y="-280" width="130" height="80" as="geometry" />
        </mxCell>
        <mxCell id="iCqmGD987BjXMMT1qT0J-25" style="edgeStyle=orthogonalEdgeStyle;rounded=0;orthogonalLoop=1;jettySize=auto;html=1;" edge="1" parent="1" source="iCqmGD987BjXMMT1qT0J-26">
          <mxGeometry relative="1" as="geometry">
            <mxPoint x="850" y="-240" as="targetPoint" />
          </mxGeometry>
        </mxCell>
        <mxCell id="iCqmGD987BjXMMT1qT0J-26" value="i++" style="whiteSpace=wrap;html=1;" vertex="1" parent="1">
          <mxGeometry x="1035" y="-430" width="120" height="60" as="geometry" />
        </mxCell>
        <mxCell id="iCqmGD987BjXMMT1qT0J-27" value="a[i]" style="shape=parallelogram;perimeter=parallelogramPerimeter;whiteSpace=wrap;html=1;fixedSize=1;" vertex="1" parent="1">
          <mxGeometry x="850" y="110" width="120" height="60" as="geometry" />
        </mxCell>
        <mxCell id="iCqmGD987BjXMMT1qT0J-28" value="" style="edgeStyle=orthogonalEdgeStyle;rounded=0;orthogonalLoop=1;jettySize=auto;html=1;" edge="1" parent="1" source="iCqmGD987BjXMMT1qT0J-29" target="iCqmGD987BjXMMT1qT0J-52">
          <mxGeometry relative="1" as="geometry">
            <mxPoint x="414" y="519.9999999999995" as="targetPoint" />
          </mxGeometry>
        </mxCell>
        <mxCell id="iCqmGD987BjXMMT1qT0J-29" value="&#xa;&lt;div style=&quot;color: rgb(212, 212, 212); background-color: rgb(30, 30, 30); font-family: Consolas, &amp;quot;Courier New&amp;quot;, monospace; font-weight: normal; font-size: 14px; line-height: 19px;&quot;&gt;&lt;div&gt;&lt;span style=&quot;color: #569cd6;&quot;&gt;int&lt;/span&gt;&lt;span style=&quot;color: #d4d4d4;&quot;&gt; &lt;/span&gt;&lt;span style=&quot;color: #c8c8c8;&quot;&gt;n&lt;/span&gt;&lt;span style=&quot;color: #d4d4d4;&quot;&gt;, &lt;/span&gt;&lt;span style=&quot;color: #c8c8c8;&quot;&gt;i&lt;/span&gt;&lt;span style=&quot;color: #d4d4d4;&quot;&gt;, &lt;/span&gt;&lt;span style=&quot;color: #c8c8c8;&quot;&gt;count&lt;/span&gt;&lt;span style=&quot;color: #d4d4d4;&quot;&gt;, &lt;/span&gt;&lt;span style=&quot;color: #c8c8c8;&quot;&gt;choice&lt;/span&gt;&lt;span style=&quot;color: #d4d4d4;&quot;&gt;, &lt;/span&gt;&lt;span style=&quot;color: #c8c8c8;&quot;&gt;a&lt;/span&gt;&lt;span style=&quot;color: #d4d4d4;&quot;&gt;[&lt;/span&gt;&lt;span style=&quot;color: #b5cea8;&quot;&gt;100&lt;/span&gt;&lt;span style=&quot;color: #d4d4d4;&quot;&gt;], &lt;/span&gt;&lt;span style=&quot;color: #c8c8c8;&quot;&gt;current&lt;/span&gt;&lt;span style=&quot;color: #d4d4d4;&quot;&gt; = &lt;/span&gt;&lt;span style=&quot;color: #b5cea8;&quot;&gt;0&lt;/span&gt;&lt;span style=&quot;color: #d4d4d4;&quot;&gt;, &lt;/span&gt;&lt;span style=&quot;color: #c8c8c8;&quot;&gt;countArrange&lt;/span&gt;&lt;span style=&quot;color: #d4d4d4;&quot;&gt; = &lt;/span&gt;&lt;span style=&quot;color: #b5cea8;&quot;&gt;0&lt;/span&gt;&lt;span style=&quot;color: #d4d4d4;&quot;&gt;;&lt;/span&gt;&lt;/div&gt;&lt;/div&gt;&#xa;&#xa;" style="shape=parallelogram;perimeter=parallelogramPerimeter;whiteSpace=wrap;html=1;fixedSize=1;" vertex="1" parent="1">
          <mxGeometry x="254" y="240" width="320" height="160" as="geometry" />
        </mxCell>
        <mxCell id="iCqmGD987BjXMMT1qT0J-30" value="" style="edgeStyle=orthogonalEdgeStyle;rounded=0;orthogonalLoop=1;jettySize=auto;html=1;" edge="1" parent="1" source="iCqmGD987BjXMMT1qT0J-31" target="iCqmGD987BjXMMT1qT0J-44">
          <mxGeometry relative="1" as="geometry">
            <mxPoint x="900" y="-1020" as="targetPoint" />
          </mxGeometry>
        </mxCell>
        <mxCell id="iCqmGD987BjXMMT1qT0J-31" value="int i=0,j=0;" style="whiteSpace=wrap;html=1;" vertex="1" parent="1">
          <mxGeometry x="690" y="-1050" width="120" height="60" as="geometry" />
        </mxCell>
        <mxCell id="iCqmGD987BjXMMT1qT0J-32" value="" style="edgeStyle=orthogonalEdgeStyle;rounded=0;orthogonalLoop=1;jettySize=auto;html=1;" edge="1" parent="1" source="iCqmGD987BjXMMT1qT0J-36" target="iCqmGD987BjXMMT1qT0J-38">
          <mxGeometry relative="1" as="geometry" />
        </mxCell>
        <mxCell id="iCqmGD987BjXMMT1qT0J-33" value="true" style="edgeLabel;html=1;align=center;verticalAlign=middle;resizable=0;points=[];" vertex="1" connectable="0" parent="iCqmGD987BjXMMT1qT0J-32">
          <mxGeometry y="-2" relative="1" as="geometry">
            <mxPoint as="offset" />
          </mxGeometry>
        </mxCell>
        <mxCell id="iCqmGD987BjXMMT1qT0J-34" value="" style="edgeStyle=orthogonalEdgeStyle;rounded=0;orthogonalLoop=1;jettySize=auto;html=1;" edge="1" parent="1" source="iCqmGD987BjXMMT1qT0J-36" target="iCqmGD987BjXMMT1qT0J-40">
          <mxGeometry relative="1" as="geometry" />
        </mxCell>
        <mxCell id="iCqmGD987BjXMMT1qT0J-35" value="false" style="edgeLabel;html=1;align=center;verticalAlign=middle;resizable=0;points=[];" vertex="1" connectable="0" parent="iCqmGD987BjXMMT1qT0J-34">
          <mxGeometry x="0.0222" relative="1" as="geometry">
            <mxPoint as="offset" />
          </mxGeometry>
        </mxCell>
        <mxCell id="iCqmGD987BjXMMT1qT0J-36" value="&lt;br&gt;&lt;div style=&quot;color: rgb(212, 212, 212); background-color: rgb(30, 30, 30); font-family: Consolas, &amp;quot;Courier New&amp;quot;, monospace; font-weight: normal; font-size: 14px; line-height: 19px;&quot;&gt;&lt;div&gt;&lt;span style=&quot;color: #7f7f7f;&quot;&gt;a&lt;/span&gt;&lt;span style=&quot;color: #d4d4d4;&quot;&gt;[&lt;/span&gt;&lt;span style=&quot;color: #c8c8c8;&quot;&gt;j&lt;/span&gt;&lt;span style=&quot;color: #d4d4d4;&quot;&gt;] &amp;gt;&amp;nbsp;&lt;/span&gt;&lt;span style=&quot;color: #7f7f7f;&quot;&gt;a&lt;/span&gt;&lt;span style=&quot;color: #d4d4d4;&quot;&gt;[&lt;/span&gt;&lt;span style=&quot;color: #c8c8c8;&quot;&gt;j&lt;/span&gt;&lt;span style=&quot;color: #d4d4d4;&quot;&gt; + &lt;/span&gt;&lt;span style=&quot;color: #b5cea8;&quot;&gt;1&lt;/span&gt;&lt;/div&gt;&lt;/div&gt;&lt;br&gt;" style="rhombus;whiteSpace=wrap;html=1;" vertex="1" parent="1">
          <mxGeometry x="1250" y="-1060" width="120" height="80" as="geometry" />
        </mxCell>
        <mxCell id="iCqmGD987BjXMMT1qT0J-37" style="edgeStyle=orthogonalEdgeStyle;rounded=0;orthogonalLoop=1;jettySize=auto;html=1;entryX=1;entryY=0.5;entryDx=0;entryDy=0;" edge="1" parent="1" source="iCqmGD987BjXMMT1qT0J-38" target="iCqmGD987BjXMMT1qT0J-40">
          <mxGeometry relative="1" as="geometry">
            <mxPoint x="1535" y="-830" as="targetPoint" />
            <Array as="points">
              <mxPoint x="1535" y="-910" />
              <mxPoint x="1536" y="-910" />
              <mxPoint x="1536" y="-860" />
            </Array>
          </mxGeometry>
        </mxCell>
        <mxCell id="iCqmGD987BjXMMT1qT0J-38" value="&lt;span style=&quot;background-color: rgb(30, 30, 30); font-family: Consolas, &amp;quot;Courier New&amp;quot;, monospace; font-size: 14px; color: rgb(86, 156, 214);&quot;&gt;int&lt;/span&gt;&lt;span style=&quot;background-color: rgb(30, 30, 30); color: rgb(212, 212, 212); font-family: Consolas, &amp;quot;Courier New&amp;quot;, monospace; font-size: 14px;&quot;&gt; &lt;/span&gt;&lt;span style=&quot;background-color: rgb(30, 30, 30); font-family: Consolas, &amp;quot;Courier New&amp;quot;, monospace; font-size: 14px; color: rgb(200, 200, 200);&quot;&gt;temp&lt;/span&gt;&lt;span style=&quot;background-color: rgb(30, 30, 30); color: rgb(212, 212, 212); font-family: Consolas, &amp;quot;Courier New&amp;quot;, monospace; font-size: 14px;&quot;&gt; = &lt;/span&gt;&lt;span style=&quot;background-color: rgb(30, 30, 30); font-family: Consolas, &amp;quot;Courier New&amp;quot;, monospace; font-size: 14px; color: rgb(127, 127, 127);&quot;&gt;a&lt;/span&gt;&lt;span style=&quot;background-color: rgb(30, 30, 30); color: rgb(212, 212, 212); font-family: Consolas, &amp;quot;Courier New&amp;quot;, monospace; font-size: 14px;&quot;&gt;[&lt;/span&gt;&lt;span style=&quot;background-color: rgb(30, 30, 30); font-family: Consolas, &amp;quot;Courier New&amp;quot;, monospace; font-size: 14px; color: rgb(200, 200, 200);&quot;&gt;j&lt;/span&gt;&lt;span style=&quot;background-color: rgb(30, 30, 30); color: rgb(212, 212, 212); font-family: Consolas, &amp;quot;Courier New&amp;quot;, monospace; font-size: 14px;&quot;&gt;]&lt;br&gt;&lt;/span&gt;&lt;span style=&quot;background-color: rgb(30, 30, 30); color: rgb(212, 212, 212); font-family: Consolas, &amp;quot;Courier New&amp;quot;, monospace; font-size: 14px;&quot;&gt;&amp;nbsp;&lt;/span&gt;&lt;span style=&quot;background-color: rgb(30, 30, 30); font-family: Consolas, &amp;quot;Courier New&amp;quot;, monospace; font-size: 14px; color: rgb(127, 127, 127);&quot;&gt;a&lt;/span&gt;&lt;span style=&quot;background-color: rgb(30, 30, 30); color: rgb(212, 212, 212); font-family: Consolas, &amp;quot;Courier New&amp;quot;, monospace; font-size: 14px;&quot;&gt;[&lt;/span&gt;&lt;span style=&quot;background-color: rgb(30, 30, 30); font-family: Consolas, &amp;quot;Courier New&amp;quot;, monospace; font-size: 14px; color: rgb(200, 200, 200);&quot;&gt;j&lt;/span&gt;&lt;span style=&quot;background-color: rgb(30, 30, 30); color: rgb(212, 212, 212); font-family: Consolas, &amp;quot;Courier New&amp;quot;, monospace; font-size: 14px;&quot;&gt;] = &lt;/span&gt;&lt;span style=&quot;background-color: rgb(30, 30, 30); font-family: Consolas, &amp;quot;Courier New&amp;quot;, monospace; font-size: 14px; color: rgb(127, 127, 127);&quot;&gt;a&lt;/span&gt;&lt;span style=&quot;background-color: rgb(30, 30, 30); color: rgb(212, 212, 212); font-family: Consolas, &amp;quot;Courier New&amp;quot;, monospace; font-size: 14px;&quot;&gt;[&lt;/span&gt;&lt;span style=&quot;background-color: rgb(30, 30, 30); font-family: Consolas, &amp;quot;Courier New&amp;quot;, monospace; font-size: 14px; color: rgb(200, 200, 200);&quot;&gt;j&lt;/span&gt;&lt;span style=&quot;background-color: rgb(30, 30, 30); color: rgb(212, 212, 212); font-family: Consolas, &amp;quot;Courier New&amp;quot;, monospace; font-size: 14px;&quot;&gt; + &lt;/span&gt;&lt;span style=&quot;background-color: rgb(30, 30, 30); font-family: Consolas, &amp;quot;Courier New&amp;quot;, monospace; font-size: 14px; color: rgb(181, 206, 168);&quot;&gt;1&lt;/span&gt;&lt;span style=&quot;background-color: rgb(30, 30, 30); color: rgb(212, 212, 212); font-family: Consolas, &amp;quot;Courier New&amp;quot;, monospace; font-size: 14px;&quot;&gt;]&lt;/span&gt;&lt;span style=&quot;background-color: rgb(30, 30, 30); color: rgb(212, 212, 212); font-family: Consolas, &amp;quot;Courier New&amp;quot;, monospace; font-size: 14px;&quot;&gt;&amp;nbsp;&amp;nbsp;&lt;br&gt;&lt;/span&gt;&lt;span style=&quot;background-color: rgb(30, 30, 30); font-family: Consolas, &amp;quot;Courier New&amp;quot;, monospace; font-size: 14px; color: rgb(127, 127, 127);&quot;&gt;a&lt;/span&gt;&lt;span style=&quot;background-color: rgb(30, 30, 30); color: rgb(212, 212, 212); font-family: Consolas, &amp;quot;Courier New&amp;quot;, monospace; font-size: 14px;&quot;&gt;[&lt;/span&gt;&lt;span style=&quot;background-color: rgb(30, 30, 30); font-family: Consolas, &amp;quot;Courier New&amp;quot;, monospace; font-size: 14px; color: rgb(200, 200, 200);&quot;&gt;j&lt;/span&gt;&lt;span style=&quot;background-color: rgb(30, 30, 30); color: rgb(212, 212, 212); font-family: Consolas, &amp;quot;Courier New&amp;quot;, monospace; font-size: 14px;&quot;&gt; + &lt;/span&gt;&lt;span style=&quot;background-color: rgb(30, 30, 30); font-family: Consolas, &amp;quot;Courier New&amp;quot;, monospace; font-size: 14px; color: rgb(181, 206, 168);&quot;&gt;1&lt;/span&gt;&lt;span style=&quot;background-color: rgb(30, 30, 30); color: rgb(212, 212, 212); font-family: Consolas, &amp;quot;Courier New&amp;quot;, monospace; font-size: 14px;&quot;&gt;] = &lt;/span&gt;&lt;span style=&quot;background-color: rgb(30, 30, 30); font-family: Consolas, &amp;quot;Courier New&amp;quot;, monospace; font-size: 14px; color: rgb(200, 200, 200);&quot;&gt;temp&lt;/span&gt;&lt;span style=&quot;background-color: rgb(30, 30, 30); color: rgb(212, 212, 212); font-family: Consolas, &amp;quot;Courier New&amp;quot;, monospace; font-size: 14px;&quot;&gt;&lt;br&gt;&lt;/span&gt;" style="whiteSpace=wrap;html=1;" vertex="1" parent="1">
          <mxGeometry x="1450" y="-1050" width="170" height="60" as="geometry" />
        </mxCell>
        <mxCell id="iCqmGD987BjXMMT1qT0J-39" style="edgeStyle=orthogonalEdgeStyle;rounded=0;orthogonalLoop=1;jettySize=auto;html=1;" edge="1" parent="1" source="iCqmGD987BjXMMT1qT0J-40">
          <mxGeometry relative="1" as="geometry">
            <mxPoint x="990" y="-1020" as="targetPoint" />
          </mxGeometry>
        </mxCell>
        <mxCell id="iCqmGD987BjXMMT1qT0J-40" value="j++" style="whiteSpace=wrap;html=1;" vertex="1" parent="1">
          <mxGeometry x="1250" y="-890" width="120" height="60" as="geometry" />
        </mxCell>
        <mxCell id="iCqmGD987BjXMMT1qT0J-41" value="" style="edgeStyle=orthogonalEdgeStyle;rounded=0;orthogonalLoop=1;jettySize=auto;html=1;" edge="1" parent="1" source="iCqmGD987BjXMMT1qT0J-44" target="iCqmGD987BjXMMT1qT0J-47">
          <mxGeometry relative="1" as="geometry" />
        </mxCell>
        <mxCell id="iCqmGD987BjXMMT1qT0J-42" value="true" style="edgeLabel;html=1;align=center;verticalAlign=middle;resizable=0;points=[];" vertex="1" connectable="0" parent="iCqmGD987BjXMMT1qT0J-41">
          <mxGeometry x="-0.225" relative="1" as="geometry">
            <mxPoint as="offset" />
          </mxGeometry>
        </mxCell>
        <mxCell id="iCqmGD987BjXMMT1qT0J-43" value="" style="edgeStyle=orthogonalEdgeStyle;rounded=0;orthogonalLoop=1;jettySize=auto;html=1;" edge="1" parent="1" source="iCqmGD987BjXMMT1qT0J-44" target="iCqmGD987BjXMMT1qT0J-50">
          <mxGeometry relative="1" as="geometry" />
        </mxCell>
        <mxCell id="iCqmGD987BjXMMT1qT0J-44" value="&#xa;&lt;div style=&quot;color: rgb(212, 212, 212); background-color: rgb(30, 30, 30); font-family: Consolas, &amp;quot;Courier New&amp;quot;, monospace; font-weight: normal; font-size: 14px; line-height: 19px;&quot;&gt;&lt;div&gt;&lt;span style=&quot;color: #c8c8c8;&quot;&gt;i&lt;/span&gt;&lt;span style=&quot;color: #d4d4d4;&quot;&gt; &amp;lt; &lt;/span&gt;&lt;span style=&quot;color: #7f7f7f;&quot;&gt;n&lt;/span&gt;&lt;span style=&quot;color: #d4d4d4;&quot;&gt; - &lt;/span&gt;&lt;span style=&quot;color: #b5cea8;&quot;&gt;1&lt;/span&gt;&lt;/div&gt;&lt;/div&gt;&#xa;&#xa;" style="rhombus;whiteSpace=wrap;html=1;" vertex="1" parent="1">
          <mxGeometry x="860" y="-1060" width="80" height="80" as="geometry" />
        </mxCell>
        <mxCell id="iCqmGD987BjXMMT1qT0J-45" value="true" style="edgeStyle=orthogonalEdgeStyle;rounded=0;orthogonalLoop=1;jettySize=auto;html=1;entryX=0;entryY=0.5;entryDx=0;entryDy=0;" edge="1" parent="1" source="iCqmGD987BjXMMT1qT0J-47" target="iCqmGD987BjXMMT1qT0J-36">
          <mxGeometry relative="1" as="geometry" />
        </mxCell>
        <mxCell id="iCqmGD987BjXMMT1qT0J-46" value="false" style="edgeStyle=orthogonalEdgeStyle;rounded=0;orthogonalLoop=1;jettySize=auto;html=1;" edge="1" parent="1" source="iCqmGD987BjXMMT1qT0J-47" target="iCqmGD987BjXMMT1qT0J-49">
          <mxGeometry relative="1" as="geometry" />
        </mxCell>
        <mxCell id="iCqmGD987BjXMMT1qT0J-47" value="&lt;br&gt;&lt;div style=&quot;color: rgb(212, 212, 212); background-color: rgb(30, 30, 30); font-family: Consolas, &amp;quot;Courier New&amp;quot;, monospace; font-weight: normal; font-size: 14px; line-height: 19px;&quot;&gt;&lt;div&gt;&lt;/div&gt;&lt;/div&gt;&lt;div style=&quot;color: rgb(212, 212, 212); background-color: rgb(30, 30, 30); font-family: Consolas, &amp;quot;Courier New&amp;quot;, monospace; font-size: 14px; line-height: 19px;&quot;&gt;&amp;nbsp;j &amp;lt; &lt;span style=&quot;color: #7f7f7f;&quot;&gt;n&lt;/span&gt; - &lt;span style=&quot;color: #c8c8c8;&quot;&gt;i&lt;/span&gt; - &lt;span style=&quot;color: #b5cea8;&quot;&gt;1&lt;/span&gt;&lt;/div&gt;" style="rhombus;whiteSpace=wrap;html=1;" vertex="1" parent="1">
          <mxGeometry x="1020" y="-1060" width="130" height="80" as="geometry" />
        </mxCell>
        <mxCell id="iCqmGD987BjXMMT1qT0J-48" style="edgeStyle=orthogonalEdgeStyle;rounded=0;orthogonalLoop=1;jettySize=auto;html=1;" edge="1" parent="1" source="iCqmGD987BjXMMT1qT0J-49">
          <mxGeometry relative="1" as="geometry">
            <mxPoint x="840" y="-1020" as="targetPoint" />
          </mxGeometry>
        </mxCell>
        <mxCell id="iCqmGD987BjXMMT1qT0J-49" value="i++" style="whiteSpace=wrap;html=1;" vertex="1" parent="1">
          <mxGeometry x="1025" y="-1210" width="120" height="60" as="geometry" />
        </mxCell>
        <mxCell id="iCqmGD987BjXMMT1qT0J-50" value="a[i]" style="shape=parallelogram;perimeter=parallelogramPerimeter;whiteSpace=wrap;html=1;fixedSize=1;" vertex="1" parent="1">
          <mxGeometry x="840" y="-670" width="120" height="60" as="geometry" />
        </mxCell>
        <mxCell id="iCqmGD987BjXMMT1qT0J-51" value="" style="edgeStyle=orthogonalEdgeStyle;rounded=0;orthogonalLoop=1;jettySize=auto;html=1;" edge="1" parent="1" source="iCqmGD987BjXMMT1qT0J-52" target="iCqmGD987BjXMMT1qT0J-54">
          <mxGeometry relative="1" as="geometry" />
        </mxCell>
        <mxCell id="iCqmGD987BjXMMT1qT0J-52" value="choice" style="shape=parallelogram;perimeter=parallelogramPerimeter;whiteSpace=wrap;html=1;fixedSize=1;" vertex="1" parent="1">
          <mxGeometry x="354" y="489.99999999999955" width="120" height="60" as="geometry" />
        </mxCell>
        <mxCell id="iCqmGD987BjXMMT1qT0J-53" value="" style="edgeStyle=orthogonalEdgeStyle;rounded=0;orthogonalLoop=1;jettySize=auto;html=1;" edge="1" parent="1" source="iCqmGD987BjXMMT1qT0J-54" target="iCqmGD987BjXMMT1qT0J-76">
          <mxGeometry relative="1" as="geometry" />
        </mxCell>
        <mxCell id="iCqmGD987BjXMMT1qT0J-54" value="choice==1" style="rhombus;whiteSpace=wrap;html=1;" vertex="1" parent="1">
          <mxGeometry x="374" y="619.9999999999995" width="80" height="80" as="geometry" />
        </mxCell>
        <mxCell id="iCqmGD987BjXMMT1qT0J-55" value="" style="edgeStyle=orthogonalEdgeStyle;rounded=0;orthogonalLoop=1;jettySize=auto;html=1;exitX=0.5;exitY=1;exitDx=0;exitDy=0;" edge="1" parent="1" source="iCqmGD987BjXMMT1qT0J-54" target="iCqmGD987BjXMMT1qT0J-58">
          <mxGeometry relative="1" as="geometry">
            <mxPoint x="414" y="700" as="sourcePoint" />
          </mxGeometry>
        </mxCell>
        <mxCell id="iCqmGD987BjXMMT1qT0J-56" value="false" style="edgeLabel;html=1;align=center;verticalAlign=middle;resizable=0;points=[];" vertex="1" connectable="0" parent="iCqmGD987BjXMMT1qT0J-55">
          <mxGeometry x="0.0449" relative="1" as="geometry">
            <mxPoint y="-1" as="offset" />
          </mxGeometry>
        </mxCell>
        <mxCell id="iCqmGD987BjXMMT1qT0J-57" style="edgeStyle=orthogonalEdgeStyle;rounded=0;orthogonalLoop=1;jettySize=auto;html=1;" edge="1" parent="1" source="iCqmGD987BjXMMT1qT0J-58" target="iCqmGD987BjXMMT1qT0J-86">
          <mxGeometry relative="1" as="geometry" />
        </mxCell>
        <mxCell id="iCqmGD987BjXMMT1qT0J-58" value="choice==2" style="rhombus;whiteSpace=wrap;html=1;" vertex="1" parent="1">
          <mxGeometry x="374" y="959.9999999999995" width="80" height="80" as="geometry" />
        </mxCell>
        <mxCell id="iCqmGD987BjXMMT1qT0J-59" value="" style="edgeStyle=orthogonalEdgeStyle;rounded=0;orthogonalLoop=1;jettySize=auto;html=1;exitX=0.5;exitY=1;exitDx=0;exitDy=0;" edge="1" parent="1" source="iCqmGD987BjXMMT1qT0J-58" target="iCqmGD987BjXMMT1qT0J-61">
          <mxGeometry relative="1" as="geometry">
            <mxPoint x="414" y="1070" as="sourcePoint" />
          </mxGeometry>
        </mxCell>
        <mxCell id="iCqmGD987BjXMMT1qT0J-60" value="" style="edgeStyle=orthogonalEdgeStyle;rounded=0;orthogonalLoop=1;jettySize=auto;html=1;" edge="1" parent="1" source="iCqmGD987BjXMMT1qT0J-61" target="iCqmGD987BjXMMT1qT0J-94">
          <mxGeometry relative="1" as="geometry" />
        </mxCell>
        <mxCell id="iCqmGD987BjXMMT1qT0J-61" value="choice==3" style="rhombus;whiteSpace=wrap;html=1;" vertex="1" parent="1">
          <mxGeometry x="374" y="1349.9999999999995" width="80" height="80" as="geometry" />
        </mxCell>
        <mxCell id="iCqmGD987BjXMMT1qT0J-62" value="" style="edgeStyle=orthogonalEdgeStyle;rounded=0;orthogonalLoop=1;jettySize=auto;html=1;exitX=0.5;exitY=1;exitDx=0;exitDy=0;" edge="1" parent="1" source="iCqmGD987BjXMMT1qT0J-61" target="iCqmGD987BjXMMT1qT0J-64">
          <mxGeometry relative="1" as="geometry">
            <mxPoint x="414" y="1500" as="sourcePoint" />
          </mxGeometry>
        </mxCell>
        <mxCell id="iCqmGD987BjXMMT1qT0J-63" value="" style="edgeStyle=orthogonalEdgeStyle;rounded=0;orthogonalLoop=1;jettySize=auto;html=1;" edge="1" parent="1" source="iCqmGD987BjXMMT1qT0J-64" target="iCqmGD987BjXMMT1qT0J-116">
          <mxGeometry relative="1" as="geometry" />
        </mxCell>
        <mxCell id="iCqmGD987BjXMMT1qT0J-64" value="choice==4" style="rhombus;whiteSpace=wrap;html=1;" vertex="1" parent="1">
          <mxGeometry x="373" y="1749.9999999999995" width="80" height="80" as="geometry" />
        </mxCell>
        <mxCell id="iCqmGD987BjXMMT1qT0J-65" value="" style="edgeStyle=orthogonalEdgeStyle;rounded=0;orthogonalLoop=1;jettySize=auto;html=1;exitX=0.5;exitY=1;exitDx=0;exitDy=0;" edge="1" parent="1" source="iCqmGD987BjXMMT1qT0J-64" target="iCqmGD987BjXMMT1qT0J-67">
          <mxGeometry relative="1" as="geometry">
            <mxPoint x="413" y="1870" as="sourcePoint" />
          </mxGeometry>
        </mxCell>
        <mxCell id="iCqmGD987BjXMMT1qT0J-66" value="" style="edgeStyle=orthogonalEdgeStyle;rounded=0;orthogonalLoop=1;jettySize=auto;html=1;" edge="1" parent="1" source="iCqmGD987BjXMMT1qT0J-67" target="iCqmGD987BjXMMT1qT0J-119">
          <mxGeometry relative="1" as="geometry" />
        </mxCell>
        <mxCell id="iCqmGD987BjXMMT1qT0J-67" value="choice==5" style="rhombus;whiteSpace=wrap;html=1;" vertex="1" parent="1">
          <mxGeometry x="373" y="2129.9999999999995" width="80" height="80" as="geometry" />
        </mxCell>
        <mxCell id="iCqmGD987BjXMMT1qT0J-68" value="false" style="edgeLabel;html=1;align=center;verticalAlign=middle;resizable=0;points=[];" vertex="1" connectable="0" parent="1">
          <mxGeometry x="424" y="1330.0028571428575" as="geometry">
            <mxPoint x="-10" y="150" as="offset" />
          </mxGeometry>
        </mxCell>
        <mxCell id="iCqmGD987BjXMMT1qT0J-69" value="false" style="edgeLabel;html=1;align=center;verticalAlign=middle;resizable=0;points=[];" vertex="1" connectable="0" parent="1">
          <mxGeometry x="320" y="770.0028571428574" as="geometry">
            <mxPoint x="89" y="307" as="offset" />
          </mxGeometry>
        </mxCell>
        <mxCell id="iCqmGD987BjXMMT1qT0J-70" value="false" style="edgeLabel;html=1;align=center;verticalAlign=middle;resizable=0;points=[];" vertex="1" connectable="0" parent="1">
          <mxGeometry x="320" y="1580.0028571428575" as="geometry">
            <mxPoint x="89" y="307" as="offset" />
          </mxGeometry>
        </mxCell>
        <mxCell id="iCqmGD987BjXMMT1qT0J-71" value="" style="edgeStyle=orthogonalEdgeStyle;rounded=0;orthogonalLoop=1;jettySize=auto;html=1;exitX=0.5;exitY=1;exitDx=0;exitDy=0;" edge="1" parent="1" source="iCqmGD987BjXMMT1qT0J-67" target="iCqmGD987BjXMMT1qT0J-74">
          <mxGeometry relative="1" as="geometry">
            <mxPoint x="413" y="2220" as="sourcePoint" />
          </mxGeometry>
        </mxCell>
        <mxCell id="iCqmGD987BjXMMT1qT0J-72" style="edgeStyle=orthogonalEdgeStyle;rounded=0;orthogonalLoop=1;jettySize=auto;html=1;" edge="1" parent="1" source="iCqmGD987BjXMMT1qT0J-74" target="iCqmGD987BjXMMT1qT0J-128">
          <mxGeometry relative="1" as="geometry" />
        </mxCell>
        <mxCell id="iCqmGD987BjXMMT1qT0J-73" value="" style="edgeStyle=orthogonalEdgeStyle;rounded=0;orthogonalLoop=1;jettySize=auto;html=1;" edge="1" parent="1" source="iCqmGD987BjXMMT1qT0J-74" target="iCqmGD987BjXMMT1qT0J-139">
          <mxGeometry relative="1" as="geometry" />
        </mxCell>
        <mxCell id="iCqmGD987BjXMMT1qT0J-74" value="choice==6" style="rhombus;whiteSpace=wrap;html=1;" vertex="1" parent="1">
          <mxGeometry x="373" y="2801.9999999999995" width="80" height="80" as="geometry" />
        </mxCell>
        <mxCell id="iCqmGD987BjXMMT1qT0J-75" value="" style="edgeStyle=orthogonalEdgeStyle;rounded=0;orthogonalLoop=1;jettySize=auto;html=1;" edge="1" parent="1" source="iCqmGD987BjXMMT1qT0J-76" target="iCqmGD987BjXMMT1qT0J-79">
          <mxGeometry relative="1" as="geometry" />
        </mxCell>
        <mxCell id="iCqmGD987BjXMMT1qT0J-76" value="n&lt;br&gt;i=0" style="shape=parallelogram;perimeter=parallelogramPerimeter;whiteSpace=wrap;html=1;fixedSize=1;" vertex="1" parent="1">
          <mxGeometry x="514" y="629.9999999999995" width="120" height="60" as="geometry" />
        </mxCell>
        <mxCell id="iCqmGD987BjXMMT1qT0J-77" value="" style="edgeStyle=orthogonalEdgeStyle;rounded=0;orthogonalLoop=1;jettySize=auto;html=1;" edge="1" parent="1" source="iCqmGD987BjXMMT1qT0J-79" target="iCqmGD987BjXMMT1qT0J-81">
          <mxGeometry relative="1" as="geometry" />
        </mxCell>
        <mxCell id="iCqmGD987BjXMMT1qT0J-78" style="edgeStyle=orthogonalEdgeStyle;rounded=0;orthogonalLoop=1;jettySize=auto;html=1;" edge="1" parent="1" source="iCqmGD987BjXMMT1qT0J-79">
          <mxGeometry relative="1" as="geometry">
            <mxPoint x="420" y="450" as="targetPoint" />
            <Array as="points">
              <mxPoint x="775" y="790" />
              <mxPoint x="1670" y="790" />
              <mxPoint x="1670" y="180" />
              <mxPoint x="630" y="180" />
              <mxPoint x="630" y="450" />
            </Array>
          </mxGeometry>
        </mxCell>
        <mxCell id="iCqmGD987BjXMMT1qT0J-79" value="i&amp;lt;n" style="rhombus;whiteSpace=wrap;html=1;" vertex="1" parent="1">
          <mxGeometry x="734" y="619.9999999999995" width="80" height="80" as="geometry" />
        </mxCell>
        <mxCell id="iCqmGD987BjXMMT1qT0J-80" value="" style="edgeStyle=orthogonalEdgeStyle;rounded=0;orthogonalLoop=1;jettySize=auto;html=1;" edge="1" parent="1" source="iCqmGD987BjXMMT1qT0J-81" target="iCqmGD987BjXMMT1qT0J-83">
          <mxGeometry relative="1" as="geometry" />
        </mxCell>
        <mxCell id="iCqmGD987BjXMMT1qT0J-81" value="a[i]&lt;br&gt;current++" style="shape=parallelogram;perimeter=parallelogramPerimeter;whiteSpace=wrap;html=1;fixedSize=1;" vertex="1" parent="1">
          <mxGeometry x="874" y="629.9999999999995" width="120" height="60" as="geometry" />
        </mxCell>
        <mxCell id="iCqmGD987BjXMMT1qT0J-82" style="edgeStyle=orthogonalEdgeStyle;rounded=0;orthogonalLoop=1;jettySize=auto;html=1;" edge="1" parent="1" source="iCqmGD987BjXMMT1qT0J-83">
          <mxGeometry relative="1" as="geometry">
            <mxPoint x="690" y="650" as="targetPoint" />
            <Array as="points">
              <mxPoint x="1134" y="511" />
              <mxPoint x="1130" y="511" />
              <mxPoint x="1130" y="500" />
              <mxPoint x="690" y="500" />
            </Array>
          </mxGeometry>
        </mxCell>
        <mxCell id="iCqmGD987BjXMMT1qT0J-83" value="i++" style="whiteSpace=wrap;html=1;" vertex="1" parent="1">
          <mxGeometry x="1074" y="629.9999999999995" width="120" height="60" as="geometry" />
        </mxCell>
        <mxCell id="iCqmGD987BjXMMT1qT0J-84" value="" style="edgeStyle=orthogonalEdgeStyle;rounded=0;orthogonalLoop=1;jettySize=auto;html=1;" edge="1" parent="1" source="iCqmGD987BjXMMT1qT0J-86" target="iCqmGD987BjXMMT1qT0J-88">
          <mxGeometry relative="1" as="geometry" />
        </mxCell>
        <mxCell id="iCqmGD987BjXMMT1qT0J-85" style="edgeStyle=orthogonalEdgeStyle;rounded=0;orthogonalLoop=1;jettySize=auto;html=1;" edge="1" parent="1" source="iCqmGD987BjXMMT1qT0J-86">
          <mxGeometry relative="1" as="geometry">
            <mxPoint x="1670" y="740" as="targetPoint" />
            <Array as="points">
              <mxPoint x="580" y="1170" />
              <mxPoint x="1670" y="1170" />
            </Array>
          </mxGeometry>
        </mxCell>
        <mxCell id="iCqmGD987BjXMMT1qT0J-86" value="n&lt;br&gt;i=0" style="shape=parallelogram;perimeter=parallelogramPerimeter;whiteSpace=wrap;html=1;fixedSize=1;" vertex="1" parent="1">
          <mxGeometry x="520" y="979.9999999999995" width="120" height="60" as="geometry" />
        </mxCell>
        <mxCell id="iCqmGD987BjXMMT1qT0J-87" value="" style="edgeStyle=orthogonalEdgeStyle;rounded=0;orthogonalLoop=1;jettySize=auto;html=1;" edge="1" parent="1" source="iCqmGD987BjXMMT1qT0J-88" target="iCqmGD987BjXMMT1qT0J-90">
          <mxGeometry relative="1" as="geometry" />
        </mxCell>
        <mxCell id="iCqmGD987BjXMMT1qT0J-88" value="i&amp;lt;n" style="rhombus;whiteSpace=wrap;html=1;" vertex="1" parent="1">
          <mxGeometry x="740" y="969.9999999999995" width="80" height="80" as="geometry" />
        </mxCell>
        <mxCell id="iCqmGD987BjXMMT1qT0J-89" value="" style="edgeStyle=orthogonalEdgeStyle;rounded=0;orthogonalLoop=1;jettySize=auto;html=1;" edge="1" parent="1" source="iCqmGD987BjXMMT1qT0J-90" target="iCqmGD987BjXMMT1qT0J-92">
          <mxGeometry relative="1" as="geometry" />
        </mxCell>
        <mxCell id="iCqmGD987BjXMMT1qT0J-90" value="a[i]" style="shape=parallelogram;perimeter=parallelogramPerimeter;whiteSpace=wrap;html=1;fixedSize=1;" vertex="1" parent="1">
          <mxGeometry x="880" y="979.9999999999995" width="120" height="60" as="geometry" />
        </mxCell>
        <mxCell id="iCqmGD987BjXMMT1qT0J-91" style="edgeStyle=orthogonalEdgeStyle;rounded=0;orthogonalLoop=1;jettySize=auto;html=1;" edge="1" parent="1" source="iCqmGD987BjXMMT1qT0J-92">
          <mxGeometry relative="1" as="geometry">
            <mxPoint x="696" y="1000" as="targetPoint" />
            <Array as="points">
              <mxPoint x="1140" y="861" />
              <mxPoint x="1136" y="861" />
              <mxPoint x="1136" y="850" />
              <mxPoint x="696" y="850" />
            </Array>
          </mxGeometry>
        </mxCell>
        <mxCell id="iCqmGD987BjXMMT1qT0J-92" value="i++" style="whiteSpace=wrap;html=1;" vertex="1" parent="1">
          <mxGeometry x="1080" y="979.9999999999995" width="120" height="60" as="geometry" />
        </mxCell>
        <mxCell id="iCqmGD987BjXMMT1qT0J-93" value="" style="edgeStyle=orthogonalEdgeStyle;rounded=0;orthogonalLoop=1;jettySize=auto;html=1;" edge="1" parent="1" source="iCqmGD987BjXMMT1qT0J-94" target="iCqmGD987BjXMMT1qT0J-97">
          <mxGeometry relative="1" as="geometry" />
        </mxCell>
        <mxCell id="iCqmGD987BjXMMT1qT0J-94" value="&lt;br&gt;&lt;div style=&quot;color: rgb(212, 212, 212); background-color: rgb(30, 30, 30); font-family: Consolas, &amp;quot;Courier New&amp;quot;, monospace; font-weight: normal; font-size: 14px; line-height: 19px;&quot;&gt;&lt;div&gt;&lt;span style=&quot;color: #c8c8c8;&quot;&gt;add_value&lt;/span&gt;&lt;/div&gt;&lt;div&gt;&lt;div style=&quot;line-height: 19px;&quot;&gt;add_index&lt;/div&gt;&lt;/div&gt;&lt;div style=&quot;line-height: 19px;&quot;&gt;&lt;br&gt;&lt;/div&gt;&lt;/div&gt;" style="shape=parallelogram;perimeter=parallelogramPerimeter;whiteSpace=wrap;html=1;fixedSize=1;" vertex="1" parent="1">
          <mxGeometry x="530" y="1340" width="176" height="100" as="geometry" />
        </mxCell>
        <mxCell id="iCqmGD987BjXMMT1qT0J-95" value="" style="edgeStyle=orthogonalEdgeStyle;rounded=0;orthogonalLoop=1;jettySize=auto;html=1;" edge="1" parent="1" source="iCqmGD987BjXMMT1qT0J-97" target="iCqmGD987BjXMMT1qT0J-99">
          <mxGeometry relative="1" as="geometry" />
        </mxCell>
        <mxCell id="iCqmGD987BjXMMT1qT0J-96" value="" style="edgeStyle=orthogonalEdgeStyle;rounded=0;orthogonalLoop=1;jettySize=auto;html=1;" edge="1" parent="1" source="iCqmGD987BjXMMT1qT0J-97" target="iCqmGD987BjXMMT1qT0J-114">
          <mxGeometry relative="1" as="geometry" />
        </mxCell>
        <mxCell id="iCqmGD987BjXMMT1qT0J-97" value="&#xa;&lt;div style=&quot;color: rgb(212, 212, 212); background-color: rgb(30, 30, 30); font-family: Consolas, &amp;quot;Courier New&amp;quot;, monospace; font-weight: normal; font-size: 14px; line-height: 19px;&quot;&gt;&lt;div&gt;&lt;span style=&quot;color: #c8c8c8;&quot;&gt;add_index&lt;/span&gt;&lt;span style=&quot;color: #d4d4d4;&quot;&gt; &amp;lt; &lt;/span&gt;&lt;span style=&quot;color: #c8c8c8;&quot;&gt;current&lt;/span&gt;&lt;/div&gt;&lt;/div&gt;&#xa;&#xa;" style="rhombus;whiteSpace=wrap;html=1;" vertex="1" parent="1">
          <mxGeometry x="839" y="1330" width="186" height="120" as="geometry" />
        </mxCell>
        <mxCell id="iCqmGD987BjXMMT1qT0J-98" value="" style="edgeStyle=orthogonalEdgeStyle;rounded=0;orthogonalLoop=1;jettySize=auto;html=1;" edge="1" parent="1" source="iCqmGD987BjXMMT1qT0J-99" target="iCqmGD987BjXMMT1qT0J-102">
          <mxGeometry relative="1" as="geometry" />
        </mxCell>
        <mxCell id="iCqmGD987BjXMMT1qT0J-99" value="i=0" style="whiteSpace=wrap;html=1;" vertex="1" parent="1">
          <mxGeometry x="1138" y="1360" width="120" height="60" as="geometry" />
        </mxCell>
        <mxCell id="iCqmGD987BjXMMT1qT0J-100" value="" style="edgeStyle=orthogonalEdgeStyle;rounded=0;orthogonalLoop=1;jettySize=auto;html=1;" edge="1" parent="1" source="iCqmGD987BjXMMT1qT0J-102" target="iCqmGD987BjXMMT1qT0J-104">
          <mxGeometry relative="1" as="geometry" />
        </mxCell>
        <mxCell id="iCqmGD987BjXMMT1qT0J-101" value="" style="edgeStyle=orthogonalEdgeStyle;rounded=0;orthogonalLoop=1;jettySize=auto;html=1;" edge="1" parent="1" source="iCqmGD987BjXMMT1qT0J-102" target="iCqmGD987BjXMMT1qT0J-112">
          <mxGeometry relative="1" as="geometry" />
        </mxCell>
        <mxCell id="iCqmGD987BjXMMT1qT0J-102" value="&#xa;&lt;div style=&quot;color: rgb(212, 212, 212); background-color: rgb(30, 30, 30); font-family: Consolas, &amp;quot;Courier New&amp;quot;, monospace; font-weight: normal; font-size: 14px; line-height: 19px;&quot;&gt;&lt;div&gt;&lt;span style=&quot;color: #c8c8c8;&quot;&gt;i&lt;/span&gt;&lt;span style=&quot;color: #d4d4d4;&quot;&gt; &amp;gt;= &lt;/span&gt;&lt;span style=&quot;color: #c8c8c8;&quot;&gt;add_index&lt;/span&gt;&lt;/div&gt;&lt;/div&gt;&#xa;&#xa;" style="rhombus;whiteSpace=wrap;html=1;" vertex="1" parent="1">
          <mxGeometry x="1358" y="1350" width="152" height="90" as="geometry" />
        </mxCell>
        <mxCell id="iCqmGD987BjXMMT1qT0J-103" value="" style="edgeStyle=orthogonalEdgeStyle;rounded=0;orthogonalLoop=1;jettySize=auto;html=1;" edge="1" parent="1" source="iCqmGD987BjXMMT1qT0J-104" target="iCqmGD987BjXMMT1qT0J-106">
          <mxGeometry relative="1" as="geometry" />
        </mxCell>
        <mxCell id="iCqmGD987BjXMMT1qT0J-104" value="&#xa;&lt;div style=&quot;color: rgb(212, 212, 212); background-color: rgb(30, 30, 30); font-family: Consolas, &amp;quot;Courier New&amp;quot;, monospace; font-weight: normal; font-size: 14px; line-height: 19px;&quot;&gt;&lt;div&gt;&lt;span style=&quot;color: #c8c8c8;&quot;&gt;a&lt;/span&gt;&lt;span style=&quot;color: #d4d4d4;&quot;&gt;[&lt;/span&gt;&lt;span style=&quot;color: #c8c8c8;&quot;&gt;i&lt;/span&gt;&lt;span style=&quot;color: #d4d4d4;&quot;&gt;] = &lt;/span&gt;&lt;span style=&quot;color: #c8c8c8;&quot;&gt;a&lt;/span&gt;&lt;span style=&quot;color: #d4d4d4;&quot;&gt;[&lt;/span&gt;&lt;span style=&quot;color: #c8c8c8;&quot;&gt;i&lt;/span&gt;&lt;span style=&quot;color: #d4d4d4;&quot;&gt; - &lt;/span&gt;&lt;span style=&quot;color: #b5cea8;&quot;&gt;1&lt;/span&gt;&lt;span style=&quot;color: #d4d4d4;&quot;&gt;];&lt;/span&gt;&lt;/div&gt;&lt;/div&gt;&#xa;&#xa;" style="whiteSpace=wrap;html=1;" vertex="1" parent="1">
          <mxGeometry x="1606" y="1365" width="154" height="65" as="geometry" />
        </mxCell>
        <mxCell id="iCqmGD987BjXMMT1qT0J-105" value="" style="edgeStyle=orthogonalEdgeStyle;rounded=0;orthogonalLoop=1;jettySize=auto;html=1;" edge="1" parent="1" source="iCqmGD987BjXMMT1qT0J-106" target="iCqmGD987BjXMMT1qT0J-110">
          <mxGeometry relative="1" as="geometry">
            <mxPoint x="2050" y="1404" as="targetPoint" />
          </mxGeometry>
        </mxCell>
        <mxCell id="iCqmGD987BjXMMT1qT0J-106" value="&#xa;&lt;div style=&quot;color: rgb(212, 212, 212); background-color: rgb(30, 30, 30); font-family: Consolas, &amp;quot;Courier New&amp;quot;, monospace; font-weight: normal; font-size: 14px; line-height: 19px;&quot;&gt;&lt;div&gt;&lt;span style=&quot;color: #c8c8c8;&quot;&gt;i&lt;/span&gt;&lt;span style=&quot;color: #d4d4d4;&quot;&gt; == &lt;/span&gt;&lt;span style=&quot;color: #c8c8c8;&quot;&gt;add_index&lt;/span&gt;&lt;/div&gt;&lt;/div&gt;&#xa;&#xa;" style="rhombus;whiteSpace=wrap;html=1;" vertex="1" parent="1">
          <mxGeometry x="1877" y="1357.5" width="113" height="92.5" as="geometry" />
        </mxCell>
        <mxCell id="iCqmGD987BjXMMT1qT0J-107" style="edgeStyle=orthogonalEdgeStyle;rounded=0;orthogonalLoop=1;jettySize=auto;html=1;" edge="1" parent="1" source="iCqmGD987BjXMMT1qT0J-108">
          <mxGeometry relative="1" as="geometry">
            <mxPoint x="1310" y="1400" as="targetPoint" />
            <Array as="points">
              <mxPoint x="2360" y="1280" />
              <mxPoint x="1310" y="1280" />
            </Array>
          </mxGeometry>
        </mxCell>
        <mxCell id="iCqmGD987BjXMMT1qT0J-108" value="i--" style="whiteSpace=wrap;html=1;" vertex="1" parent="1">
          <mxGeometry x="2290" y="1370" width="120" height="60" as="geometry" />
        </mxCell>
        <mxCell id="iCqmGD987BjXMMT1qT0J-109" style="edgeStyle=orthogonalEdgeStyle;rounded=0;orthogonalLoop=1;jettySize=auto;html=1;entryX=0;entryY=0.5;entryDx=0;entryDy=0;" edge="1" parent="1" source="iCqmGD987BjXMMT1qT0J-110" target="iCqmGD987BjXMMT1qT0J-108">
          <mxGeometry relative="1" as="geometry" />
        </mxCell>
        <mxCell id="iCqmGD987BjXMMT1qT0J-110" value="&#xa;&lt;div style=&quot;color: rgb(212, 212, 212); background-color: rgb(30, 30, 30); font-family: Consolas, &amp;quot;Courier New&amp;quot;, monospace; font-weight: normal; font-size: 14px; line-height: 19px;&quot;&gt;&lt;div&gt;&lt;span style=&quot;color: #d4d4d4;&quot;&gt;&amp;nbsp;&lt;/span&gt;&lt;span style=&quot;color: #c8c8c8;&quot;&gt;a&lt;/span&gt;&lt;span style=&quot;color: #d4d4d4;&quot;&gt;[&lt;/span&gt;&lt;span style=&quot;color: #c8c8c8;&quot;&gt;i&lt;/span&gt;&lt;span style=&quot;color: #d4d4d4;&quot;&gt;] = &lt;/span&gt;&lt;span style=&quot;color: #c8c8c8;&quot;&gt;add_value&lt;/span&gt;&lt;span style=&quot;color: #d4d4d4;&quot;&gt;;&lt;/span&gt;&lt;/div&gt;&lt;/div&gt;&#xa;&#xa;" style="rounded=1;whiteSpace=wrap;html=1;" vertex="1" parent="1">
          <mxGeometry x="2066.9999999999995" y="1373.75" width="120" height="60" as="geometry" />
        </mxCell>
        <mxCell id="iCqmGD987BjXMMT1qT0J-111" style="edgeStyle=orthogonalEdgeStyle;rounded=0;orthogonalLoop=1;jettySize=auto;html=1;" edge="1" parent="1" source="iCqmGD987BjXMMT1qT0J-112">
          <mxGeometry relative="1" as="geometry">
            <mxPoint x="1670" y="820" as="targetPoint" />
            <Array as="points">
              <mxPoint x="2791" y="1568" />
              <mxPoint x="2791" y="820" />
            </Array>
          </mxGeometry>
        </mxCell>
        <mxCell id="iCqmGD987BjXMMT1qT0J-112" value="&#xa;&lt;div style=&quot;color: rgb(212, 212, 212); background-color: rgb(30, 30, 30); font-family: Consolas, &amp;quot;Courier New&amp;quot;, monospace; font-weight: normal; font-size: 14px; line-height: 19px;&quot;&gt;&lt;div&gt;&lt;span style=&quot;color: #d4d4d4;&quot;&gt;&amp;nbsp; &lt;/span&gt;&lt;span style=&quot;color: #c8c8c8;&quot;&gt;countArrange&lt;/span&gt;&lt;span style=&quot;color: #d4d4d4;&quot;&gt; = &lt;/span&gt;&lt;span style=&quot;color: #b5cea8;&quot;&gt;0&lt;/span&gt;&lt;span style=&quot;color: #d4d4d4;&quot;&gt;;&lt;/span&gt;&lt;/div&gt;&lt;/div&gt;&#xa;&#xa;" style="whiteSpace=wrap;html=1;" vertex="1" parent="1">
          <mxGeometry x="1374" y="1535" width="166" height="65" as="geometry" />
        </mxCell>
        <mxCell id="iCqmGD987BjXMMT1qT0J-113" style="edgeStyle=orthogonalEdgeStyle;rounded=0;orthogonalLoop=1;jettySize=auto;html=1;entryX=0;entryY=0.5;entryDx=0;entryDy=0;" edge="1" parent="1" source="iCqmGD987BjXMMT1qT0J-114" target="iCqmGD987BjXMMT1qT0J-112">
          <mxGeometry relative="1" as="geometry" />
        </mxCell>
        <mxCell id="iCqmGD987BjXMMT1qT0J-114" value="&#xa;&lt;div style=&quot;color: rgb(212, 212, 212); background-color: rgb(30, 30, 30); font-family: Consolas, &amp;quot;Courier New&amp;quot;, monospace; font-weight: normal; font-size: 14px; line-height: 19px;&quot;&gt;&lt;div&gt;&lt;span style=&quot;color: #d4d4d4;&quot;&gt;&amp;nbsp; &lt;/span&gt;&lt;span style=&quot;color: #c8c8c8;&quot;&gt;a&lt;/span&gt;&lt;span style=&quot;color: #d4d4d4;&quot;&gt;[&lt;/span&gt;&lt;span style=&quot;color: #c8c8c8;&quot;&gt;add_index&lt;/span&gt;&lt;span style=&quot;color: #d4d4d4;&quot;&gt;] = &lt;/span&gt;&lt;span style=&quot;color: #c8c8c8;&quot;&gt;add_value&lt;/span&gt;&lt;span style=&quot;color: #d4d4d4;&quot;&gt;;&lt;/span&gt;&lt;/div&gt;&lt;/div&gt;&#xa;&#xa;" style="whiteSpace=wrap;html=1;" vertex="1" parent="1">
          <mxGeometry x="872" y="1560" width="120" height="60" as="geometry" />
        </mxCell>
        <mxCell id="iCqmGD987BjXMMT1qT0J-115" value="" style="edgeStyle=orthogonalEdgeStyle;rounded=0;orthogonalLoop=1;jettySize=auto;html=1;" edge="1" parent="1" source="iCqmGD987BjXMMT1qT0J-116" target="iCqmGD987BjXMMT1qT0J-117">
          <mxGeometry relative="1" as="geometry" />
        </mxCell>
        <mxCell id="iCqmGD987BjXMMT1qT0J-116" value="&lt;br&gt;&lt;div style=&quot;color: rgb(212, 212, 212); background-color: rgb(30, 30, 30); font-family: Consolas, &amp;quot;Courier New&amp;quot;, monospace; font-weight: normal; font-size: 14px; line-height: 19px;&quot;&gt;&lt;div&gt;&lt;span style=&quot;color: #d4d4d4;&quot;&gt;&amp;nbsp; &lt;/span&gt;&lt;span style=&quot;color: #d4d4d4;&quot;&gt;&amp;nbsp;&lt;/span&gt;&lt;span style=&quot;color: #c8c8c8;&quot;&gt;update_index&lt;/span&gt;&lt;span style=&quot;color: #d4d4d4;&quot;&gt;, &lt;/span&gt;&lt;span style=&quot;color: #c8c8c8;&quot;&gt;update_value&lt;/span&gt;&lt;span style=&quot;color: #d4d4d4;&quot;&gt;;&lt;/span&gt;&lt;/div&gt;&lt;/div&gt;&lt;br&gt;" style="shape=parallelogram;perimeter=parallelogramPerimeter;whiteSpace=wrap;html=1;fixedSize=1;" vertex="1" parent="1">
          <mxGeometry x="513" y="1760" width="267" height="80" as="geometry" />
        </mxCell>
        <mxCell id="iCqmGD987BjXMMT1qT0J-117" value="&#xa;&lt;div style=&quot;color: rgb(212, 212, 212); background-color: rgb(30, 30, 30); font-family: Consolas, &amp;quot;Courier New&amp;quot;, monospace; font-weight: normal; font-size: 14px; line-height: 19px;&quot;&gt;&lt;div&gt;&lt;span style=&quot;color: #c8c8c8;&quot;&gt;a&lt;/span&gt;&lt;span style=&quot;color: #d4d4d4;&quot;&gt;[&lt;/span&gt;&lt;span style=&quot;color: #c8c8c8;&quot;&gt;update_index&lt;/span&gt;&lt;span style=&quot;color: #d4d4d4;&quot;&gt;] = &lt;/span&gt;&lt;span style=&quot;color: #c8c8c8;&quot;&gt;update_value&lt;/span&gt;&lt;span style=&quot;color: #d4d4d4;&quot;&gt;;&lt;/span&gt;&lt;/div&gt;&lt;/div&gt;&#xa;&#xa;" style="whiteSpace=wrap;html=1;" vertex="1" parent="1">
          <mxGeometry x="933.5" y="1770" width="236.5" height="60" as="geometry" />
        </mxCell>
        <mxCell id="iCqmGD987BjXMMT1qT0J-118" value="" style="edgeStyle=orthogonalEdgeStyle;rounded=0;orthogonalLoop=1;jettySize=auto;html=1;" edge="1" parent="1" source="iCqmGD987BjXMMT1qT0J-119" target="iCqmGD987BjXMMT1qT0J-121">
          <mxGeometry relative="1" as="geometry" />
        </mxCell>
        <mxCell id="iCqmGD987BjXMMT1qT0J-119" value="deleteInxdex" style="shape=parallelogram;perimeter=parallelogramPerimeter;whiteSpace=wrap;html=1;fixedSize=1;" vertex="1" parent="1">
          <mxGeometry x="513" y="2139.9999999999995" width="120" height="60" as="geometry" />
        </mxCell>
        <mxCell id="iCqmGD987BjXMMT1qT0J-120" value="" style="edgeStyle=orthogonalEdgeStyle;rounded=0;orthogonalLoop=1;jettySize=auto;html=1;" edge="1" parent="1" source="iCqmGD987BjXMMT1qT0J-121" target="iCqmGD987BjXMMT1qT0J-124">
          <mxGeometry relative="1" as="geometry" />
        </mxCell>
        <mxCell id="iCqmGD987BjXMMT1qT0J-121" value="&#xa;&lt;div style=&quot;color: rgb(212, 212, 212); background-color: rgb(30, 30, 30); font-family: Consolas, &amp;quot;Courier New&amp;quot;, monospace; font-weight: normal; font-size: 14px; line-height: 19px;&quot;&gt;&lt;div&gt;&lt;span style=&quot;color: #c8c8c8;&quot;&gt;i&lt;/span&gt;&lt;span style=&quot;color: #d4d4d4;&quot;&gt; = &lt;/span&gt;&lt;span style=&quot;color: #c8c8c8;&quot;&gt;delete_index&lt;/span&gt;&lt;span style=&quot;color: #d4d4d4;&quot;&gt; - &lt;/span&gt;&lt;span style=&quot;color: #b5cea8;&quot;&gt;1&lt;/span&gt;&lt;span style=&quot;color: #d4d4d4;&quot;&gt;;&lt;/span&gt;&lt;/div&gt;&lt;/div&gt;&#xa;&#xa;" style="whiteSpace=wrap;html=1;" vertex="1" parent="1">
          <mxGeometry x="713" y="2140" width="197" height="70" as="geometry" />
        </mxCell>
        <mxCell id="iCqmGD987BjXMMT1qT0J-122" value="" style="edgeStyle=orthogonalEdgeStyle;rounded=0;orthogonalLoop=1;jettySize=auto;html=1;" edge="1" parent="1" source="iCqmGD987BjXMMT1qT0J-124" target="iCqmGD987BjXMMT1qT0J-126">
          <mxGeometry relative="1" as="geometry" />
        </mxCell>
        <mxCell id="iCqmGD987BjXMMT1qT0J-123" style="edgeStyle=orthogonalEdgeStyle;rounded=0;orthogonalLoop=1;jettySize=auto;html=1;" edge="1" parent="1" source="iCqmGD987BjXMMT1qT0J-124">
          <mxGeometry relative="1" as="geometry">
            <mxPoint x="2795" y="1470" as="targetPoint" />
            <Array as="points">
              <mxPoint x="1114" y="2400" />
              <mxPoint x="2795" y="2400" />
            </Array>
          </mxGeometry>
        </mxCell>
        <mxCell id="iCqmGD987BjXMMT1qT0J-124" value="&#xa;&lt;div style=&quot;color: rgb(212, 212, 212); background-color: rgb(30, 30, 30); font-family: Consolas, &amp;quot;Courier New&amp;quot;, monospace; font-weight: normal; font-size: 14px; line-height: 19px;&quot;&gt;&lt;div&gt;&lt;span style=&quot;color: #c8c8c8;&quot;&gt;i&lt;/span&gt;&lt;span style=&quot;color: #d4d4d4;&quot;&gt; &amp;lt; &lt;/span&gt;&lt;span style=&quot;color: #c8c8c8;&quot;&gt;current&lt;/span&gt;&lt;span style=&quot;color: #d4d4d4;&quot;&gt; - &lt;/span&gt;&lt;span style=&quot;color: #b5cea8;&quot;&gt;1&lt;/span&gt;&lt;span style=&quot;color: #d4d4d4;&quot;&gt;;&lt;/span&gt;&lt;/div&gt;&lt;/div&gt;&#xa;&#xa;" style="rhombus;whiteSpace=wrap;html=1;" vertex="1" parent="1">
          <mxGeometry x="1048.5" y="2135" width="131.5" height="105" as="geometry" />
        </mxCell>
        <mxCell id="iCqmGD987BjXMMT1qT0J-125" style="edgeStyle=orthogonalEdgeStyle;rounded=0;orthogonalLoop=1;jettySize=auto;html=1;" edge="1" parent="1" source="iCqmGD987BjXMMT1qT0J-126">
          <mxGeometry relative="1" as="geometry">
            <mxPoint x="1010" y="2179" as="targetPoint" />
            <Array as="points">
              <mxPoint x="1353" y="2090" />
              <mxPoint x="1010" y="2090" />
            </Array>
          </mxGeometry>
        </mxCell>
        <mxCell id="iCqmGD987BjXMMT1qT0J-126" value="&lt;br&gt;&lt;div style=&quot;color: rgb(212, 212, 212); background-color: rgb(30, 30, 30); font-family: Consolas, &amp;quot;Courier New&amp;quot;, monospace; font-weight: normal; font-size: 14px; line-height: 19px;&quot;&gt;&lt;div&gt;&lt;span style=&quot;color: #d4d4d4;&quot;&gt;&amp;nbsp;&lt;/span&gt;&lt;span style=&quot;color: #c8c8c8;&quot;&gt;a&lt;/span&gt;&lt;span style=&quot;color: #d4d4d4;&quot;&gt;[&lt;/span&gt;&lt;span style=&quot;color: #c8c8c8;&quot;&gt;i&lt;/span&gt;&lt;span style=&quot;color: #d4d4d4;&quot;&gt;] = &lt;/span&gt;&lt;span style=&quot;color: #c8c8c8;&quot;&gt;a&lt;/span&gt;&lt;span style=&quot;color: #d4d4d4;&quot;&gt;[&lt;/span&gt;&lt;span style=&quot;color: #c8c8c8;&quot;&gt;i&lt;/span&gt;&lt;span style=&quot;color: #d4d4d4;&quot;&gt; + &lt;/span&gt;&lt;span style=&quot;color: #b5cea8;&quot;&gt;1&lt;/span&gt;&lt;span style=&quot;color: #d4d4d4;&quot;&gt;];&lt;/span&gt;&lt;/div&gt;&lt;/div&gt;i++&lt;br&gt;" style="whiteSpace=wrap;html=1;" vertex="1" parent="1">
          <mxGeometry x="1265.75" y="2157.5" width="174.25" height="42.5" as="geometry" />
        </mxCell>
        <mxCell id="iCqmGD987BjXMMT1qT0J-127" value="" style="edgeStyle=orthogonalEdgeStyle;rounded=0;orthogonalLoop=1;jettySize=auto;html=1;" edge="1" parent="1" source="iCqmGD987BjXMMT1qT0J-128" target="iCqmGD987BjXMMT1qT0J-131">
          <mxGeometry relative="1" as="geometry" />
        </mxCell>
        <mxCell id="iCqmGD987BjXMMT1qT0J-128" value="choice" style="shape=parallelogram;perimeter=parallelogramPerimeter;whiteSpace=wrap;html=1;fixedSize=1;" vertex="1" parent="1">
          <mxGeometry x="570" y="2812" width="120" height="60" as="geometry" />
        </mxCell>
        <mxCell id="iCqmGD987BjXMMT1qT0J-129" value="" style="edgeStyle=orthogonalEdgeStyle;rounded=0;orthogonalLoop=1;jettySize=auto;html=1;" edge="1" parent="1" source="iCqmGD987BjXMMT1qT0J-131" target="iCqmGD987BjXMMT1qT0J-133">
          <mxGeometry relative="1" as="geometry" />
        </mxCell>
        <mxCell id="iCqmGD987BjXMMT1qT0J-130" value="" style="edgeStyle=orthogonalEdgeStyle;rounded=0;orthogonalLoop=1;jettySize=auto;html=1;" edge="1" parent="1" source="iCqmGD987BjXMMT1qT0J-131" target="iCqmGD987BjXMMT1qT0J-135">
          <mxGeometry relative="1" as="geometry" />
        </mxCell>
        <mxCell id="iCqmGD987BjXMMT1qT0J-131" value="choice==1" style="rhombus;whiteSpace=wrap;html=1;" vertex="1" parent="1">
          <mxGeometry x="790" y="2802" width="80" height="80" as="geometry" />
        </mxCell>
        <mxCell id="iCqmGD987BjXMMT1qT0J-132" value="" style="edgeStyle=orthogonalEdgeStyle;rounded=0;orthogonalLoop=1;jettySize=auto;html=1;" edge="1" parent="1" source="iCqmGD987BjXMMT1qT0J-133" target="iCqmGD987BjXMMT1qT0J-137">
          <mxGeometry relative="1" as="geometry" />
        </mxCell>
        <mxCell id="iCqmGD987BjXMMT1qT0J-133" value="choice==2" style="rhombus;whiteSpace=wrap;html=1;" vertex="1" parent="1">
          <mxGeometry x="790" y="2962" width="80" height="80" as="geometry" />
        </mxCell>
        <mxCell id="iCqmGD987BjXMMT1qT0J-134" style="edgeStyle=orthogonalEdgeStyle;rounded=0;orthogonalLoop=1;jettySize=auto;html=1;" edge="1" parent="1" source="iCqmGD987BjXMMT1qT0J-141">
          <mxGeometry relative="1" as="geometry">
            <mxPoint x="2790" y="2386.6666666666665" as="targetPoint" />
          </mxGeometry>
        </mxCell>
        <mxCell id="iCqmGD987BjXMMT1qT0J-135" value="increase(a,current)" style="whiteSpace=wrap;html=1;" vertex="1" parent="1">
          <mxGeometry x="930" y="2812" width="120" height="60" as="geometry" />
        </mxCell>
        <mxCell id="iCqmGD987BjXMMT1qT0J-136" style="edgeStyle=orthogonalEdgeStyle;rounded=0;orthogonalLoop=1;jettySize=auto;html=1;exitX=1;exitY=0.5;exitDx=0;exitDy=0;" edge="1" parent="1" source="iCqmGD987BjXMMT1qT0J-137">
          <mxGeometry relative="1" as="geometry">
            <mxPoint x="1338" y="2882" as="targetPoint" />
            <mxPoint x="1138" y="3044" as="sourcePoint" />
          </mxGeometry>
        </mxCell>
        <mxCell id="iCqmGD987BjXMMT1qT0J-137" value="decrease(a,current)" style="whiteSpace=wrap;html=1;" vertex="1" parent="1">
          <mxGeometry x="930" y="2972" width="120" height="60" as="geometry" />
        </mxCell>
        <mxCell id="iCqmGD987BjXMMT1qT0J-138" value="" style="edgeStyle=orthogonalEdgeStyle;rounded=0;orthogonalLoop=1;jettySize=auto;html=1;" edge="1" parent="1" source="iCqmGD987BjXMMT1qT0J-139" target="iCqmGD987BjXMMT1qT0J-143">
          <mxGeometry relative="1" as="geometry" />
        </mxCell>
        <mxCell id="iCqmGD987BjXMMT1qT0J-139" value="choice==7" style="rhombus;whiteSpace=wrap;html=1;" vertex="1" parent="1">
          <mxGeometry x="374" y="3259.9999999999995" width="80" height="80" as="geometry" />
        </mxCell>
        <mxCell id="iCqmGD987BjXMMT1qT0J-140" value="" style="edgeStyle=orthogonalEdgeStyle;rounded=0;orthogonalLoop=1;jettySize=auto;html=1;" edge="1" parent="1" source="iCqmGD987BjXMMT1qT0J-135" target="iCqmGD987BjXMMT1qT0J-141">
          <mxGeometry relative="1" as="geometry">
            <mxPoint x="2790" y="2386.6666666666665" as="targetPoint" />
            <mxPoint x="1050" y="2842" as="sourcePoint" />
          </mxGeometry>
        </mxCell>
        <mxCell id="iCqmGD987BjXMMT1qT0J-141" value="&#xa;&lt;div style=&quot;color: rgb(212, 212, 212); background-color: rgb(30, 30, 30); font-family: Consolas, &amp;quot;Courier New&amp;quot;, monospace; font-weight: normal; font-size: 14px; line-height: 19px;&quot;&gt;&lt;div&gt;&lt;span style=&quot;color: #d4d4d4;&quot;&gt;&amp;nbsp;&lt;/span&gt;&lt;span style=&quot;color: #c8c8c8;&quot;&gt;countArrange&lt;/span&gt;&lt;span style=&quot;color: #d4d4d4;&quot;&gt; = &lt;/span&gt;&lt;span style=&quot;color: #b5cea8;&quot;&gt;1&lt;/span&gt;&lt;span style=&quot;color: #d4d4d4;&quot;&gt;;&lt;/span&gt;&lt;/div&gt;&lt;/div&gt;&#xa;&#xa;" style="rounded=1;whiteSpace=wrap;html=1;" vertex="1" parent="1">
          <mxGeometry x="1292.88" y="2822" width="120" height="60" as="geometry" />
        </mxCell>
        <mxCell id="iCqmGD987BjXMMT1qT0J-142" value="" style="edgeStyle=orthogonalEdgeStyle;rounded=0;orthogonalLoop=1;jettySize=auto;html=1;" edge="1" parent="1" source="iCqmGD987BjXMMT1qT0J-143" target="iCqmGD987BjXMMT1qT0J-146">
          <mxGeometry relative="1" as="geometry" />
        </mxCell>
        <mxCell id="iCqmGD987BjXMMT1qT0J-143" value="fiindValue" style="shape=parallelogram;perimeter=parallelogramPerimeter;whiteSpace=wrap;html=1;fixedSize=1;" vertex="1" parent="1">
          <mxGeometry x="570" y="3269.9999999999995" width="120" height="60" as="geometry" />
        </mxCell>
        <mxCell id="iCqmGD987BjXMMT1qT0J-144" value="" style="edgeStyle=orthogonalEdgeStyle;rounded=0;orthogonalLoop=1;jettySize=auto;html=1;" edge="1" parent="1" source="iCqmGD987BjXMMT1qT0J-146" target="iCqmGD987BjXMMT1qT0J-148">
          <mxGeometry relative="1" as="geometry" />
        </mxCell>
        <mxCell id="iCqmGD987BjXMMT1qT0J-145" value="" style="edgeStyle=orthogonalEdgeStyle;rounded=0;orthogonalLoop=1;jettySize=auto;html=1;" edge="1" parent="1" source="iCqmGD987BjXMMT1qT0J-146" target="iCqmGD987BjXMMT1qT0J-161">
          <mxGeometry relative="1" as="geometry" />
        </mxCell>
        <mxCell id="iCqmGD987BjXMMT1qT0J-146" value="&lt;div style=&quot;color: rgb(212, 212, 212); background-color: rgb(30, 30, 30); font-family: Consolas, &amp;quot;Courier New&amp;quot;, monospace; font-size: 14px; line-height: 19px;&quot;&gt;countArrange == &lt;span style=&quot;color: #b5cea8;&quot;&gt;0&lt;/span&gt;&lt;/div&gt;" style="rhombus;whiteSpace=wrap;html=1;" vertex="1" parent="1">
          <mxGeometry x="790" y="3260" width="150" height="100" as="geometry" />
        </mxCell>
        <mxCell id="iCqmGD987BjXMMT1qT0J-147" value="" style="edgeStyle=orthogonalEdgeStyle;rounded=0;orthogonalLoop=1;jettySize=auto;html=1;" edge="1" parent="1" source="iCqmGD987BjXMMT1qT0J-148" target="iCqmGD987BjXMMT1qT0J-150">
          <mxGeometry relative="1" as="geometry" />
        </mxCell>
        <mxCell id="iCqmGD987BjXMMT1qT0J-148" value="i=0" style="whiteSpace=wrap;html=1;" vertex="1" parent="1">
          <mxGeometry x="1035" y="3280" width="120" height="60" as="geometry" />
        </mxCell>
        <mxCell id="iCqmGD987BjXMMT1qT0J-149" value="" style="edgeStyle=orthogonalEdgeStyle;rounded=0;orthogonalLoop=1;jettySize=auto;html=1;" edge="1" parent="1" source="iCqmGD987BjXMMT1qT0J-150" target="iCqmGD987BjXMMT1qT0J-154">
          <mxGeometry relative="1" as="geometry" />
        </mxCell>
        <mxCell id="iCqmGD987BjXMMT1qT0J-150" value="i&amp;lt;current" style="rhombus;whiteSpace=wrap;html=1;" vertex="1" parent="1">
          <mxGeometry x="1255" y="3270" width="80" height="80" as="geometry" />
        </mxCell>
        <mxCell id="iCqmGD987BjXMMT1qT0J-151" style="edgeStyle=orthogonalEdgeStyle;rounded=0;orthogonalLoop=1;jettySize=auto;html=1;entryX=0;entryY=0.5;entryDx=0;entryDy=0;" edge="1" parent="1" source="iCqmGD987BjXMMT1qT0J-154" target="iCqmGD987BjXMMT1qT0J-156">
          <mxGeometry relative="1" as="geometry" />
        </mxCell>
        <mxCell id="iCqmGD987BjXMMT1qT0J-152" value="true" style="edgeLabel;html=1;align=center;verticalAlign=middle;resizable=0;points=[];" vertex="1" connectable="0" parent="iCqmGD987BjXMMT1qT0J-151">
          <mxGeometry x="0.0252" y="3" relative="1" as="geometry">
            <mxPoint as="offset" />
          </mxGeometry>
        </mxCell>
        <mxCell id="iCqmGD987BjXMMT1qT0J-153" style="edgeStyle=orthogonalEdgeStyle;rounded=0;orthogonalLoop=1;jettySize=auto;html=1;entryX=0;entryY=0;entryDx=0;entryDy=0;" edge="1" parent="1" source="iCqmGD987BjXMMT1qT0J-159" target="iCqmGD987BjXMMT1qT0J-150">
          <mxGeometry relative="1" as="geometry">
            <mxPoint x="1200" y="3300" as="targetPoint" />
            <Array as="points">
              <mxPoint x="1275" y="3150" />
            </Array>
          </mxGeometry>
        </mxCell>
        <mxCell id="iCqmGD987BjXMMT1qT0J-154" value="a[i]==find_value" style="rhombus;whiteSpace=wrap;html=1;" vertex="1" parent="1">
          <mxGeometry x="1440" y="3260" width="145" height="100" as="geometry" />
        </mxCell>
        <mxCell id="iCqmGD987BjXMMT1qT0J-155" style="edgeStyle=orthogonalEdgeStyle;rounded=0;orthogonalLoop=1;jettySize=auto;html=1;" edge="1" parent="1" source="iCqmGD987BjXMMT1qT0J-156">
          <mxGeometry relative="1" as="geometry">
            <mxPoint x="2795" y="2800" as="targetPoint" />
          </mxGeometry>
        </mxCell>
        <mxCell id="iCqmGD987BjXMMT1qT0J-156" value="i" style="shape=parallelogram;perimeter=parallelogramPerimeter;whiteSpace=wrap;html=1;fixedSize=1;" vertex="1" parent="1">
          <mxGeometry x="1800" y="3280" width="120" height="60" as="geometry" />
        </mxCell>
        <mxCell id="iCqmGD987BjXMMT1qT0J-157" value="" style="edgeStyle=orthogonalEdgeStyle;rounded=0;orthogonalLoop=1;jettySize=auto;html=1;entryX=0;entryY=0;entryDx=0;entryDy=0;" edge="1" parent="1" source="iCqmGD987BjXMMT1qT0J-154" target="iCqmGD987BjXMMT1qT0J-159">
          <mxGeometry relative="1" as="geometry">
            <mxPoint x="1275" y="3290" as="targetPoint" />
            <mxPoint x="1540" y="3279" as="sourcePoint" />
            <Array as="points">
              <mxPoint x="1540" y="3150" />
            </Array>
          </mxGeometry>
        </mxCell>
        <mxCell id="iCqmGD987BjXMMT1qT0J-158" value="false" style="edgeLabel;html=1;align=center;verticalAlign=middle;resizable=0;points=[];" vertex="1" connectable="0" parent="iCqmGD987BjXMMT1qT0J-157">
          <mxGeometry x="-0.5773" y="3" relative="1" as="geometry">
            <mxPoint y="-1" as="offset" />
          </mxGeometry>
        </mxCell>
        <mxCell id="iCqmGD987BjXMMT1qT0J-159" value="i++" style="rounded=1;whiteSpace=wrap;html=1;" vertex="1" parent="1">
          <mxGeometry x="1410" y="3130" width="120" height="60" as="geometry" />
        </mxCell>
        <mxCell id="iCqmGD987BjXMMT1qT0J-160" value="" style="edgeStyle=orthogonalEdgeStyle;rounded=0;orthogonalLoop=1;jettySize=auto;html=1;" edge="1" parent="1" source="iCqmGD987BjXMMT1qT0J-166" target="iCqmGD987BjXMMT1qT0J-164">
          <mxGeometry relative="1" as="geometry" />
        </mxCell>
        <mxCell id="iCqmGD987BjXMMT1qT0J-161" value="&#xa;&lt;div style=&quot;color: rgb(212, 212, 212); background-color: rgb(30, 30, 30); font-family: Consolas, &amp;quot;Courier New&amp;quot;, monospace; font-weight: normal; font-size: 14px; line-height: 19px;&quot;&gt;&lt;div&gt;&lt;span style=&quot;color: #c8c8c8;&quot;&gt;start&lt;/span&gt;&lt;span style=&quot;color: #d4d4d4;&quot;&gt; = &lt;/span&gt;&lt;span style=&quot;color: #b5cea8;&quot;&gt;0&lt;/span&gt;&lt;span style=&quot;color: #d4d4d4;&quot;&gt;, &lt;/span&gt;&lt;span style=&quot;color: #c8c8c8;&quot;&gt;end&lt;/span&gt;&lt;span style=&quot;color: #d4d4d4;&quot;&gt; = &lt;/span&gt;&lt;span style=&quot;color: #c8c8c8;&quot;&gt;current&lt;/span&gt;&lt;span style=&quot;color: #d4d4d4;&quot;&gt;, &lt;/span&gt;&lt;span style=&quot;color: #c8c8c8;&quot;&gt;check&lt;/span&gt;&lt;span style=&quot;color: #d4d4d4;&quot;&gt;;&lt;/span&gt;&lt;/div&gt;&lt;/div&gt;&#xa;&#xa;" style="whiteSpace=wrap;html=1;" vertex="1" parent="1">
          <mxGeometry x="805" y="3460" width="275" height="190" as="geometry" />
        </mxCell>
        <mxCell id="iCqmGD987BjXMMT1qT0J-162" value="" style="edgeStyle=orthogonalEdgeStyle;rounded=0;orthogonalLoop=1;jettySize=auto;html=1;" edge="1" parent="1" source="iCqmGD987BjXMMT1qT0J-164" target="iCqmGD987BjXMMT1qT0J-168">
          <mxGeometry relative="1" as="geometry" />
        </mxCell>
        <mxCell id="iCqmGD987BjXMMT1qT0J-163" value="" style="edgeStyle=orthogonalEdgeStyle;rounded=0;orthogonalLoop=1;jettySize=auto;html=1;" edge="1" parent="1" source="iCqmGD987BjXMMT1qT0J-164" target="iCqmGD987BjXMMT1qT0J-171">
          <mxGeometry relative="1" as="geometry" />
        </mxCell>
        <mxCell id="iCqmGD987BjXMMT1qT0J-164" value="a[check]==findValue" style="rhombus;whiteSpace=wrap;html=1;" vertex="1" parent="1">
          <mxGeometry x="860" y="3940" width="157.5" height="130" as="geometry" />
        </mxCell>
        <mxCell id="iCqmGD987BjXMMT1qT0J-165" value="" style="edgeStyle=orthogonalEdgeStyle;rounded=0;orthogonalLoop=1;jettySize=auto;html=1;" edge="1" parent="1" source="iCqmGD987BjXMMT1qT0J-161" target="iCqmGD987BjXMMT1qT0J-166">
          <mxGeometry relative="1" as="geometry">
            <mxPoint x="943" y="3650" as="sourcePoint" />
            <mxPoint x="939" y="3940" as="targetPoint" />
          </mxGeometry>
        </mxCell>
        <mxCell id="iCqmGD987BjXMMT1qT0J-166" value="&#xa;&lt;div style=&quot;color: rgb(212, 212, 212); background-color: rgb(30, 30, 30); font-family: Consolas, &amp;quot;Courier New&amp;quot;, monospace; font-weight: normal; font-size: 14px; line-height: 19px;&quot;&gt;&lt;div&gt;&lt;span style=&quot;color: #d4d4d4;&quot;&gt;&amp;nbsp;&lt;/span&gt;&lt;span style=&quot;color: #c8c8c8;&quot;&gt;check&lt;/span&gt;&lt;span style=&quot;color: #d4d4d4;&quot;&gt; = (&lt;/span&gt;&lt;span style=&quot;color: #c8c8c8;&quot;&gt;start&lt;/span&gt;&lt;span style=&quot;color: #d4d4d4;&quot;&gt; + &lt;/span&gt;&lt;span style=&quot;color: #c8c8c8;&quot;&gt;end&lt;/span&gt;&lt;span style=&quot;color: #d4d4d4;&quot;&gt; / &lt;/span&gt;&lt;span style=&quot;color: #b5cea8;&quot;&gt;2&lt;/span&gt;&lt;span style=&quot;color: #d4d4d4;&quot;&gt;);&lt;/span&gt;&lt;/div&gt;&lt;/div&gt;&#xa;&#xa;" style="rounded=1;whiteSpace=wrap;html=1;" vertex="1" parent="1">
          <mxGeometry x="880" y="3730" width="120" height="60" as="geometry" />
        </mxCell>
        <mxCell id="iCqmGD987BjXMMT1qT0J-167" style="edgeStyle=orthogonalEdgeStyle;rounded=0;orthogonalLoop=1;jettySize=auto;html=1;" edge="1" parent="1" source="iCqmGD987BjXMMT1qT0J-168">
          <mxGeometry relative="1" as="geometry">
            <mxPoint x="2790" y="2798" as="targetPoint" />
          </mxGeometry>
        </mxCell>
        <mxCell id="iCqmGD987BjXMMT1qT0J-168" value="a[check]" style="shape=parallelogram;perimeter=parallelogramPerimeter;whiteSpace=wrap;html=1;fixedSize=1;" vertex="1" parent="1">
          <mxGeometry x="1440" y="3972.5" width="120" height="65" as="geometry" />
        </mxCell>
        <mxCell id="iCqmGD987BjXMMT1qT0J-169" style="edgeStyle=orthogonalEdgeStyle;rounded=0;orthogonalLoop=1;jettySize=auto;html=1;entryX=1;entryY=0.5;entryDx=0;entryDy=0;" edge="1" parent="1" source="iCqmGD987BjXMMT1qT0J-171" target="iCqmGD987BjXMMT1qT0J-173">
          <mxGeometry relative="1" as="geometry" />
        </mxCell>
        <mxCell id="iCqmGD987BjXMMT1qT0J-170" value="" style="edgeStyle=orthogonalEdgeStyle;rounded=0;orthogonalLoop=1;jettySize=auto;html=1;entryX=0.5;entryY=0;entryDx=0;entryDy=0;" edge="1" parent="1" source="iCqmGD987BjXMMT1qT0J-171" target="iCqmGD987BjXMMT1qT0J-175">
          <mxGeometry relative="1" as="geometry">
            <mxPoint x="938.75" y="4480" as="targetPoint" />
          </mxGeometry>
        </mxCell>
        <mxCell id="iCqmGD987BjXMMT1qT0J-171" value="&lt;div style=&quot;color: rgb(212, 212, 212); background-color: rgb(30, 30, 30); font-family: Consolas, &amp;quot;Courier New&amp;quot;, monospace; font-size: 14px; line-height: 19px;&quot;&gt;a[&lt;span style=&quot;color: #c8c8c8;&quot;&gt;check&lt;/span&gt;] &amp;gt; &lt;span style=&quot;color: #c8c8c8;&quot;&gt;find_value&lt;/span&gt;&lt;/div&gt;" style="rhombus;whiteSpace=wrap;html=1;" vertex="1" parent="1">
          <mxGeometry x="818.75" y="4210" width="240" height="190" as="geometry" />
        </mxCell>
        <mxCell id="iCqmGD987BjXMMT1qT0J-172" style="edgeStyle=orthogonalEdgeStyle;rounded=0;orthogonalLoop=1;jettySize=auto;html=1;" edge="1" parent="1" source="iCqmGD987BjXMMT1qT0J-173">
          <mxGeometry relative="1" as="geometry">
            <mxPoint x="940" y="3690" as="targetPoint" />
            <Array as="points">
              <mxPoint x="508" y="3680" />
              <mxPoint x="940" y="3680" />
            </Array>
          </mxGeometry>
        </mxCell>
        <mxCell id="iCqmGD987BjXMMT1qT0J-173" value="&#xa;&lt;div style=&quot;color: rgb(212, 212, 212); background-color: rgb(30, 30, 30); font-family: Consolas, &amp;quot;Courier New&amp;quot;, monospace; font-weight: normal; font-size: 14px; line-height: 19px;&quot;&gt;&lt;div&gt;&lt;span style=&quot;color: #d4d4d4;&quot;&gt;&amp;nbsp;&lt;/span&gt;&lt;span style=&quot;color: #c8c8c8;&quot;&gt;end&lt;/span&gt;&lt;span style=&quot;color: #d4d4d4;&quot;&gt; = &lt;/span&gt;&lt;span style=&quot;color: #c8c8c8;&quot;&gt;check&lt;/span&gt;&lt;span style=&quot;color: #d4d4d4;&quot;&gt; - &lt;/span&gt;&lt;span style=&quot;color: #b5cea8;&quot;&gt;1&lt;/span&gt;&lt;span style=&quot;color: #d4d4d4;&quot;&gt;;&lt;/span&gt;&lt;/div&gt;&lt;/div&gt;&#xa;&#xa;" style="rounded=1;whiteSpace=wrap;html=1;" vertex="1" parent="1">
          <mxGeometry x="383" y="4240" width="250" height="120" as="geometry" />
        </mxCell>
        <mxCell id="iCqmGD987BjXMMT1qT0J-174" style="edgeStyle=orthogonalEdgeStyle;rounded=0;orthogonalLoop=1;jettySize=auto;html=1;" edge="1" parent="1" source="iCqmGD987BjXMMT1qT0J-175">
          <mxGeometry relative="1" as="geometry">
            <mxPoint x="510" y="3700" as="targetPoint" />
            <Array as="points">
              <mxPoint x="181" y="4635" />
              <mxPoint x="181" y="3700" />
            </Array>
          </mxGeometry>
        </mxCell>
        <mxCell id="iCqmGD987BjXMMT1qT0J-175" value="&#xa;&lt;div style=&quot;color: rgb(212, 212, 212); background-color: rgb(30, 30, 30); font-family: Consolas, &amp;quot;Courier New&amp;quot;, monospace; font-weight: normal; font-size: 14px; line-height: 19px;&quot;&gt;&lt;div&gt;&lt;span style=&quot;color: #d4d4d4;&quot;&gt;&amp;nbsp;&lt;/span&gt;&lt;span style=&quot;color: #c8c8c8;&quot;&gt;start&lt;/span&gt;&lt;span style=&quot;color: #d4d4d4;&quot;&gt; = &lt;/span&gt;&lt;span style=&quot;color: #c8c8c8;&quot;&gt;check&lt;/span&gt;&lt;span style=&quot;color: #d4d4d4;&quot;&gt; + &lt;/span&gt;&lt;span style=&quot;color: #b5cea8;&quot;&gt;1&lt;/span&gt;&lt;span style=&quot;color: #d4d4d4;&quot;&gt;;&lt;/span&gt;&lt;/div&gt;&lt;/div&gt;&#xa;&#xa;" style="rounded=1;whiteSpace=wrap;html=1;" vertex="1" parent="1">
          <mxGeometry x="720" y="4580" width="190" height="110" as="geometry" />
        </mxCell>
      </root>
    </mxGraphModel>
  </diagram>
</mxfile>
